<svg width="71" height="103" viewBox="0 0 71 103" fill="none" xmlns="http://www.w3.org/2000/svg">
    <g clip-path="url(#clip0)">
        <path d="M35.506 101.317C28.6985 101.309 22.0519 99.2449 16.4359 95.3946C10.82 91.5443 6.49613 86.0872 4.0302 79.7375C1.56427 73.3877 1.07106 66.4409 2.61512 59.8061C4.15918 53.1712 7.66859 47.1573 12.6842 42.5511C13.1016 42.0988 13.569 41.6955 14.0775 41.3491L14.546 41.0846C14.7874 40.9472 15.061 40.8766 15.3387 40.8803C15.5643 40.8827 15.787 40.9308 15.9934 41.0217C16.1998 41.1126 16.3857 41.2444 16.5399 41.4092C16.7974 41.6803 16.9572 42.0296 16.9942 42.4018C17.0312 42.7741 16.9432 43.148 16.7441 43.4646C16.1843 44.4359 15.8427 45.5176 15.7431 46.6344C15.6436 47.7512 15.7884 48.8763 16.1675 49.9314C16.4528 50.8305 16.8568 51.6875 17.3687 52.4796C16.9716 50.535 16.8182 48.5484 16.9122 46.5658C17.0346 43.6271 17.8101 40.7527 19.1824 38.1517C20.7908 35.1972 22.6729 32.4002 24.8038 29.7978L25.7887 28.4996C29.4643 23.6916 33.2599 18.6912 34.389 12.9336C35.0016 9.94368 34.6 6.83468 33.2479 4.09886C33.1302 3.84345 33.0779 3.56275 33.0957 3.28206C33.1135 3.00137 33.2008 2.72952 33.3497 2.49102C33.4987 2.25252 33.7046 2.05487 33.9489 1.91588C34.1933 1.77689 34.4683 1.70093 34.7493 1.69485C35.0893 1.693 35.4212 1.79812 35.6982 1.99535C47.8178 10.3132 44.851 23.6315 42.6889 33.3197C42.4727 34.2692 42.2685 35.1828 42.0884 36.0602C41.7314 37.5773 41.4984 39.121 41.3917 40.6759C41.2763 42.1117 41.5692 43.5509 42.2366 44.8271C42.904 46.1033 43.9187 47.1645 45.1633 47.888C44.5123 46.5119 44.0129 45.069 43.6739 43.5848C43.156 41.2554 43.1355 38.8428 43.6138 36.505C44.0596 34.2865 45.004 32.1985 46.3753 30.3992C47.7467 28.5999 49.5092 27.1365 51.5294 26.1196C51.7644 26.002 52.0234 25.9403 52.2861 25.9393C52.5065 25.9323 52.7262 25.969 52.9324 26.0474C53.1385 26.1258 53.3271 26.2443 53.4873 26.3961C53.7382 26.635 53.9105 26.9446 53.9813 27.2838C54.0521 27.6231 54.0181 27.9759 53.8836 28.2953C53.2494 29.7631 53.0654 31.3864 53.3551 32.9591C53.3592 33.0111 53.3592 33.0633 53.3551 33.1153C53.5771 34.2524 53.9361 35.3583 54.4242 36.4088C55.2534 38.4478 56.5494 40.2634 58.2078 41.7097L58.3279 41.8299C61.9314 45.4359 69.3425 53.0807 69.3425 67.4807C69.3329 76.4559 65.7642 85.0605 59.42 91.4047C53.0758 97.7489 44.4749 101.314 35.506 101.317Z" fill="url(#paint0_radial)"/>
        <path d="M34.7379 3.37769C47.0377 11.7917 42.4493 25.9995 40.4314 35.6997C40.0488 37.3008 39.7839 38.9279 39.6386 40.5678C39.1701 49.5227 49.0916 51.2656 49.5721 51.6263C47.4649 49.2193 45.9837 46.3292 45.26 43.2122C44.81 41.1166 44.81 38.9492 45.26 36.8536C45.6547 34.8869 46.4914 33.0359 47.7067 31.4407C48.922 29.8455 50.4841 28.5479 52.2747 27.6462C51.5233 29.4035 51.306 31.3434 51.6501 33.2235V33.3557C51.9022 34.6332 52.3054 35.876 52.8512 37.0579C53.763 39.276 55.1727 41.2543 56.9712 42.8396C60.5026 46.4456 67.6254 53.5615 67.6254 67.4326C67.634 72.7827 66.3085 78.0504 63.7689 82.7583C61.2292 87.4662 57.5559 91.4656 53.0816 94.394C48.6072 97.3224 43.4735 99.0872 38.1454 99.5286C32.8174 99.97 27.4635 99.0739 22.5689 96.9217C17.6743 94.7694 13.3937 91.4289 10.1151 87.203C6.83646 82.9771 4.66338 77.9992 3.79278 72.7205C2.92217 67.4419 3.38157 62.0292 5.12933 56.9731C6.87709 51.917 9.85797 47.3772 13.8018 43.7651C14.1367 43.3918 14.5159 43.0608 14.9309 42.7795L15.2673 42.5751C12.1563 47.5635 14.8829 55.4126 21.9817 58.3455C22.1138 58.3455 18.2461 55.4366 18.5464 46.6259C18.6708 43.9431 19.3844 41.3207 20.6364 38.9451C22.4395 35.7219 24.53 32.6684 26.8824 29.8218C30.69 24.8576 34.834 19.5447 36.0351 13.2942C36.7202 9.93646 36.2636 6.44586 34.7379 3.37769ZM34.7379 4.57877e-05C34.1611 -0.00296471 33.5932 0.142525 33.0888 0.422534C32.5845 0.702543 32.1605 1.10766 31.8577 1.59896C31.555 2.09026 31.3835 2.65122 31.36 3.22795C31.3364 3.80468 31.4614 4.37779 31.723 4.89221C32.9192 7.29018 33.2705 10.0223 32.72 12.6452C31.663 18.0302 27.9874 22.8382 24.432 27.514L24.2398 27.7784L23.4471 28.8122C21.2597 31.4962 19.3255 34.3773 17.6696 37.4185C17.3092 38.1277 16.9969 38.8249 16.7206 39.51C16.288 39.3079 15.8168 39.2013 15.3393 39.1975H14.9429C14.4742 39.2438 14.0202 39.387 13.6097 39.6182L13.1652 39.8826H13.0932C12.4886 40.2909 11.9325 40.7668 11.4356 41.301C7.10368 45.3014 3.83555 50.3184 1.92625 55.8992C0.016951 61.4799 -0.473401 67.4486 0.499463 73.2665C1.47233 79.0843 3.87777 84.5681 7.49864 89.2228C11.1195 93.8774 15.8418 97.5564 21.2391 99.9275C26.6365 102.299 32.539 103.287 38.4137 102.804C44.2885 102.321 49.9505 100.381 54.8886 97.1603C59.8267 93.9392 63.8855 89.5382 66.6984 84.3544C69.5114 79.1706 70.9899 73.3674 71.0006 67.4687C71.0006 52.3835 63.2292 44.4503 59.4936 40.6399L59.3735 40.5077C57.3315 38.4282 56.6829 37.6108 55.9983 35.8559L55.9262 35.6997C55.4945 34.7769 55.1797 33.8037 54.9893 32.8028C54.9835 32.7751 54.9835 32.7464 54.9893 32.7187C54.7504 31.4637 54.8927 30.1658 55.3977 28.9925C55.619 28.4795 55.7093 27.9196 55.6603 27.363C55.6113 26.8065 55.4247 26.2709 55.1172 25.8046C54.8097 25.3383 54.3911 24.9559 53.899 24.6919C53.407 24.428 52.857 24.2907 52.2987 24.2926C51.7777 24.2878 51.263 24.4073 50.7973 24.6412C48.6773 25.6975 46.8125 27.2028 45.3321 29.0526C47.0977 19.8452 47.7343 8.24581 36.6718 0.637109C36.108 0.230624 35.4327 0.00814522 34.7379 4.57877e-05Z" fill="white"/>
        <path d="M27.7588 66.2066V55.4967H29.3803V59.8239H30.8457V55.4967H32.4313V66.2066H30.8457V61.2303H29.3803V66.2066H27.7588Z" fill="white"/>
        <path d="M38.1124 65.5455C37.9015 65.8133 37.6278 66.0247 37.3156 66.1611C37.0033 66.2974 36.6622 66.3543 36.3226 66.3268C35.9814 66.3542 35.6385 66.2973 35.3244 66.1611C35.0102 66.0248 34.7343 65.8134 34.5209 65.5455C34.088 64.8484 33.8862 64.0322 33.9444 63.2136V58.3094C33.9444 56.3501 34.7371 55.3765 36.3467 55.3765C36.6814 55.3446 37.0188 55.396 37.3289 55.526C37.639 55.656 37.9123 55.8606 38.1244 56.1217C38.5281 56.7767 38.7171 57.5416 38.6649 58.3094V63.2136C38.727 64.0294 38.5339 64.8444 38.1124 65.5455ZM35.7101 64.5358C35.7587 64.6552 35.8419 64.7574 35.9488 64.8293C36.0558 64.9013 36.1818 64.9397 36.3106 64.9397C36.4395 64.9397 36.5655 64.9013 36.6724 64.8293C36.7794 64.7574 36.8625 64.6552 36.9112 64.5358C37.0171 64.1075 37.0616 63.6664 37.0433 63.2256V58.2373C37.0627 57.8629 37.0139 57.4882 36.8992 57.1314C36.8577 57.0209 36.7813 56.9271 36.6815 56.8642C36.5817 56.8012 36.4642 56.7727 36.3467 56.7828C36.2251 56.7758 36.1041 56.8052 35.9993 56.8673C35.8944 56.9294 35.8105 57.0213 35.7581 57.1314C35.627 57.4846 35.5698 57.861 35.5899 58.2373V63.2256C35.5623 63.6666 35.6069 64.1092 35.7221 64.5358H35.7101Z" fill="white"/>
        <path d="M40.6948 66.2066V56.9151H39.4937V55.4967H43.5656V56.9151H42.3644V66.2066H40.6948Z" fill="white"/>
        <path d="M18.1851 87.1216V72.1205H21.6203C22.0789 72.0633 22.5444 72.1314 22.9674 72.3176C23.3903 72.5039 23.755 72.8013 24.0227 73.1783C24.52 74.1548 24.7519 75.245 24.6953 76.3396V76.6521C24.7528 77.8279 24.5219 78.9999 24.0227 80.0658C23.7874 80.4828 23.4331 80.82 23.005 81.0341C22.577 81.2483 22.0949 81.3296 21.6203 81.2678H20.4192V87.1696L18.1851 87.1216ZM20.4192 79.3326H21.1999C21.3966 79.3559 21.5956 79.3146 21.7668 79.2148C21.9379 79.1151 22.072 78.9623 22.1489 78.7796C22.3316 78.0861 22.4045 77.3682 22.3651 76.6521V76.3636C22.3917 75.7215 22.3105 75.0796 22.1248 74.4644C22.0608 74.2821 21.9368 74.1269 21.7731 74.0243C21.6095 73.9217 21.4159 73.8777 21.224 73.8995H20.4192V79.3326Z" fill="white"/>
        <path d="M29.2361 80.0777H28.5034V87.1576H26.2212V72.1205H30.0288C30.6496 72.0736 31.2678 72.2389 31.7825 72.5892C32.1809 72.9284 32.4485 73.396 32.5392 73.9115C32.6739 74.6407 32.7343 75.3817 32.7194 76.1231C32.7534 76.8361 32.6556 77.5492 32.4311 78.2267C32.3388 78.4584 32.1943 78.6657 32.0089 78.8325C31.8235 78.9992 31.6022 79.121 31.3621 79.1883C31.6228 79.2422 31.8628 79.3692 32.0541 79.5543C32.2455 79.7394 32.3804 79.9751 32.4432 80.234C32.7063 81.4819 32.8072 82.7586 32.7434 84.0324C32.7126 85.0628 32.7407 86.0942 32.8275 87.1215H30.5213C30.4613 87.0133 30.4372 85.2223 30.4372 81.7485C30.4799 81.2941 30.3968 80.8367 30.197 80.4263C30.0723 80.3011 29.9215 80.2049 29.7554 80.1446C29.5893 80.0844 29.412 80.0616 29.2361 80.0777ZM28.5034 78.2747H29.4163C29.631 78.2998 29.8478 78.2488 30.0288 78.1305C30.1875 77.9385 30.2876 77.7048 30.3171 77.4574C30.3798 76.9752 30.4079 76.4891 30.4012 76.0029V75.9068C30.4415 75.3695 30.372 74.8297 30.197 74.3201C30.0529 74.0677 29.7406 73.9475 29.2481 73.9475H28.4673L28.5034 78.2747Z" fill="white"/>
        <path d="M34.8936 87.1215V72.1205H37.2358V87.1215H34.8936Z" fill="white"/>
        <path d="M45.0551 86.244C44.7683 86.5989 44.4001 86.8792 43.9819 87.0613C43.5637 87.2433 43.1077 87.3217 42.6528 87.2898C42.1815 87.3215 41.7096 87.2372 41.2783 87.0445C40.847 86.8517 40.4694 86.5563 40.1784 86.1839C39.5488 85.2238 39.2494 84.0844 39.3256 82.9385V76.4597C39.3256 74.224 39.9022 72.8537 41.0793 72.2767C41.57 72.0573 42.1035 71.9505 42.6408 71.9642C44.7428 71.9642 45.7998 73.2984 45.7998 75.9548V78.0103H43.5897V76.0991C43.6192 75.5393 43.5542 74.9785 43.3975 74.4403C43.3405 74.2856 43.2345 74.1538 43.0958 74.0648C42.957 73.9759 42.793 73.9347 42.6288 73.9475C42.4572 73.9378 42.2871 73.9841 42.1441 74.0795C42.0011 74.1748 41.893 74.3141 41.836 74.4764C41.6668 74.9957 41.5935 75.5415 41.6198 76.0871V83.0827C41.5887 83.668 41.6619 84.2541 41.836 84.8136C41.8978 84.967 42.004 85.0985 42.141 85.191C42.2779 85.2836 42.4395 85.3331 42.6047 85.3331C42.77 85.3331 42.9315 85.2836 43.0685 85.191C43.2055 85.0985 43.3117 84.967 43.3735 84.8136C43.5482 84.2501 43.6214 83.6599 43.5897 83.0707V80.9191H45.8238V83.0347C45.912 84.1588 45.643 85.2821 45.0551 86.244Z" fill="white"/>
        <path d="M47.6855 87.1215V72.1205H52.7064V74.0798H49.9677V78.443H52.5622V80.3663H49.9677V85.1743H52.8505V87.1456L47.6855 87.1215Z" fill="white"/>
    </g>
    <defs>
        <radialGradient id="paint0_radial" cx="0" cy="0" r="1" gradientUnits="userSpaceOnUse" gradientTransform="translate(37.0796 -8.07747) scale(127.49 127.581)">
            <stop offset="0.07" stop-color="#FF8C00"/>
            <stop offset="1" stop-color="#FF0000"/>
        </radialGradient>
        <clipPath id="clip0">
            <rect width="71" height="103" fill="white"/>
        </clipPath>
    </defs>
</svg>
