<svg width="90" height="90" viewBox="0 0 90 90" fill="none" xmlns="http://www.w3.org/2000/svg">
    <path d="M2.23633 44.9735C2.23633 21.2899 21.5057 2.02051 45.1893 2.02051C68.873 2.02051 88.1423 21.2899 88.1423 44.9735C88.1423 68.657 68.873 87.9264 45.1893 87.9264C21.5057 87.9264 2.23633 68.6572 2.23633 44.9735ZM9.39818 44.9735C9.39818 64.7103 25.4525 80.7646 45.1893 80.7646C64.9261 80.7646 80.9804 64.7103 80.9804 44.9735C80.9804 25.2376 64.9262 9.18236 45.1893 9.18236C25.4524 9.18236 9.39818 25.2376 9.39818 44.9735Z" fill="#3F3737" stroke="white" stroke-width="2.5"/>
    <path d="M49.0144 45.0262V26.4998C49.0144 24.4312 47.3381 22.7549 45.2703 22.7549C43.2018 22.7549 41.5254 24.4312 41.5254 26.4998V46.2226C41.5254 46.2815 41.5399 46.3367 41.5428 46.3956C41.4935 47.4139 41.8443 48.4478 42.622 49.2257L56.569 63.1716C58.0318 64.6344 60.4028 64.6344 61.8645 63.1716C63.3264 61.7087 63.3274 59.3378 61.8645 57.8759L49.0144 45.0262Z" fill="#43A948"/>
</svg>
