<svg width="114" height="161" viewBox="0 0 114 161" fill="none" xmlns="http://www.w3.org/2000/svg">
    <path d="M45.3862 56.916H12.3655C5.90367 56.916 0.646797 62.2057 0.646797 68.708C0.646797 70.0105 1.69617 71.0664 2.99055 71.0664C4.28492 71.0664 5.3343 70.0105 5.3343 68.708C5.3343 64.8066 8.48836 61.6328 12.3655 61.6328H45.3865C49.2637 61.6328 52.4177 64.8066 52.4177 68.708V106.914C52.4177 108.169 51.4102 109.115 50.074 109.115C48.7377 109.115 47.7302 108.169 47.7302 106.914C47.7302 106.912 47.7302 68.8652 47.7302 68.8652C47.7302 67.5628 46.6809 66.5068 45.3865 66.5068C44.0921 66.5068 43.0427 67.5628 43.0427 68.8652V152.85C43.0427 154.711 41.409 156.283 39.4749 156.283C37.5077 156.283 35.9071 154.673 35.9071 152.693V106.757C35.9071 105.454 34.8577 104.398 33.5634 104.398H24.1884C23.5668 104.398 22.9706 104.647 22.5312 105.089C22.0915 105.531 21.8446 106.131 21.8446 106.757V152.693C21.8446 154.673 20.244 156.283 18.2768 156.283C16.343 156.283 14.709 154.711 14.709 152.85V68.8652C14.709 67.5628 13.6596 66.5068 12.3652 66.5068C11.0709 66.5068 10.0215 67.5628 10.0215 68.8652V106.756C10.0215 108.057 8.96992 109.115 7.67773 109.115C6.38555 109.115 5.33398 108.057 5.33398 106.757V78.1416C5.33398 76.8391 4.28461 75.7832 2.99023 75.7832C1.69586 75.7832 0.646484 76.8391 0.646484 78.1416V106.757C0.646484 110.658 3.80055 113.832 7.67773 113.832C8.4993 113.832 9.28805 113.688 10.0215 113.426V152.851C10.0215 157.344 13.7249 161 18.2768 161C22.8287 161 26.5321 157.274 26.5321 152.693V109.116H31.2196V152.693C31.2196 157.274 34.9231 161 39.4749 161C44.0268 161 47.7302 157.344 47.7302 152.851V113.451C48.4606 113.697 49.2481 113.832 50.074 113.832C54.0168 113.832 57.1052 110.793 57.1052 106.914V68.7083C57.1049 62.2057 51.848 56.916 45.3862 56.916Z" fill="#3F3737"/>
    <path d="M28.7734 52.1992C37.82 52.1992 45.1797 44.7935 45.1797 35.6904C45.1797 26.5873 37.82 19.1816 28.7734 19.1816C19.7269 19.1816 12.3672 26.5873 12.3672 35.6904C12.3672 44.7935 19.7272 52.1992 28.7734 52.1992ZM28.7734 23.8984C35.2353 23.8984 40.4922 29.1882 40.4922 35.6904C40.4922 42.1927 35.2353 47.4824 28.7734 47.4824C22.3116 47.4824 17.0547 42.1927 17.0547 35.6904C17.0547 29.1882 22.3119 23.8984 28.7734 23.8984Z" fill="#3F3737"/>
    <path d="M111.012 9.43359H103.98V2.3584C103.98 1.05593 102.931 0 101.637 0H73.5117C72.2173 0 71.168 1.05593 71.168 2.3584V9.43359H64.1367C62.8423 9.43359 61.793 10.4895 61.793 11.792V111.474C61.793 112.776 62.8423 113.832 64.1367 113.832H111.012C112.306 113.832 113.355 112.776 113.355 111.474V11.792C113.355 10.4895 112.306 9.43359 111.012 9.43359ZM75.8555 4.7168H99.293V9.43359H75.8555V4.7168ZM108.668 109.115H66.4805V14.1504H108.668V109.115Z" fill="#3F3737"/>
    <path d="M71.168 21.2256V102.04C71.168 103.343 72.2173 104.398 73.5117 104.398H101.637C102.931 104.398 103.98 103.343 103.98 102.04V21.2256C103.98 19.9231 102.931 18.8672 101.637 18.8672H73.5117C72.2173 18.8672 71.168 19.9231 71.168 21.2256ZM75.8555 85.5312H99.2929V90.248H75.8555V85.5312ZM99.2929 80.8145H75.8555V76.0977H99.2929V80.8145ZM75.8555 99.6816V94.9648H99.2929V99.6816H75.8555ZM99.2929 23.584V71.3809H75.8555V23.584H99.2929Z" fill="#43A948"/>
</svg>
