<svg width="156" height="84" viewBox="0 0 156 84" fill="none" xmlns="http://www.w3.org/2000/svg">
    <path d="M126.79 76.4284H127.477L127.537 75.7448C128.527 64.6171 137.179 55.6615 148.168 54.2029L148.819 54.1165V53.4595V29.0854V28.4283L148.168 28.3419C137.517 26.9282 129.062 18.471 127.652 7.81834L127.565 7.16678H126.908H29.6292H28.9719L28.8857 7.81836C27.4752 18.4731 19.0165 26.9318 8.36179 28.3426L7.71024 28.4289V29.0861V53.4587V54.116L8.36181 54.2022C19.3548 55.6576 28.0107 64.6143 28.9999 75.7448L29.0606 76.4284H29.7469H126.79ZM147.925 22.0236L148.819 22.1985V21.2876V10.091C148.819 8.47804 147.508 7.16728 145.895 7.16678H134.705H133.795L133.969 8.06045C135.342 15.0949 140.892 20.648 147.925 22.0236ZM22.5679 8.06077L22.7422 7.16715H21.8318H10.6341C9.02121 7.16715 7.71037 8.47816 7.70988 10.0907V10.091V21.2894V22.1999L8.60353 22.0255C15.6407 20.6522 21.1949 15.0979 22.5679 8.06077ZM8.60389 60.5197L7.71024 60.3453V61.2558V73.5039C7.71024 75.1168 9.02101 76.4284 10.6341 76.4284H22.0008H22.8548L22.7446 75.5816C21.7611 68.0295 16.0023 61.9634 8.60389 60.5197ZM133.793 75.5816L133.682 76.4284H134.536H145.895C147.508 76.4284 148.819 75.1169 148.819 73.5039V61.2572V60.3464L147.925 60.5212C140.53 61.9673 134.776 68.0323 133.793 75.5816ZM10.6341 0.965088H145.895C150.927 0.965088 155.021 5.05984 155.021 10.091V73.5039C155.021 78.5358 150.927 82.6309 145.895 82.6309H10.6341C5.6026 82.6309 1.50781 78.5358 1.50781 73.5039V10.0913C1.50781 5.05982 5.60255 0.965088 10.6341 0.965088Z" fill="#3F3737" stroke="white" stroke-width="1.5"/>
    <path d="M51.6699 41.7973C51.6699 27.0202 63.6934 14.9971 78.4709 14.9971C93.2481 14.9971 105.272 27.0205 105.272 41.7973C105.272 56.5749 93.2481 68.5984 78.4709 68.5984C63.6934 68.5984 51.6699 56.5749 51.6699 41.7973ZM57.872 41.7977C57.872 53.1569 67.1117 62.3967 78.4709 62.3967C89.8298 62.3967 99.0695 53.1565 99.0695 41.7977C99.0695 30.4392 89.8298 21.1995 78.4709 21.1995C67.1118 21.1995 57.872 30.4392 57.872 41.7977Z" fill="#43A948" stroke="white" stroke-width="1.5"/>
    <path d="M23.0371 41.7979C23.0371 35.6801 28.015 30.7021 34.1329 30.7021C40.2504 30.7021 45.2283 35.68 45.2283 41.7979C45.2283 47.9154 40.2504 52.8933 34.1329 52.8933C28.015 52.8933 23.0371 47.9154 23.0371 41.7979ZM29.2392 41.7976C29.2392 44.4968 31.4342 46.6909 34.1329 46.6909C36.832 46.6909 39.0262 44.4967 39.0262 41.7976C39.0262 39.0985 36.8321 36.9038 34.1329 36.9038C31.4337 36.9038 29.2392 39.0984 29.2392 41.7976Z" fill="#43A948" stroke="white" stroke-width="1.5"/>
    <path d="M111.711 41.7979C111.711 35.68 116.689 30.7021 122.806 30.7021C128.924 30.7021 133.902 35.6801 133.902 41.7979C133.902 47.9154 128.924 52.8933 122.806 52.8933C116.689 52.8933 111.711 47.9154 111.711 41.7979ZM117.913 41.7976C117.913 44.4967 120.107 46.6909 122.806 46.6909C125.506 46.6909 127.7 44.4968 127.7 41.7976C127.7 39.0983 125.505 36.9038 122.806 36.9038C120.107 36.9038 117.913 39.0985 117.913 41.7976Z" fill="#43A948" stroke="white" stroke-width="1.5"/>
</svg>
