<svg width="135" height="161" viewBox="0 0 135 161" fill="none" xmlns="http://www.w3.org/2000/svg">
    <path d="M42.215 119.382C41.9051 119.922 41.4249 120.084 40.974 120.084C40.5232 120.084 40.0724 119.922 39.7624 119.382L36.5197 113.543V125.382C36.5197 126.112 35.5898 126.49 34.6882 126.49C33.7571 126.49 32.8555 126.112 32.8555 125.382V108.487C32.8555 107.19 33.7571 106.731 34.6882 106.731C36.0125 106.731 36.6054 107.001 37.5353 108.595L41.0034 114.65L44.4704 108.595C45.4015 107.001 46.0213 106.731 47.3469 106.731C48.2767 106.731 49.1784 107.19 49.1784 108.487V125.382C49.1784 126.112 48.2485 126.49 47.3469 126.49C46.4158 126.49 45.5142 126.112 45.5142 125.382V113.759L42.215 119.382Z" fill="#43A948"/>
    <path d="M59.743 115.218H64.0575C64.795 115.218 65.2205 115.895 65.2205 116.624C65.2205 117.246 64.8518 117.976 64.0575 117.976H59.743V123.409H67.7749C68.5137 123.409 68.9392 124.138 68.9392 124.977C68.9392 125.706 68.5704 126.49 67.7749 126.49H57.6709C56.8483 126.49 56.0527 126.111 56.0527 125.382V107.84C56.0527 107.111 56.847 106.731 57.6709 106.731H67.7749C68.5704 106.731 68.9392 107.516 68.9392 108.245C68.9392 109.084 68.5137 109.813 67.7749 109.813H59.743V115.218Z" fill="#43A948"/>
    <path d="M83.8724 125.382L77.7786 114.516V125.382C77.7786 126.112 76.8439 126.49 75.9362 126.49C75.0014 126.49 74.0938 126.112 74.0938 125.382V107.84C74.0938 107.084 75.0014 106.732 75.9362 106.732C77.2687 106.732 77.8069 107.003 78.6863 108.596L84.1557 118.679V107.813C84.1557 107.057 85.0621 106.731 85.9981 106.731C86.9046 106.731 87.8393 107.055 87.8393 107.813V125.382C87.8393 126.111 86.9046 126.49 85.9981 126.49C85.1188 126.49 84.354 126.22 83.8724 125.382Z" fill="#43A948"/>
    <path d="M103.877 107.803C103.877 107.053 104.793 106.731 105.737 106.731C106.655 106.731 107.599 107.053 107.599 107.803V120.351C107.599 124.828 104.564 126.49 100.726 126.49C96.86 126.49 93.8535 124.828 93.8535 120.351V107.803C93.8535 107.053 94.7694 106.731 95.7151 106.731C96.631 106.731 97.5755 107.053 97.5755 107.803V120.351C97.5755 122.442 98.7502 123.435 100.726 123.435C102.702 123.435 103.876 122.442 103.876 120.351V107.803H103.877Z" fill="#43A948"/>
    <path d="M111.249 132.504H97.9378C96.6309 132.504 95.5723 133.466 95.5723 134.652C95.5723 135.839 96.6309 136.8 97.9378 136.8H111.249C112.556 136.8 113.613 135.839 113.613 134.652C113.613 133.466 112.556 132.504 111.249 132.504Z" fill="#3F3737"/>
    <path d="M87.1656 132.504H32.6709C31.3502 132.504 30.2793 133.466 30.2793 134.652C30.2793 135.839 31.3502 136.8 32.6709 136.8H87.1656C88.4875 136.8 89.5572 135.839 89.5572 134.652C89.5572 133.466 88.4875 132.504 87.1656 132.504Z" fill="#3F3737"/>
    <path d="M111.236 96.4219H32.6555C31.3433 96.4219 30.2793 97.5759 30.2793 98.9992C30.2793 100.422 31.3433 101.576 32.6555 101.576H111.236C112.549 101.576 113.612 100.422 113.612 98.9992C113.612 97.5759 112.549 96.4219 111.236 96.4219Z" fill="#3F3737"/>
    <path d="M109.914 66.8264H107.607C106.717 50.3031 94.7478 36.7059 79.0828 33.4874L79.5415 29.0632C79.6919 27.6193 79.2247 26.1729 78.2622 25.0956C77.2998 24.017 75.9227 23.3987 74.4845 23.3987H69.408C67.9686 23.3987 66.5927 24.0182 65.629 25.0956C64.6666 26.1742 64.2006 27.6205 64.351 29.0632L64.8096 33.4874C49.1447 36.7059 37.1756 50.3019 36.2853 66.8252H33.9788C31.9389 66.8252 30.2793 68.4999 30.2793 70.5583V75.507C30.2793 77.5655 31.9389 79.2402 33.9788 79.2402H109.913C111.952 79.2402 113.612 77.5655 113.612 75.507V70.5583C113.612 68.5011 111.954 66.8264 109.914 66.8264ZM69.1609 28.3054C69.227 28.2326 69.3089 28.1956 69.408 28.1956H74.4845C74.5823 28.1956 74.6655 28.2326 74.7315 28.3054C74.7976 28.3795 74.8257 28.4671 74.8147 28.5646L74.3708 32.8494C73.5697 32.7951 72.7613 32.7642 71.9469 32.7642C71.1311 32.7642 70.324 32.7951 69.5229 32.8494L69.0778 28.5646C69.068 28.4671 69.0961 28.3795 69.1609 28.3054ZM108.86 74.4445H35.033V71.6221H45.0478C46.3613 71.6221 47.4252 70.5484 47.4252 69.2243C47.4252 67.9001 46.3613 66.8264 45.0478 66.8264H41.0475C42.0625 50.5166 55.5323 37.5611 71.9456 37.5611C88.3602 37.5611 101.83 50.5166 102.845 66.8264H56.1058C54.7924 66.8264 53.7296 67.9001 53.7296 69.2243C53.7296 70.5484 54.7924 71.6221 56.1058 71.6221H108.86V74.4445Z" fill="#3F3737"/>
    <path d="M128.189 0.202881H15.8511C12.5206 0.202881 9.81036 2.92388 9.81036 6.26752V10.5696H7.59699C3.52428 10.5696 0.210938 13.8973 0.210938 17.9862C0.210938 22.075 3.52428 25.4028 7.59699 25.4028H9.81036V35.5869H7.59699C3.52428 35.5869 0.210938 38.9134 0.210938 43.0034C0.210938 47.0923 3.52428 50.4188 7.59699 50.4188H9.81036V60.6041H7.59699C3.52428 60.6041 0.210938 63.9306 0.210938 68.0207C0.210938 72.1095 3.52428 75.436 7.59699 75.436H9.81036V85.6214H7.59699C3.52428 85.6214 0.210938 88.9479 0.210938 93.0367C0.210938 97.1268 3.52428 100.453 7.59699 100.453H9.81036V110.639H7.59699C3.52428 110.639 0.210938 113.965 0.210938 118.054C0.210938 122.144 3.52428 125.471 7.59699 125.471H9.81036V135.656H7.59699C3.52428 135.656 0.210938 138.982 0.210938 143.071C0.210938 147.16 3.52428 150.488 7.59699 150.488H9.81036V154.79C9.81036 158.134 12.5206 160.855 15.8511 160.855H128.189C131.519 160.855 134.231 158.134 134.231 154.79V6.26752C134.231 2.92388 131.519 0.202881 128.189 0.202881V0.202881ZM9.80914 20.6398H7.59699C6.14053 20.6398 4.9551 19.4497 4.9551 17.9862C4.9551 16.524 6.14053 15.3338 7.59699 15.3338H9.80914V20.6398ZM9.80914 45.6558H7.59699C6.14053 45.6558 4.9551 44.4657 4.9551 43.0034C4.9551 41.54 6.14053 40.3511 7.59699 40.3511H9.80914V45.6558ZM9.80914 70.673H7.59699C6.14053 70.673 4.9551 69.4829 4.9551 68.0207C4.9551 66.5572 6.14053 65.3671 7.59699 65.3671H9.80914V70.673ZM9.80914 95.6903H7.59699C6.14053 95.6903 4.9551 94.5002 4.9551 93.0367C4.9551 91.5745 6.14053 90.3844 7.59699 90.3844H9.80914V95.6903ZM9.80914 120.706H7.59699C6.14053 120.706 4.9551 119.517 4.9551 118.054C4.9551 116.592 6.14053 115.402 7.59699 115.402H9.80914V120.706ZM9.80914 145.724H7.59699C6.14053 145.724 4.9551 144.533 4.9551 143.071C4.9551 141.608 6.14053 140.419 7.59699 140.419H9.80914V145.724ZM129.485 154.789C129.485 155.507 128.904 156.092 128.189 156.092H15.8511C15.1356 156.092 14.5545 155.507 14.5545 154.789V6.26752C14.5545 5.5505 15.1356 4.96585 15.8511 4.96585H128.189C128.904 4.96585 129.485 5.5505 129.485 6.26752V154.789Z" fill="#3F3737"/>
</svg>
