<svg width="171" height="157" viewBox="0 0 171 157" fill="none" xmlns="http://www.w3.org/2000/svg">
    <path d="M163.041 80.0656H157.135C156.582 71.0846 154.394 62.4165 150.609 54.2677C150.031 53.0201 148.551 52.4801 147.303 53.0578C146.056 53.6368 145.514 55.1167 146.093 56.3643C149.571 63.8536 151.6 71.8155 152.146 80.0656H38.1299C36.7551 80.0656 35.6412 81.1794 35.6412 82.5542C35.6412 83.929 36.7551 85.0428 38.1299 85.0428H163.041C164.301 85.0428 165.324 86.0671 165.324 87.3264V90.3642C165.324 91.6234 164.301 92.6477 163.041 92.6477H7.40536C6.14611 92.6477 5.12313 91.6234 5.12313 90.3642V87.3264C5.12313 86.0671 6.14611 85.0428 7.40536 85.0428H26.5278C27.9026 85.0428 29.0178 83.929 29.0178 82.5542C29.0178 81.1794 27.9026 80.0656 26.5278 80.0656H18.3012C19.3981 63.5304 26.4889 48.148 38.4401 36.5135C49.9578 25.3023 64.8403 18.7022 80.7459 17.6559C80.755 17.6559 80.7641 17.6572 80.7731 17.6559C81.4508 17.6117 82.1207 17.578 82.7828 17.5533C82.9152 17.5494 83.0463 17.5429 83.1787 17.539C83.415 17.5313 83.6499 17.5261 83.8823 17.5209C84.3289 17.5131 84.7755 17.5053 85.2234 17.5053C85.8179 17.5053 86.4125 17.517 87.0058 17.5326C87.1811 17.5377 87.355 17.5429 87.5316 17.5481C87.9885 17.5637 88.4442 17.5871 88.8999 17.6117C89.1413 17.6247 89.3828 17.6377 89.6256 17.6533C110.061 18.9956 128.861 29.6227 140.56 46.6629C141.338 47.7949 142.888 48.0844 144.021 47.3055C145.155 46.5279 145.443 44.9778 144.664 43.8445C133.152 27.0756 115.233 16.0928 95.4272 13.2602C96.6683 11.3336 97.3654 9.06569 97.3654 6.68999C97.3654 5.33726 96.7618 2.84342 92.7192 1.35568C90.7005 0.613112 88.0379 0.202881 85.2234 0.202881C82.4076 0.202881 79.745 0.613112 77.7263 1.35568C73.6837 2.84342 73.0813 5.33726 73.0813 6.68999C73.0813 9.0592 73.7758 11.3233 75.0091 13.2459C59.9721 15.3736 46.0255 22.1814 34.9674 32.9461C22.0491 45.5217 14.4169 62.1751 13.3122 80.0643H7.40536C3.40172 80.0656 0.144531 83.3227 0.144531 87.3264V90.3642C0.144531 94.3691 3.40172 97.6263 7.40536 97.6263H34.2197C32.8812 98.5428 31.5986 99.571 30.3978 100.712L30.3485 100.759C30.2719 100.83 30.1992 100.907 30.133 100.989L18.3154 115.339C16.8329 114.398 15.0777 114.055 13.3459 114.387C11.5401 114.733 9.9784 115.761 8.94763 117.282L4.30007 124.136C2.17492 127.271 2.99538 131.553 6.12793 133.681L37.9299 155.286C39.0827 156.069 40.4147 156.476 41.7791 156.476C42.2127 156.476 42.6502 156.435 43.0864 156.352C44.8909 156.006 46.4526 154.978 47.4834 153.457L52.131 146.604C54.2561 143.468 53.4369 139.186 50.3044 137.058L50.1226 136.935C52.3361 134.422 55.2869 132.622 58.4973 131.879C65.2622 130.312 73.2228 131.321 78.622 132.216C85.3013 133.322 92.3167 132.944 98.9103 131.122L108.076 128.59C114.181 126.902 119.8 124.06 124.777 120.142C124.815 120.112 124.851 120.083 124.887 120.05L140.623 106.114C143.305 104.061 143.889 100.507 142.963 97.6263H163.041C167.045 97.6263 170.302 94.3691 170.302 90.3655V87.3264C170.302 83.3227 167.045 80.0656 163.041 80.0656ZM85.2234 5.18148C89.4153 5.18148 91.9273 6.21874 92.3868 6.79514C92.3531 9.15657 91.1587 11.3349 89.2153 12.6409C88.7259 12.615 88.243 12.5942 87.7613 12.576C87.5991 12.5708 87.4368 12.563 87.2745 12.5591C86.58 12.5384 85.8945 12.528 85.2234 12.528C84.7469 12.528 84.2614 12.5345 83.772 12.5449C83.5357 12.5488 83.2981 12.5553 83.0606 12.563C82.7776 12.5721 82.492 12.5812 82.2064 12.5929C81.8805 12.6072 81.5547 12.6215 81.2301 12.6396C79.2867 11.3336 78.0937 9.15527 78.0599 6.79514C78.5195 6.21874 81.0315 5.18148 85.2234 5.18148ZM103.074 98.8271C102.888 98.4065 102.666 98.0067 102.415 97.6263H126.291L115.967 104.459L101.252 108.716L100.752 108.727C103.585 106.366 104.618 102.334 103.074 98.8271ZM76.0814 97.6263L72.4893 98.3754L69.7125 97.6263H76.0814ZM48.0105 143.81L43.3642 150.663C43.0799 151.084 42.6489 151.367 42.1504 151.463C41.6532 151.557 41.1469 151.454 40.7276 151.168L8.92556 129.563C8.06095 128.977 7.83507 127.795 8.42185 126.931L13.0694 120.076C13.3537 119.657 13.7834 119.372 14.2819 119.278C14.4027 119.254 14.5234 119.243 14.6428 119.243C15.0193 119.243 15.3867 119.356 15.7048 119.572L17.4223 120.738L17.4236 120.739L47.5068 141.176C48.3714 141.762 48.5973 142.945 48.0105 143.81ZM137.568 102.183C137.508 102.226 137.451 102.273 137.395 102.322L121.643 116.275C117.202 119.758 112.191 122.287 106.75 123.79L97.5848 126.323C91.6832 127.955 85.4077 128.294 79.4373 127.304C73.6188 126.341 65.0039 125.262 57.3744 127.029C52.9553 128.052 48.9205 130.592 45.9853 134.123L22.458 118.14L33.877 104.273C38.1961 100.195 43.6732 97.7743 48.9179 97.6263H49.0192C50.6458 97.599 52.3672 98.0781 54.1886 98.5883C54.5547 98.6895 54.9195 98.7921 55.2856 98.8907L71.7675 103.337C72.1453 103.438 72.5413 103.45 72.9242 103.37L94.5107 98.8687C95.4895 98.6662 96.5177 98.8648 97.3317 99.4165C97.8575 99.7735 98.2677 100.264 98.5182 100.834C99.2582 102.513 98.5611 104.483 96.9072 105.335L89.5425 109.235C88.5234 109.775 88.0093 110.943 88.2988 112.06C88.5896 113.177 89.6061 113.938 90.7615 113.923L101.686 113.686C101.903 113.681 102.117 113.649 102.323 113.589L117.716 109.136C117.959 109.066 118.189 108.96 118.399 108.821L133.928 98.5415C135.231 97.7366 136.966 97.0746 137.889 98.4364C138.608 99.4957 138.625 101.403 137.568 102.183Z" fill="#3F3737"/>
</svg>
