<svg width="17" height="17" viewBox="0 0 17 17" fill="none" xmlns="http://www.w3.org/2000/svg">
<g clip-path="url(#clip0)">
<path d="M14.6608 4.41917C14.0619 2.48383 12.4875 0.908973 10.5521 0.310021C8.50378 -0.32449 6.32439 0.0281601 4.66088 1.25389C3.00963 2.47115 2.02393 4.4211 2.02393 6.46987C2.02393 7.88322 2.47104 9.22599 3.31662 10.3528L8.50046 17.0002L13.6843 10.3523C14.9498 8.66502 15.3059 6.50247 14.6608 4.41917ZM8.50046 9.95719C6.57773 9.95719 5.0131 8.39256 5.0131 6.46983C5.0131 4.54711 6.57773 2.98247 8.50046 2.98247C10.4232 2.98247 11.9878 4.54711 11.9878 6.46983C11.9878 8.39256 10.4232 9.95719 8.50046 9.95719Z" fill="#F89F46"/>
<path d="M8.50073 3.98535C7.12728 3.98535 6.00977 5.09623 6.00977 6.46967C6.00977 7.84312 7.12728 8.96064 8.50073 8.96064C9.87418 8.96064 10.9917 7.84312 10.9917 6.46967C10.9917 5.09623 9.87418 3.98535 8.50073 3.98535Z" fill="#F89F46"/>
</g>
<defs>
<clipPath id="clip0">
<rect width="17" height="17" fill="white"/>
</clipPath>
</defs>
</svg>
