<svg width="87" height="177" viewBox="0 0 87 177" fill="none" xmlns="http://www.w3.org/2000/svg">
    <path d="M49.6719 38.9688H69.3594V105.555H78.5703V123.766H69.3594V145H50.0938V123.766H4.95312V105.555L49.6719 38.9688ZM50.0938 105.555V70.8906L26.4688 105.555H50.0938Z" fill="#F89F46" fill-opacity="0.2"/>
    <g clip-path="url(#clip0)">
        <path d="M79.6 66.8999C82.8 66.8999 85.5 69.4999 85.5 72.7999V108.3C85.5 111.5 82.9 114.2 79.6 114.2H18.9C15.7 114.2 13 111.6 13 108.3V72.7999C13 69.5999 15.6 66.8999 18.9 66.8999H67" stroke="#F89F46" stroke-width="2" stroke-miterlimit="10" stroke-linecap="round" stroke-linejoin="round"/>
        <path d="M41.6002 92.9001H41.3002C38.2002 92.9001 35.7002 90.4001 35.7002 87.3001V78.2001C35.7002 75.1001 38.2002 72.6001 41.3002 72.6001H41.6002C44.7002 72.6001 47.2002 75.1001 47.2002 78.2001V87.3001C47.1002 90.4001 44.6002 92.9001 41.6002 92.9001Z" stroke="#F89F46" stroke-width="2" stroke-miterlimit="10" stroke-linecap="round" stroke-linejoin="round"/>
        <path d="M73.6002 92.9001H73.3002C70.2002 92.9001 67.7002 90.4001 67.7002 87.3001V78.2001C67.7002 75.1001 70.2002 72.6001 73.3002 72.6001H73.6002C76.7002 72.6001 79.2002 75.1001 79.2002 78.2001V87.3001C79.2002 90.4001 76.7002 92.9001 73.6002 92.9001Z" stroke="#F89F46" stroke-width="2" stroke-miterlimit="10" stroke-linecap="round" stroke-linejoin="round"/>
        <path d="M28.1001 108.6H22.6001C21.0001 108.6 19.6001 107.3 19.6001 105.6V100.1C19.6001 98.5001 20.9001 97.1001 22.6001 97.1001H28.1001C29.7001 97.1001 31.1001 98.4001 31.1001 100.1V105.6C31.1001 107.3 29.8001 108.6 28.1001 108.6Z" stroke="#F89F46" stroke-width="2" stroke-miterlimit="10" stroke-linecap="round" stroke-linejoin="round"/>
        <path d="M25.4003 104.8C26.5003 104.8 27.3003 103.9 27.3003 102.9C27.3003 101.8 26.4003 101 25.4003 101C24.3003 101 23.5003 101.9 23.5003 102.9C23.4003 103.9 24.3003 104.8 25.4003 104.8Z" stroke="#F89F46" stroke-width="2" stroke-miterlimit="10" stroke-linecap="round" stroke-linejoin="round"/>
        <path d="M44.2002 108.6H38.7002C37.1002 108.6 35.7002 107.3 35.7002 105.6V100.1C35.7002 98.5001 37.0002 97.1001 38.7002 97.1001H44.2002C45.8002 97.1001 47.2002 98.4001 47.2002 100.1V105.6C47.1002 107.3 45.8002 108.6 44.2002 108.6Z" stroke="#F89F46" stroke-width="2" stroke-miterlimit="10" stroke-linecap="round" stroke-linejoin="round"/>
        <path d="M41.4003 104.8C42.5003 104.8 43.3003 103.9 43.3003 102.9C43.3003 101.8 42.4003 101 41.4003 101C40.3003 101 39.5003 101.9 39.5003 102.9C39.4003 103.9 40.3003 104.8 41.4003 104.8Z" stroke="#F89F46" stroke-width="2" stroke-miterlimit="10" stroke-linecap="round" stroke-linejoin="round"/>
        <path d="M60.2002 108.6H54.7002C53.1002 108.6 51.7002 107.3 51.7002 105.6V100.1C51.7002 98.5001 53.0002 97.1001 54.7002 97.1001H60.2002C61.8002 97.1001 63.2002 98.4001 63.2002 100.1V105.6C63.1002 107.3 61.8002 108.6 60.2002 108.6Z" stroke="#F89F46" stroke-width="2" stroke-miterlimit="10" stroke-linecap="round" stroke-linejoin="round"/>
        <path d="M57.4 104.8C58.5 104.8 59.3 103.9 59.3 102.9C59.3 101.8 58.4 101 57.4 101C56.3 101 55.5 101.9 55.5 102.9C55.5 103.9 56.3 104.8 57.4 104.8Z" stroke="#F89F46" stroke-width="2" stroke-miterlimit="10" stroke-linecap="round" stroke-linejoin="round"/>
        <path d="M76.2002 108.6H70.7002C69.1002 108.6 67.7002 107.3 67.7002 105.6V100.1C67.7002 98.5001 69.0002 97.1001 70.7002 97.1001H76.2002C77.8002 97.1001 79.2002 98.4001 79.2002 100.1V105.6C79.2002 107.3 77.8002 108.6 76.2002 108.6Z" stroke="#F89F46" stroke-width="2" stroke-miterlimit="10" stroke-linecap="round" stroke-linejoin="round"/>
        <path d="M73.4 104.8C74.5 104.8 75.3 103.9 75.3 102.9C75.3 101.8 74.4 101 73.4 101C72.3 101 71.5 101.9 71.5 102.9C71.5 103.9 72.4 104.8 73.4 104.8Z" stroke="#F89F46" stroke-width="2" stroke-miterlimit="10" stroke-linecap="round" stroke-linejoin="round"/>
        <path d="M47.2002 80.7002H35.7002V85.0002H47.2002V80.7002Z" stroke="#F89F46" stroke-width="2" stroke-miterlimit="10" stroke-linecap="round" stroke-linejoin="round"/>
        <path d="M25.5001 92.9001H25.2001C22.1001 92.9001 19.6001 90.4001 19.6001 87.3001V78.2001C19.6001 75.1001 22.1001 72.6001 25.2001 72.6001H25.5001C28.6001 72.6001 31.1001 75.1001 31.1001 78.2001V87.3001C31.1001 90.4001 28.6001 92.9001 25.5001 92.9001Z" stroke="#F89F46" stroke-width="2" stroke-miterlimit="10" stroke-linecap="round" stroke-linejoin="round"/>
        <path d="M25.8003 73.1001L19.8003 80.2001" stroke="#F89F46" stroke-width="2" stroke-miterlimit="10" stroke-linecap="round" stroke-linejoin="round"/>
        <path d="M29.0002 74.2002L19.7002 84.9002" stroke="#F89F46" stroke-width="2" stroke-miterlimit="10" stroke-linecap="round" stroke-linejoin="round"/>
        <path d="M31.1003 78.5L20.3003 89.7" stroke="#F89F46" stroke-width="2" stroke-miterlimit="10" stroke-linecap="round" stroke-linejoin="round"/>
        <path d="M31 85.1001L23 92.5001" stroke="#F89F46" stroke-width="2" stroke-miterlimit="10" stroke-linecap="round" stroke-linejoin="round"/>
        <path d="M57.6002 92.9001H57.3002C54.2002 92.9001 51.7002 90.4001 51.7002 87.3001V78.2001C51.7002 75.1001 54.2002 72.6001 57.3002 72.6001H57.6002C60.7002 72.6001 63.2002 75.1001 63.2002 78.2001V87.3001C63.1002 90.4001 60.6002 92.9001 57.6002 92.9001Z" stroke="#F89F46" stroke-width="2" stroke-miterlimit="10" stroke-linecap="round" stroke-linejoin="round"/>
        <path d="M57.8003 73.1001L51.8003 80.2001" stroke="#F89F46" stroke-width="2" stroke-miterlimit="10" stroke-linecap="round" stroke-linejoin="round"/>
        <path d="M61.1003 74.2002L51.8003 84.9002" stroke="#F89F46" stroke-width="2" stroke-miterlimit="10" stroke-linecap="round" stroke-linejoin="round"/>
        <path d="M63.1004 78.5L52.4004 89.7" stroke="#F89F46" stroke-width="2" stroke-miterlimit="10" stroke-linecap="round" stroke-linejoin="round"/>
        <path d="M63.0001 85.1001L55.1001 92.5001" stroke="#F89F46" stroke-width="2" stroke-miterlimit="10" stroke-linecap="round" stroke-linejoin="round"/>
        <path d="M73.1998 72.7C73.1998 72.7 74.1998 64.4 67.4998 63C67.4998 63 64.4998 70.6 73.1998 72.7Z" stroke="#F89F46" stroke-width="2" stroke-miterlimit="10" stroke-linecap="round" stroke-linejoin="round"/>
        <path d="M73.4 72.7C73.4 72.7 72.4 64.4 79.1 63C79.1 63 82.1 70.6 73.4 72.7Z" stroke="#F89F46" stroke-width="2" stroke-miterlimit="10" stroke-linecap="round" stroke-linejoin="round"/>
        <path d="M73.3999 72.7002V80.7002" stroke="#F89F46" stroke-width="2" stroke-miterlimit="10" stroke-linecap="round" stroke-linejoin="round"/>
    </g>
    <path d="M15 54L63 54" stroke="#F89F46" stroke-width="2" stroke-miterlimit="10" stroke-linecap="round" stroke-linejoin="round"/>
    <path d="M15 59.2998L63 59.2998" stroke="#F89F46" stroke-width="2" stroke-miterlimit="10" stroke-linecap="round" stroke-linejoin="round"/>
    <defs>
        <clipPath id="clip0">
            <rect width="86.4" height="53.1" fill="white" transform="translate(0 62)"/>
        </clipPath>
    </defs>
</svg>
