<svg width="81" height="177" viewBox="0 0 81 177" fill="none" xmlns="http://www.w3.org/2000/svg">
    <path d="M23.6953 41.5703H53.1562V145H33.6094V60.0625H12.3047L23.6953 41.5703Z" fill="#F89F46" fill-opacity="0.2"/>
    <g clip-path="url(#clip0)">
        <path d="M25.1002 91.1999C33.8815 91.1999 41.0002 84.0812 41.0002 75.2999C41.0002 66.5186 33.8815 59.3999 25.1002 59.3999C16.3189 59.3999 9.2002 66.5186 9.2002 75.2999C9.2002 84.0812 16.3189 91.1999 25.1002 91.1999Z" stroke="#F89F46" stroke-width="2" stroke-miterlimit="10" stroke-linecap="round" stroke-linejoin="round"/>
        <path d="M25.1001 82.7998C29.2422 82.7998 32.6001 79.4419 32.6001 75.2998C32.6001 71.1577 29.2422 67.7998 25.1001 67.7998C20.958 67.7998 17.6001 71.1577 17.6001 75.2998C17.6001 79.4419 20.958 82.7998 25.1001 82.7998Z" stroke="#F89F46" stroke-width="2" stroke-miterlimit="10" stroke-linecap="round" stroke-linejoin="round"/>
        <path d="M79.9002 98.7L40.0002 58.9C38.8002 57.7 36.8002 57.7 35.6002 58.9C34.4002 60.1 34.4002 62.1 35.6002 63.3L72.0002 99.7" stroke="#F89F46" stroke-width="2" stroke-miterlimit="10" stroke-linecap="round" stroke-linejoin="round"/>
        <path d="M53.1 125.8L13.3 86.0001C12.1 84.8001 10.1 84.8001 8.9 86.0001C7.7 87.2001 7.7 89.2001 8.9 90.4001L41.1 122.6" stroke="#F89F46" stroke-width="2" stroke-miterlimit="10" stroke-linecap="round" stroke-linejoin="round"/>
        <path d="M22 68.3999C22 68.3999 31.3 71.7999 29.9 81.0999" stroke="#F89F46" stroke-width="2" stroke-miterlimit="10" stroke-linecap="round" stroke-linejoin="round"/>
        <path d="M18.5 71.7998C18.5 71.7998 26.9 75.5998 25.2 82.7998" stroke="#F89F46" stroke-width="2" stroke-miterlimit="10" stroke-linecap="round" stroke-linejoin="round"/>
    </g>
    <defs>
        <clipPath id="clip0">
            <rect width="73.9" height="69.8" fill="white" transform="translate(7 57)"/>
        </clipPath>
    </defs>
</svg>
