<svg width="81" height="177" viewBox="0 0 81 177" fill="none" xmlns="http://www.w3.org/2000/svg">
    <path d="M41.7656 38.9688L58.5 47.3359L40.4297 82.4922C49.1953 82.4922 56.6484 85.6328 62.7891 91.9141C68.9297 98.1953 72 106 72 115.328C72 124.328 68.8359 131.969 62.5078 138.25C56.2266 144.484 48.6328 147.602 39.7266 147.602C30.3984 147.602 22.6172 144.367 16.3828 137.898C10.1953 131.383 7.10156 123.93 7.10156 115.539C7.10156 112.352 7.57031 109.141 8.50781 105.906C9.49219 102.672 11.7188 97.7031 15.1875 91L41.7656 38.9688ZM39.3047 101.125C35.6484 101.125 32.5781 102.461 30.0938 105.133C27.6094 107.758 26.3672 111.062 26.3672 115.047C26.3672 119.031 27.6562 122.383 30.2344 125.102C32.8594 127.82 35.9062 129.18 39.375 129.18C43.0312 129.18 46.1719 127.844 48.7969 125.172C51.4219 122.5 52.7344 119.125 52.7344 115.047C52.7344 111.062 51.4453 107.758 48.8672 105.133C46.3359 102.461 43.1484 101.125 39.3047 101.125Z" fill="#F89F46" fill-opacity="0.2"/>
    <path d="M21.6318 100.076C17.7008 100.076 14.5039 103.273 14.5039 107.204C14.5039 111.135 17.7008 114.332 21.6318 114.332C25.5629 114.332 28.7598 111.135 28.7598 107.204C28.7598 103.273 25.5628 100.076 21.6318 100.076ZM21.6318 111.956C19.0111 111.956 16.8799 109.824 16.8799 107.204C16.8799 104.583 19.0112 102.452 21.6318 102.452C24.2525 102.452 26.3837 104.583 26.3837 107.204C26.3837 109.824 24.2525 111.956 21.6318 111.956Z" fill="#F89F46"/>
    <path d="M62.0234 100.076C58.0924 100.076 54.8955 103.273 54.8955 107.204C54.8955 111.135 58.0924 114.332 62.0234 114.332C65.9545 114.332 69.1514 111.135 69.1514 107.204C69.1514 103.273 65.9545 100.076 62.0234 100.076ZM62.0234 111.956C59.4027 111.956 57.2715 109.824 57.2715 107.204C57.2715 104.583 59.4028 102.452 62.0234 102.452C64.6442 102.452 66.7753 104.583 66.7753 107.204C66.7753 109.824 64.6442 111.956 62.0234 111.956Z" fill="#F89F46"/>
    <path d="M76.0903 93.4931L65.3984 76.8612C65.1799 76.5214 64.8033 76.3159 64.3993 76.3159H51.3315C50.6745 76.3159 50.1436 76.8481 50.1436 77.5039V107.204C50.1436 107.86 50.6745 108.391 51.3315 108.391H56.0834V106.015H52.5194V78.6919H63.7507L73.9032 94.485V106.016H67.9632V108.392H75.0912C75.7481 108.392 76.2791 107.861 76.2791 107.204V94.1357C76.2792 93.9088 76.2139 93.6843 76.0903 93.4931Z" fill="#F89F46"/>
    <path d="M57.2714 91.7598V83.4439H66.7753V81.0679H56.0834C55.4265 81.0679 54.8955 81.6001 54.8955 82.2558V92.9477C54.8955 93.6047 55.4265 94.1356 56.0834 94.1356H73.9033V91.7596H57.2714V91.7598Z" fill="#F89F46"/>
    <path d="M51.3315 68H6.18794C5.53223 68 5 68.5322 5 69.1879V107.204C5 107.861 5.53223 108.392 6.18794 108.392H15.6919V106.016H7.37602V70.3759H50.1436V106.016H27.5717V108.392H51.3315C51.9885 108.392 52.5195 107.861 52.5195 107.204V69.1879C52.5195 68.5322 51.9885 68 51.3315 68Z" fill="#F89F46"/>
    <path d="M12.1279 101.264H7.376C6.71988 101.264 6.18799 101.796 6.18799 102.452C6.18799 103.108 6.71988 103.64 7.376 103.64H12.1279C12.784 103.64 13.3159 103.108 13.3159 102.452C13.3159 101.796 12.784 101.264 12.1279 101.264Z" fill="#F89F46"/>
    <path d="M50.1807 101.264H32.3609C31.7047 101.264 31.1729 101.796 31.1729 102.452C31.1729 103.108 31.7047 103.64 32.3609 103.64H50.1807C50.8368 103.64 51.3687 103.108 51.3687 102.452C51.3687 101.796 50.8368 101.264 50.1807 101.264Z" fill="#F89F46"/>
    <path d="M73.9033 101.264H71.5274C70.8712 101.264 70.3394 101.796 70.3394 102.452C70.3394 103.108 70.8712 103.64 71.5274 103.64H73.9032C74.5594 103.64 75.0913 103.108 75.0913 102.452C75.0913 101.796 74.5594 101.264 73.9033 101.264Z" fill="#F89F46"/>
    <path d="M50.1436 72.752H10.94C10.2838 72.752 9.75195 73.2838 9.75195 73.94C9.75195 74.5961 10.2838 75.128 10.94 75.128H50.1436C50.7997 75.128 51.3316 74.5961 51.3316 73.94C51.3316 73.2838 50.7997 72.752 50.1436 72.752Z" fill="#F89F46"/>
</svg>
