<svg width="82" height="177" viewBox="0 0 82 177" fill="none" xmlns="http://www.w3.org/2000/svg">
    <path d="M28.3516 67.0938H9.4375C10.4219 59.4531 13.1641 53.3125 17.6641 48.6719C23.9453 42.2031 31.8438 38.9688 41.3594 38.9688C49.8438 38.9688 56.9453 41.6641 62.6641 47.0547C68.4297 52.4453 71.3125 58.8438 71.3125 66.25C71.3125 70.8438 70.0469 75.0391 67.5156 78.8359C65.0312 82.6328 61.3984 85.7031 56.6172 88.0469C62.8984 89.9219 67.7969 93.2031 71.3125 97.8906C74.875 102.531 76.6562 108.016 76.6562 114.344C76.6562 123.625 73.2344 131.5 66.3906 137.969C59.5469 144.391 50.8281 147.602 40.2344 147.602C30.2031 147.602 22.0234 144.578 15.6953 138.531C9.36719 132.438 5.89844 124.164 5.28906 113.711H24.7656C25.6094 119.055 27.4609 123.039 30.3203 125.664C33.2266 128.242 36.8828 129.531 41.2891 129.531C45.8828 129.531 49.6797 128.055 52.6797 125.102C55.7266 122.148 57.25 118.539 57.25 114.273C57.25 109.586 55.2109 105.625 51.1328 102.391C47.0547 99.1562 41.1719 97.4922 33.4844 97.3984V80.5234C38.2188 80.1484 41.7344 79.4219 44.0312 78.3438C46.375 77.2188 48.1797 75.6953 49.4453 73.7734C50.7578 71.8516 51.4141 69.8125 51.4141 67.6562C51.4141 64.8438 50.4297 62.5234 48.4609 60.6953C46.4922 58.8203 43.9141 57.8828 40.7266 57.8828C37.9141 57.8828 35.3594 58.75 33.0625 60.4844C30.7656 62.1719 29.1953 64.375 28.3516 67.0938Z" fill="#F89F46" fill-opacity="0.2"/>
    <path d="M32.0147 84.1625H47.9706C50.2353 84.1625 51.9853 82.3062 51.9853 80.1406V64.0531C51.9853 61.7844 50.1323 60.0312 47.9706 60.0312H32.0147C29.75 60.0312 28 61.8875 28 64.0531V80.0375C28 82.3062 29.8529 84.1625 32.0147 84.1625Z" stroke="#F89F46" stroke-width="2" stroke-miterlimit="10" stroke-linecap="round" stroke-linejoin="round"/>
    <path d="M37.2645 77.253H42.8234C44.1616 77.253 45.2939 76.1187 45.2939 74.778V69.3124C45.2939 67.9718 44.1616 66.8374 42.8234 66.8374H37.2645C35.9263 66.8374 34.7939 67.9718 34.7939 69.3124V74.8812C34.8969 76.2218 35.9263 77.253 37.2645 77.253Z" stroke="#F89F46" stroke-width="2" stroke-miterlimit="10" stroke-linecap="round" stroke-linejoin="round"/>
    <path d="M27.0737 108.294H35.7208C38.0884 108.294 39.9413 106.334 39.9413 104.066V88.3907C39.9413 86.0188 37.9855 84.1626 35.7208 84.1626H20.1766C17.809 84.1626 15.9561 86.122 15.9561 88.3907V103.963C15.9561 105.613 16.8825 107.056 18.2208 107.778" stroke="#F89F46" stroke-width="2" stroke-miterlimit="10" stroke-linecap="round" stroke-linejoin="round"/>
    <path d="M25.2206 101.384H30.7794C32.1176 101.384 33.25 100.25 33.25 98.9095V93.3407C33.25 92.0001 32.1176 90.8657 30.7794 90.8657H25.2206C23.8824 90.8657 22.75 92.0001 22.75 93.3407V98.9095C22.8529 100.353 23.8824 101.384 25.2206 101.384Z" stroke="#F89F46" stroke-width="2" stroke-miterlimit="10" stroke-linecap="round" stroke-linejoin="round"/>
    <path d="M44.0586 108.294H60.0145C62.2792 108.294 64.0292 106.438 64.0292 104.272V88.1845C64.0292 85.9157 62.1763 84.1626 60.0145 84.1626H44.0586C41.7939 84.1626 40.0439 86.0188 40.0439 88.1845V104.169C40.0439 106.438 41.8969 108.294 44.0586 108.294Z" stroke="#F89F46" stroke-width="2" stroke-miterlimit="10" stroke-linecap="round" stroke-linejoin="round"/>
    <path d="M49.3085 101.384H54.8673C56.2055 101.384 57.3379 100.25 57.3379 98.9095V93.3407C57.3379 92.0001 56.2055 90.8657 54.8673 90.8657H49.3085C47.9702 90.8657 46.8379 92.0001 46.8379 93.3407V98.9095C46.8379 100.353 47.9702 101.384 49.3085 101.384Z" stroke="#F89F46" stroke-width="2" stroke-miterlimit="10" stroke-linecap="round" stroke-linejoin="round"/>
    <path d="M59.8086 108.294V114.275" stroke="#F89F46" stroke-width="2" stroke-miterlimit="10" stroke-linecap="round" stroke-linejoin="round"/>
    <path d="M15.2354 113.759C15.2354 113.759 16.7795 104.066 27.5883 105.613C27.6912 105.613 27.1765 116.234 15.2354 113.759Z" stroke="#F89F46" stroke-width="2" stroke-miterlimit="10" stroke-linecap="round" stroke-linejoin="round"/>
    <path d="M15.2352 113.76C15.2352 113.76 15.1323 101.075 1.02936 101.075C1.02936 101.178 -0.308872 114.688 15.2352 113.76Z" stroke="#F89F46" stroke-width="2" stroke-miterlimit="10" stroke-linecap="round" stroke-linejoin="round"/>
    <path d="M52.397 119.431V123.969H61.3529V119.637H68.9705V114.894H35.6176H2.26465V119.637H9.8823V123.969H18.8382V119.431H52.397Z" stroke="#F89F46" stroke-width="2" stroke-miterlimit="10" stroke-linecap="round" stroke-linejoin="round"/>
</svg>
