<svg width="141" height="55" viewBox="0 0 141 55" fill="none" xmlns="http://www.w3.org/2000/svg">
    <g clip-path="url(#clip0)">
        <path d="M138.16 26.32C137.907 26.0985 137.582 25.9764 137.245 25.9764C136.908 25.9764 136.583 26.0985 136.33 26.32C135.445 27.1948 134.288 27.7415 133.05 27.87C131.6 27.87 130.25 26.6 128.68 25.14C127.213 23.6057 125.487 22.3429 123.58 21.41C122.588 21.0027 121.522 20.8053 120.45 20.83C118.383 20.9357 116.333 21.2711 114.34 21.83C112.658 22.2939 110.932 22.5788 109.19 22.68C108.38 22.7552 107.572 22.5192 106.93 22.02C105.57 20.78 105.85 20.02 105.93 19.81C106.59 18.13 110.32 16.55 113.62 16.55C114.425 16.5179 115.226 16.6612 115.97 16.97C116.22 17.09 116.53 17.28 116.9 17.5C118.41 18.39 120.69 19.75 122.9 19.75C123.765 19.7609 124.616 19.5404 125.367 19.1114C126.118 18.6824 126.74 18.0604 127.17 17.31C127.324 17.0661 127.399 16.7805 127.385 16.4923C127.371 16.2041 127.268 15.9274 127.09 15.7C126.966 15.5238 126.803 15.3782 126.614 15.2743C126.425 15.1703 126.215 15.1107 126 15.1C125.857 15.0988 125.715 15.1224 125.58 15.17C125.331 15.2504 125.072 15.2942 124.81 15.3C122.47 15.3 120.29 11.3 118.81 8.73001C118.32 7.83001 117.81 6.99001 117.41 6.34001C116.438 4.81602 115.095 3.5635 113.507 2.69957C111.919 1.83563 110.138 1.38851 108.33 1.40001C106.713 1.38967 105.112 1.72413 103.634 2.38111C102.157 3.03808 100.836 4.00247 99.76 5.21001C98.8039 6.36409 97.9157 7.5728 97.1 8.83001C95.16 11.72 93.48 14.22 90.94 14.22C90.6718 14.2211 90.404 14.1977 90.14 14.15C88.71 13.9 88.14 13.15 88.2 11.94C88.37 9.94001 90.39 7.53001 92.51 7.53001C92.8768 7.53099 93.24 7.60228 93.58 7.74001C93.7484 7.80763 93.9285 7.8416 94.11 7.84001C94.3312 7.84174 94.5495 7.78988 94.7463 7.68888C94.9431 7.58788 95.1125 7.44073 95.24 7.26001C95.4237 7.00601 95.5176 6.69802 95.5067 6.38472C95.4959 6.07142 95.3809 5.77067 95.18 5.53001C93.87 3.90001 91.94 2.00001 89.36 1.82001C87.68 1.70001 86.1 1.64001 84.67 1.64001C83.83 1.64001 83.04 1.64001 82.37 1.70001H0V53.39H83.17C83.3332 53.3983 83.4968 53.3983 83.66 53.39H84.73C87.4104 53.3413 90.0839 53.1007 92.73 52.67C94.688 52.3451 96.666 52.1546 98.65 52.1C100.677 52.065 102.688 52.4746 104.54 53.3C104.718 53.3857 104.913 53.4302 105.11 53.43C105.369 53.4328 105.624 53.3637 105.846 53.2302C106.068 53.0967 106.249 52.9042 106.368 52.674C106.488 52.4439 106.541 52.1852 106.522 51.9267C106.502 51.6682 106.412 51.4201 106.26 51.21C103.07 46.7 100.81 45.8 98.19 45.8H97.34H96.56C95.2195 45.8312 93.9115 45.3846 92.87 44.54C92.2974 44.0782 91.8532 43.477 91.58 42.794C91.3068 42.111 91.2139 41.3693 91.31 40.64C91.37 40.46 91.49 40.11 92.31 40.11C92.4996 40.0919 92.6904 40.0919 92.88 40.11C94.95 40.43 97.15 42.37 99.28 44.25C101.41 46.13 103.37 47.85 105.43 48.25C106.146 48.3769 106.872 48.4405 107.6 48.44C111.6 48.44 114.41 46.5 116.93 44.79C118.93 43.46 120.56 42.32 122.37 42.32C122.933 42.325 123.491 42.4265 124.02 42.62C124.17 42.6795 124.329 42.7101 124.49 42.71C124.774 42.7078 125.052 42.6196 125.285 42.4569C125.519 42.2942 125.697 42.0648 125.798 41.7987C125.898 41.5325 125.916 41.2422 125.849 40.9658C125.781 40.6894 125.632 40.4399 125.42 40.25C124.341 39.2959 122.94 38.7851 121.5 38.82C120.287 38.8666 119.085 39.0613 117.92 39.4C116.975 39.6744 116.002 39.8421 115.02 39.9C114.83 39.9099 114.64 39.9099 114.45 39.9C114.166 39.8781 113.889 39.7983 113.637 39.6655C113.384 39.5327 113.162 39.3496 112.983 39.1276C112.804 38.9056 112.673 38.6494 112.596 38.3746C112.52 38.0999 112.501 37.8124 112.54 37.53C112.548 36.919 112.795 36.3355 113.229 35.9053C113.663 35.4751 114.249 35.2326 114.86 35.23H115C116.737 35.4129 118.419 35.9507 119.94 36.81C121.73 37.8336 123.732 38.4292 125.79 38.55C127.095 38.5427 128.381 38.2384 129.55 37.66C133.43 35.83 135.82 32.17 137.93 28.94L138.45 28.16C138.634 27.8705 138.705 27.524 138.652 27.1853C138.599 26.8466 138.424 26.539 138.16 26.32Z" fill="url(#paint0_radial)"/>
        <path d="M137.23 24.56C136.585 24.5715 135.964 24.8045 135.47 25.22C134.826 25.861 133.997 26.2842 133.1 26.43C132.2 26.43 130.98 25.29 129.69 24.08C128.389 22.7696 126.931 21.6244 125.35 20.67C126.63 20.1273 127.705 19.1924 128.42 18C128.691 17.5726 128.842 17.0797 128.855 16.5736C128.868 16.0676 128.744 15.5674 128.496 15.1262C128.248 14.685 127.885 14.3194 127.445 14.0683C127.006 13.8172 126.506 13.6899 126 13.7C125.712 13.6992 125.425 13.743 125.15 13.83C125.04 13.8669 124.926 13.8871 124.81 13.89C123.3 13.89 121.13 9.95002 120.08 8.05002C119.57 7.13002 119.08 6.25002 118.62 5.55002C117.511 3.85135 115.998 2.45484 114.216 1.48607C112.433 0.517305 110.438 0.00664926 108.41 2.12891e-05C106.59 -0.00858528 104.789 0.370423 103.127 1.11184C101.465 1.85325 99.9795 2.94007 98.77 4.30002C98.13 5.05002 97.54 5.84002 96.99 6.63002C97.0345 5.90341 96.7982 5.18746 96.33 4.63002C94.76 2.79002 92.56 0.630021 89.45 0.430021C87.74 0.300021 86.13 0.240021 84.67 0.240021C83.8433 0.240021 83.0533 0.260021 82.3 0.300021H0V3.10002H82.37C83.09 3.10002 83.85 3.05002 84.67 3.05002C86.05 3.05002 87.58 3.10002 89.26 3.22002C91.26 3.36002 92.86 4.88002 94.19 6.44002C93.6825 6.23053 93.139 6.12184 92.59 6.12002C87.75 6.12002 83.92 14.47 89.98 15.53C90.3104 15.5867 90.6448 15.6168 90.98 15.62C95.56 15.62 97.6 9.91002 100.86 6.12002C101.809 5.07194 102.969 4.23553 104.262 3.66523C105.556 3.09493 106.956 2.80354 108.37 2.81002C109.946 2.80343 111.499 3.19502 112.883 3.94848C114.268 4.70193 115.44 5.79284 116.29 7.12002C118.11 9.82002 120.74 16.7 124.81 16.7C125.215 16.7004 125.617 16.6328 126 16.5C125.705 17.0391 125.272 17.4894 124.744 17.8042C124.217 18.119 123.614 18.2867 123 18.29C120.59 18.29 117.87 16.29 116.65 15.65C115.706 15.236 114.68 15.0412 113.65 15.08C108.51 15.08 101.29 18.68 106 23C106.905 23.7282 108.052 24.0857 109.21 24C112.52 24 116.96 22.19 120.47 22.19C121.349 22.1668 122.224 22.3234 123.04 22.65C127.23 24.45 129.47 29.22 133.04 29.22C134.607 29.1063 136.083 28.4442 137.21 27.35C134.99 30.73 132.71 34.55 128.89 36.35C127.906 36.8328 126.826 37.0891 125.73 37.1C121.96 37.1 119.08 33.93 114.99 33.78H114.83C110.41 33.78 109.56 40.55 114.21 41.23C114.468 41.2699 114.729 41.2899 114.99 41.29C117.09 41.29 119.37 40.21 121.47 40.21C122.571 40.1753 123.644 40.5615 124.47 41.29C123.792 41.0364 123.074 40.9044 122.35 40.9C117.5 40.9 114.15 47.03 107.58 47.03C106.933 47.0309 106.287 46.974 105.65 46.86C102.06 46.24 97.65 39.48 93.07 38.76C92.8119 38.7186 92.5513 38.6952 92.29 38.69C88.55 38.69 89.49 43.69 91.98 45.69C93.2691 46.7222 94.8789 47.2706 96.53 47.24C97.09 47.24 97.62 47.24 98.16 47.24C100.07 47.24 102.01 47.72 105.09 52.06C103.054 51.1574 100.847 50.707 98.62 50.74C94.4 50.68 90.09 52 84.73 52H83.64C83.5002 52.0098 83.3598 52.0098 83.22 52H0V54.81H83.17C83.3565 54.8225 83.5435 54.8225 83.73 54.81H84.73H84.79C87.506 54.7354 90.213 54.4647 92.89 54C94.7848 53.6814 96.6994 53.4943 98.62 53.44C100.447 53.4097 102.26 53.7783 103.93 54.52C104.492 54.7724 105.121 54.8333 105.72 54.6934C106.32 54.5535 106.857 54.2205 107.249 53.7456C107.641 53.2707 107.866 52.6803 107.89 52.065C107.913 51.4497 107.734 50.8436 107.38 50.34L106.99 49.81H107.58C111.97 49.81 115.15 47.65 117.7 45.91C119.45 44.71 120.97 43.68 122.35 43.68C122.75 43.6829 123.146 43.7574 123.52 43.9C123.839 44.0215 124.179 44.0793 124.52 44.07C125.008 44.0682 125.488 43.9402 125.912 43.6984C126.336 43.4566 126.69 43.1092 126.94 42.69C127.203 42.2557 127.342 41.7577 127.342 41.25C127.342 40.7423 127.203 40.2443 126.94 39.81C128.064 39.6535 129.154 39.3158 130.17 38.81C134.41 36.81 136.92 32.97 139.17 29.59L139.63 28.88C139.924 28.4598 140.097 27.9671 140.131 27.4555C140.165 26.9438 140.058 26.4326 139.822 25.9773C139.586 25.522 139.23 25.14 138.793 24.8725C138.355 24.605 137.853 24.4624 137.34 24.46L137.23 24.56ZM91 12.82C90.8123 12.8178 90.6251 12.8011 90.44 12.77C89.61 12.62 89.62 12.46 89.66 12.06C89.77 10.75 91.26 8.93002 92.57 8.93002C92.7553 8.93279 92.9384 8.9701 93.11 9.04002C93.4465 9.1777 93.8064 9.24901 94.17 9.25002C94.5935 9.25879 95.0136 9.1734 95.4 9.00002C93.73 11.38 92.51 12.82 91 12.82ZM114 20.4C112.422 20.8367 110.804 21.1115 109.17 21.22C108.711 21.2541 108.252 21.1533 107.85 20.93C107.607 20.7251 107.404 20.4777 107.25 20.2C107.64 19.39 110.52 17.89 113.61 17.89C114.2 17.8516 114.792 17.9473 115.34 18.17C115.52 18.25 115.83 18.44 116.17 18.64C116.67 18.94 117.24 19.28 117.87 19.64C116.6 19.8 115.3 20.11 114 20.4ZM117.55 38.06C116.712 38.3006 115.85 38.4514 114.98 38.51H114.61C114.32 38.51 113.84 38.39 113.9 37.63C113.899 37.3781 113.993 37.1352 114.164 36.9498C114.335 36.7644 114.569 36.6502 114.82 36.63H114.88C116.217 36.753 117.514 37.1513 118.69 37.8C118.32 37.87 117.93 38 117.57 38.06H117.55ZM96.55 44.41C95.5092 44.4397 94.4941 44.0835 93.7 43.41C93.1576 42.9146 92.7865 42.2598 92.64 41.54C93.99 41.75 95.64 43.02 97.22 44.38L96.55 44.41Z" fill="white"/>
        <path d="M16.2695 35.85V19H18.8395V25.8H21.1495V19H23.7195V35.85H21.1495V28H18.8395V35.85H16.2695Z" fill="white"/>
        <path d="M32.6199 34.8201C32.2823 35.2351 31.8471 35.5601 31.3533 35.766C30.8595 35.9719 30.3224 36.0523 29.7899 36.0001C29.2516 36.0422 28.7111 35.9532 28.2148 35.7407C27.7184 35.5283 27.281 35.1986 26.9399 34.7801C26.2631 33.6737 25.9485 32.3837 26.0399 31.0901V23.4101C26.0399 20.3167 27.3032 18.7701 29.8299 18.7701C30.3635 18.7261 30.8997 18.8155 31.3902 19.0302C31.8807 19.2449 32.3102 19.5782 32.6399 20.0001C33.2796 21.0358 33.5802 22.2453 33.4999 23.4601V31.1801C33.5836 32.4546 33.2766 33.7245 32.6199 34.8201ZM28.8499 33.2301C28.9252 33.4135 29.0534 33.5703 29.2181 33.6807C29.3828 33.7911 29.5766 33.8501 29.7749 33.8501C29.9732 33.8501 30.167 33.7911 30.3317 33.6807C30.4964 33.5703 30.6246 33.4135 30.6999 33.2301C30.8814 32.5593 30.9556 31.864 30.9199 31.1701V23.3001C30.9494 22.7076 30.8714 22.1148 30.6899 21.5501C30.6248 21.3732 30.5035 21.2226 30.3445 21.1214C30.1855 21.0202 29.9977 20.9741 29.8099 20.9901C29.6177 20.9779 29.4263 21.0251 29.2617 21.1252C29.0972 21.2254 28.9674 21.3737 28.8899 21.5501C28.6802 22.1049 28.5915 22.6982 28.6299 23.2901V31.1601C28.5923 31.8574 28.6665 32.5562 28.8499 33.2301Z" fill="white"/>
        <path d="M36.6904 35.85V21.19H34.6904V19H41.1204V21.22H39.2204V35.85H36.6904Z" fill="white"/>
        <path d="M46.0801 35.8501V19.0001H49.8701C50.3752 18.9556 50.8835 19.0323 51.3531 19.2236C51.8226 19.4149 52.2398 19.7153 52.5701 20.1001C53.194 21.0567 53.4889 22.1907 53.4101 23.3301V30.9501C53.5081 32.2525 53.2156 33.5546 52.5701 34.6901C52.2392 35.103 51.8113 35.4278 51.3245 35.6354C50.8377 35.843 50.3072 35.9271 49.7801 35.8801L46.0801 35.8501ZM48.6501 33.8501H49.5001C49.6917 33.8613 49.8832 33.8252 50.0575 33.745C50.2319 33.6648 50.3839 33.5429 50.5001 33.3901C50.7591 32.8701 50.8699 32.2888 50.8201 31.7101V23.3701C50.8649 22.7301 50.7552 22.0887 50.5001 21.5001C50.3804 21.3261 50.2159 21.1878 50.024 21.0998C49.8321 21.0118 49.62 20.9773 49.4101 21.0001H48.6501V33.8501Z" fill="white"/>
        <path d="M55.7305 35.85V19H61.3905V21.21H58.3005V26.1H61.2405V28.26H58.3005V33.63H61.5105V35.85H55.7305Z" fill="white"/>
        <path d="M62.79 35.85L65.2 19H68.59L71.15 35.88H68.76L68.35 32.88H65.63L65.27 35.88L62.79 35.85ZM68.09 30.78L67 22.3L66 30.78H68.09Z" fill="white"/>
        <path d="M72.9199 35.85V19H75.4899V33.66H78.7399V35.85H72.9199Z" fill="white"/>
    </g>
    <defs>
        <radialGradient id="paint0_radial" cx="0" cy="0" r="1" gradientUnits="userSpaceOnUse" gradientTransform="translate(128.02 4.98001) scale(121.4)">
            <stop offset="0.07" stop-color="#FF8C00"/>
            <stop offset="1" stop-color="#FF0000"/>
        </radialGradient>
        <clipPath id="clip0">
            <rect width="140.03" height="54.81" fill="white"/>
        </clipPath>
    </defs>
</svg>
