<svg width="48" height="48" viewBox="0 0 48 48" fill="none" xmlns="http://www.w3.org/2000/svg">
    <path d="M15.0671 19.5951H17.5935V28.4646H15.9173V21.1809H14.0903L15.0671 19.5951ZM25.2329 23.659C25.6349 23.9163 25.9444 24.2479 26.1615 24.6539C26.3826 25.0559 26.4931 25.492 26.4931 25.9623C26.4931 26.4728 26.3645 26.9452 26.1072 27.3793C25.854 27.8134 25.5123 28.141 25.0822 28.3621C24.6521 28.5792 24.1034 28.6877 23.4361 28.6877C22.7206 28.6877 22.1518 28.5832 21.7298 28.3742C21.3077 28.1611 20.97 27.8415 20.7168 27.4155C20.4636 26.9853 20.3369 26.501 20.3369 25.9623C20.3369 25.4961 20.4374 25.072 20.6384 24.6901C20.8434 24.3042 21.1489 23.9605 21.5549 23.659C21.2896 23.3897 21.0886 23.1043 20.952 22.8029C20.8193 22.4974 20.753 22.1758 20.753 21.8381C20.753 21.3759 20.8635 20.9558 21.0846 20.5779C21.3097 20.1961 21.6232 19.9006 22.0252 19.6916C22.4272 19.4786 22.8915 19.372 23.418 19.372C23.9366 19.372 24.3928 19.4786 24.7868 19.6916C25.1807 19.9046 25.4902 20.2081 25.7153 20.6021C25.9444 20.992 26.059 21.412 26.059 21.8622C26.059 22.1798 25.9987 22.4752 25.8781 22.7486C25.7615 23.0179 25.5465 23.3214 25.2329 23.659ZM23.3638 21C23.0864 21 22.8573 21.0925 22.6764 21.2774C22.4995 21.4583 22.4111 21.6914 22.4111 21.9768C22.4111 22.2622 22.5056 22.5014 22.6945 22.6943C22.8834 22.8873 23.1166 22.9837 23.3939 22.9837C23.6793 22.9837 23.9125 22.8893 24.0934 22.7003C24.2783 22.5114 24.3707 22.2662 24.3707 21.9647C24.3707 21.6793 24.2783 21.4482 24.0934 21.2713C23.9084 21.0905 23.6653 21 23.3638 21ZM23.4301 24.5575C23.0241 24.5575 22.6824 24.6821 22.4051 24.9313C22.1277 25.1765 21.989 25.4699 21.989 25.8116C21.989 26.1694 22.1197 26.4728 22.381 26.7221C22.6422 26.9673 22.9859 27.0899 23.412 27.0899C23.8421 27.0899 24.1838 26.9753 24.437 26.7462C24.6943 26.513 24.8229 26.2136 24.8229 25.8478C24.8229 25.482 24.6903 25.1765 24.425 24.9313C24.1597 24.6821 23.8281 24.5575 23.4301 24.5575ZM29.8335 23.2792V21.0181H31.3409V23.2792H33.5959V24.7866H31.3409V27.0416H29.8335V24.7866H27.5724V23.2792H29.8335Z" fill="#F89F46"/>
    <circle cx="23.668" cy="23.668" r="22.639" stroke="#F89F46" stroke-width="2.05809"/>
</svg>
