<svg width="187" height="184" viewBox="0 0 187 184" fill="none" xmlns="http://www.w3.org/2000/svg">
    <path d="M132.348 111.388C132.348 115.206 128.76 118.312 124.348 118.312C115.927 118.312 109.076 124.681 109.076 132.51C109.076 139.173 114.041 144.776 120.712 146.297C124.203 146.825 127.015 146.517 127.985 146.297C131.638 145.468 137.82 142.81 137.82 136.146C137.82 134.138 136.192 132.51 134.184 132.51C132.176 132.51 130.547 134.138 130.547 136.146C130.547 137.091 128.76 139.434 124.348 139.434C119.937 139.434 116.348 136.328 116.348 132.51C116.348 128.691 119.937 125.585 124.348 125.585C132.77 125.585 139.621 119.216 139.621 111.388C139.621 104.725 134.656 99.1218 127.985 97.601C127.015 97.3467 124.203 96.9907 120.712 97.601C114.041 99.1218 109.076 104.725 109.076 111.388C109.076 113.396 110.704 115.025 112.712 115.025C114.72 115.025 116.348 113.396 116.348 111.388C116.348 107.57 119.937 104.464 124.348 104.464C128.76 104.464 132.348 107.57 132.348 111.388Z" fill="white"/>
    <path d="M164.176 96.6825C159.426 89.2806 152.733 83.3577 144.822 79.5548C143.012 78.6842 140.839 79.4464 139.969 81.2566C139.099 83.0668 139.861 85.2392 141.671 86.1094C155.457 92.7363 164.364 106.896 164.364 122.183C164.364 128.724 162.752 135.211 159.702 140.943C158.759 142.716 159.431 144.918 161.204 145.861C161.748 146.151 162.333 146.288 162.909 146.288C164.21 146.288 165.469 145.588 166.122 144.359C169.73 137.579 171.637 129.911 171.637 122.183C171.637 113.106 169.057 104.288 164.176 96.6825Z" fill="white"/>
    <path d="M130.065 74.91L129.82 74.9097C127.812 74.9097 126.184 76.5377 126.184 78.546C126.184 80.5544 127.812 82.1824 129.82 82.1824L130.031 82.1828C130.036 82.1828 130.042 82.1828 130.048 82.1828C132.048 82.1828 133.675 80.566 133.684 78.5635C133.693 76.5551 132.073 74.9195 130.065 74.91Z" fill="white"/>
    <path d="M107.059 158.256C93.2738 151.629 84.3665 137.469 84.3665 122.183C84.3665 115.642 85.9789 109.155 89.0287 103.422C89.972 101.649 89.2996 99.4473 87.5265 98.504C85.7541 97.5607 83.5512 98.2331 82.6083 100.006C79.0007 106.786 77.0938 114.455 77.0938 122.183C77.0938 131.259 79.6738 140.076 84.5549 147.683C89.3051 155.085 95.9975 161.007 103.908 164.811C104.416 165.055 104.953 165.17 105.481 165.17C106.836 165.17 108.135 164.411 108.762 163.109C109.631 161.299 108.87 159.126 107.059 158.256Z" fill="white"/>
    <path d="M118.91 162.183L118.7 162.182C116.682 162.178 115.056 163.793 115.047 165.801C115.037 167.81 116.659 169.445 118.667 169.455L118.91 169.455C120.918 169.455 122.547 167.827 122.547 165.819C122.547 163.811 120.918 162.183 118.91 162.183Z" fill="white"/>
    <path d="M140.876 62.6068C140.434 61.5522 139.892 60.5584 139.261 59.6366H148.728C157.951 59.6366 165.455 52.1325 165.455 42.9092C165.455 33.6859 157.951 26.1819 148.728 26.1819H119.608C121.459 23.4903 122.546 20.2339 122.546 16.7273C122.546 7.50403 115.042 0 105.819 0H16.7273C7.50403 0 0 7.50403 0 16.7273C0 25.9506 7.50403 33.4547 16.7273 33.4547H45.8474C43.9962 36.1463 42.9092 39.4027 42.9092 42.9092C42.9092 46.4158 43.9958 49.6722 45.8474 52.3638H36.3638C27.1405 52.3638 19.6364 59.8678 19.6364 69.0911C19.6364 74.3883 22.1143 79.1152 25.9692 82.1821C22.1143 85.249 19.6364 89.976 19.6364 95.2731C19.6364 100.57 22.1143 105.297 25.9692 108.364C22.1143 111.431 19.6364 116.158 19.6364 121.455C19.6364 126.752 22.1143 131.479 25.9692 134.546C22.1143 137.613 19.6364 142.34 19.6364 147.637C19.6364 156.86 27.1405 164.364 36.3638 164.364H79.2185C90.5079 176.44 106.568 184.001 124.364 184.001C158.451 184.001 186.183 156.269 186.183 122.183C186.183 93.8127 166.972 69.8486 140.876 62.6068ZM148.728 33.4547C153.941 33.4547 158.182 37.6961 158.182 42.9092C158.182 48.1223 153.941 52.3638 148.728 52.3638H125.455H59.6366C54.4231 52.3638 50.182 48.1223 50.182 42.9092C50.182 37.6961 54.4231 33.4547 59.6366 33.4547H148.728ZM16.7273 26.1819C11.5139 26.1819 7.27275 21.9404 7.27275 16.7273C7.27275 11.5142 11.5139 7.27275 16.7273 7.27275H105.819C111.032 7.27275 115.273 11.5142 115.273 16.7273C115.273 21.9404 111.032 26.1819 105.819 26.1819H16.7273ZM36.3638 59.6366H125.455C126.92 59.6366 128.322 59.9769 129.58 60.5864C127.86 60.442 126.122 60.3642 124.364 60.3642C107.293 60.3642 91.817 67.3202 80.6192 78.5457H36.3638C31.1507 78.5457 26.9092 74.3043 26.9092 69.0911C26.9092 63.878 31.1507 59.6366 36.3638 59.6366ZM36.3638 85.8185H74.4057C70.2777 91.4741 67.0861 97.8531 65.0591 104.728H36.3638C31.1503 104.728 26.9092 100.487 26.9092 95.2731C26.9092 90.06 31.1503 85.8185 36.3638 85.8185ZM36.3638 112H63.3893C62.8377 115.314 62.546 118.715 62.546 122.183C62.546 125.145 62.7602 128.058 63.1649 130.91H36.3638C31.1503 130.91 26.9092 126.668 26.9092 121.455C26.9092 116.241 31.1503 112 36.3638 112ZM36.3638 157.091C31.1503 157.091 26.9092 152.85 26.9092 147.637C26.9092 142.423 31.1503 138.182 36.3638 138.182H64.6497C66.4846 145.023 69.4653 151.399 73.3744 157.091H36.3638ZM124.364 176.728C94.288 176.728 69.8188 152.259 69.8188 122.183C69.8188 92.1061 94.288 67.637 124.364 67.637C154.441 67.637 178.91 92.1061 178.91 122.183C178.91 152.259 154.441 176.728 124.364 176.728Z" fill="white"/>
    <line x1="139.41" y1="120.591" x2="109.319" y2="120.591" stroke="white" stroke-width="7" stroke-linecap="round" stroke-linejoin="round"/>
    <line x1="139.41" y1="128.591" x2="109.319" y2="128.591" stroke="white" stroke-width="7" stroke-linecap="round" stroke-linejoin="round"/>
</svg>
