<svg width="17" height="17" viewBox="0 0 17 17" fill="none" xmlns="http://www.w3.org/2000/svg">
    <g clip-path="url(#clip0)">
        <path d="M14.6603 4.41917C14.0614 2.48383 12.487 0.908973 10.5517 0.310021C8.50329 -0.32449 6.32391 0.0281601 4.6604 1.25389C3.00914 2.47115 2.02344 4.4211 2.02344 6.46987C2.02344 7.88322 2.47055 9.22599 3.31613 10.3528L8.49997 17.0002L13.6838 10.3523C14.9493 8.66502 15.3054 6.50247 14.6603 4.41917ZM8.49997 9.95719C6.57725 9.95719 5.01261 8.39256 5.01261 6.46983C5.01261 4.54711 6.57725 2.98247 8.49997 2.98247C10.4227 2.98247 11.9873 4.54711 11.9873 6.46983C11.9873 8.39256 10.4227 9.95719 8.49997 9.95719Z" fill="#F89F46"/>
        <path d="M8.50073 3.98535C7.12728 3.98535 6.00977 5.09623 6.00977 6.46967C6.00977 7.84312 7.12728 8.96064 8.50073 8.96064C9.87418 8.96064 10.9917 7.84312 10.9917 6.46967C10.9917 5.09623 9.87418 3.98535 8.50073 3.98535Z" fill="#F89F46"/>
    </g>
    <defs>
        <clipPath id="clip0">
            <rect width="17" height="17" fill="white"/>
        </clipPath>
    </defs>
</svg>
