<svg width="45" height="46" viewBox="0 0 45 46" fill="none" xmlns="http://www.w3.org/2000/svg">
    <path d="M40.6184 26.926L40.3602 27.0082L40.567 27.1834C42.8627 29.1272 44.3223 32.0281 44.3222 35.2637C44.3222 41.1009 39.5732 45.85 33.736 45.85H12.8951C11.5206 45.85 10.3629 45.36 9.47438 44.4447C8.58335 43.5268 7.95452 42.1719 7.66132 40.431L7.66124 40.4305L5.39054 27.1973L5.36916 27.0727H5.2427H3.27209C1.5507 27.0727 0.15 25.6721 0.15 23.9506V20.6121C0.15 18.8907 1.55061 17.49 3.27209 17.49H6.26278H6.3557L6.39709 17.4068L14.6503 0.814623L14.516 0.74782L14.6503 0.814619C14.9448 0.222418 15.6637 -0.0189341 16.2559 0.275676L16.2559 0.275684C16.8481 0.570219 17.0894 1.28913 16.7948 1.88132L9.13876 17.2732L9.03092 17.49H9.27307H33.6719H33.9141L33.8062 17.2732L26.1502 1.88132C25.8556 1.28913 26.0969 0.570219 26.6891 0.275683L26.6891 0.275669C27.2813 -0.0190097 28.0002 0.222402 28.2947 0.814619L36.5479 17.4068L36.5893 17.49H36.6822H39.6729C41.3943 17.49 42.795 18.8907 42.795 20.6121V23.9506C42.795 25.3421 41.8794 26.5242 40.6184 26.926ZM26.7298 27.3351L27.0263 27.0728H26.6304H7.97744H7.79951L7.8296 27.2482L9.3404 36.0528L9.36179 36.1774H9.48824H23.0273H23.1883L23.177 36.0168C23.1048 34.9952 23.1785 33.9893 23.3933 33.0047L23.433 32.8227H23.2467H15.0038C14.3424 32.8227 13.8062 32.2865 13.8062 31.6251C13.8062 30.9637 14.3424 30.4275 15.0038 30.4275H24.2304H24.3209L24.3631 30.3473C24.9651 29.2044 25.77 28.1843 26.7298 27.3351ZM9.95066 38.5727H9.77273L9.80282 38.7481C9.82293 38.8652 9.84308 38.9877 9.8639 39.1143C9.99838 39.9318 10.1608 40.9189 10.5194 41.7377C10.7277 42.2133 11.0065 42.6432 11.3938 42.9546C11.7839 43.2682 12.2758 43.4547 12.8952 43.4547H26.6304H27.0263L26.7298 43.1924C25.3655 41.9854 24.3138 40.4334 23.7136 38.6743L23.6789 38.5727H23.5716H9.95066ZM26.0972 32.3219L26.0858 32.3378L26.0788 32.356C24.0464 37.6907 28.0041 43.4547 33.7361 43.4547C38.2528 43.4547 41.927 39.7805 41.927 35.2638C41.927 30.7471 38.2528 27.0729 33.7361 27.0729C30.4556 27.0729 27.6204 29.0114 26.3138 31.8019L26.3055 31.8196L26.302 31.8389C26.27 32.0167 26.1987 32.1806 26.0972 32.3219ZM2.54529 20.6121V23.9506C2.54529 24.3515 2.87116 24.6775 3.27209 24.6774C3.2721 24.6774 3.27211 24.6774 3.27213 24.6774H3.28476H3.29811H3.31215H3.32687H3.34227H3.35834H3.37508H3.3925H3.41058H3.42933H3.44874H3.4688H3.48953H3.51091H3.53293H3.55561H3.57893H3.6029H3.62751H3.65275H3.67863H3.70514H3.73228H3.76004H3.78843H3.81745H3.84708H3.87732H3.90818H3.93966H3.97173H4.00442H4.03771H4.07159H4.10608H4.14116H4.17683H4.21309H4.24993H4.28736H4.32537H4.36396H4.40313H4.44286H4.48317H4.52405H4.56549H4.60749H4.65005H4.69317H4.73685H4.78107H4.82585H4.87117H4.91703H4.96343H5.01037H5.05785H5.10586H5.1544H5.20347H5.25306H5.30317H5.35381H5.40496H5.45662H5.5088H5.56148H5.61467H5.66836H5.72255H5.77724H5.83243H5.8881H5.94427H6.00092H6.05806H6.11568H6.17378H6.23235H6.2914H6.35092H6.4109H6.47136H6.53227H6.59365H6.65548H6.71777H6.7805H6.84369H6.90733H6.97141H7.03592H7.10088H7.16628H7.2321H7.29836H7.36505H7.43216H7.49969H7.56764H7.63601H7.70479H7.77399H7.84359H7.9136H7.98402H8.05483H8.12605H8.19765H8.26965H8.34205H8.41482H8.48799H8.56153H8.63546H8.70976H8.78443H8.85948H8.93489H9.01068H9.08682H9.16332H9.24019H9.3174H9.39497H9.47289H9.55116H9.62977H9.70872H9.78801H9.86764H9.9476H10.0279H10.1085H10.1895H10.2707H10.3523H10.4342H10.5164H10.599H10.6818H10.765H10.8484H10.9322H11.0162H11.1006H11.1852H11.2702H11.3554H11.4409H11.5267H11.6127H11.6991H11.7857H11.8726H11.9598H12.0472H12.1349H12.2228H12.311H12.3995H12.4882H12.5772H12.6664H12.7559H12.8456H12.9355H13.0257H13.1161H13.2067H13.2976H13.3887H13.48H13.5716H13.6633H13.7553H13.8475H13.9399H14.0325H14.1253H14.2183H14.3115H14.4049H14.4985H14.5923H14.6863H14.7805H14.8748H14.9694H15.0641H15.1589H15.254H15.3492H15.4446H15.5402H15.6359H15.7318H15.8278H15.924H16.0203H16.1168H16.2134H16.3102H16.4071H16.5041H16.6013H16.6986H16.7961H16.8936H16.9913H17.0892H17.1871H17.2851H17.3833H17.4816H17.5799H17.6784H17.777H17.8757H17.9745H18.0734H18.1723H18.2714H18.3705H18.4698H18.5691H18.6684H18.7679H18.8674H18.967H19.0667H19.1664H19.2662H19.3661H19.466H19.566H19.666H19.7661H19.8662H19.9663H20.0665H20.1668H20.267H20.3673H20.4677H20.568H20.6684H20.7688H20.8692H20.9697H21.0701H21.1706H21.271H21.3715H21.472H21.5725H21.6729H21.7734H21.8739H21.9743H22.0748H22.1752H22.2756H22.376H22.4763H22.5766H22.6769H22.7772H22.8774H22.9776H23.0778H23.1779H23.278H23.378H23.478H23.5779H23.6777H23.7775H23.8773H23.9769H24.0765H24.1761H24.2755H24.3749H24.4742H24.5735H24.6726H24.7717H24.8706H24.9695H25.0683H25.167H25.2656H25.364H25.4624H25.5607H25.6589H25.7569H25.8548H25.9527H26.0504H26.1479H26.2454H26.3427H26.4399H26.5369H26.6338H26.7306H26.8272H26.9237H27.02H27.1162H27.2123H27.3081H27.4039H27.4994H27.5948H27.69H27.7851H27.88H27.9747H28.0692H28.1636H28.2577H28.3517H28.4455H28.5391H28.6325H28.7257H28.8187H28.9115H29.0042H29.0966H29.1887H29.2807H29.3725H29.464H29.5554H29.6465H29.7373H29.828H29.9184H30.0086H30.0985H30.1882H30.2777H30.3669H30.4559H30.5446H30.6331H30.7213H30.8092H30.8969H30.9844H31.0715H31.1584H31.245H31.3314H31.4175H31.5032H31.5888H31.674H31.7589H31.8436H31.9279H32.012H32.0957H32.1792H32.2623H32.3452H32.4277H32.5099H32.5919H32.6734H32.7547H32.8357H32.9163H32.9966H33.0765H33.1562H33.2355H33.3144H33.393H33.4713H33.5492H33.6268H33.704H33.7809H33.8574H33.9336H34.0093H34.0848H34.1598H34.2345H34.3088H34.3827H34.4563H34.5294H34.6022H34.6746H34.7466H34.8182H34.8895H34.9603H35.0307H35.1007H35.1703H35.2395H35.3083H35.3767H35.4446H35.5122H35.5793H35.646H35.7122H35.7781H35.8435H35.9084H35.9729H36.037H36.1007H36.1639H36.2266H36.2889H36.3507H36.4121H36.473H36.5335H36.5935H36.653H36.7121H36.7706H36.8287H36.8864H36.9435H37.0002H37.0563H37.112H37.1672H37.2219H37.2761H37.3298H37.383H37.4357H37.4879H37.5395H37.5907H37.6413H37.6914H37.741H37.7901H37.8387H37.8867H37.9342H37.9811H38.0275H38.0734H38.1187H38.1635H38.2077H38.2514H38.2945H38.3371H38.3791H38.4206H38.4614H38.5018H38.5415H38.5807H38.6193H38.6573H38.6947H38.7316H38.7678H38.8035H38.8386H38.8731H38.907H38.9403H38.973H39.005H39.0365H39.0674H39.0976H39.1273H39.1563H39.1847H39.2125H39.2396H39.2661H39.292H39.3173H39.3419H39.3659H39.3892H39.4119H39.4339H39.4553H39.476H39.4961H39.5155H39.5343H39.5524H39.5698H39.5865H39.6026H39.618H39.6327H39.6468H39.6601H39.6728C40.0737 24.6774 40.3996 24.3515 40.3996 23.9506V20.6121C40.3996 20.2112 40.0737 19.8853 39.6728 19.8853H3.27209C2.8712 19.8853 2.54529 20.2112 2.54529 20.6121Z" fill="white" stroke="#F89F46" stroke-width="0.3"/>
    <path d="M34.8891 33.8712V34.0212H35.0391H37.2852C37.9466 34.0212 38.4828 34.5574 38.4828 35.2188C38.4828 35.8803 37.9466 36.4165 37.2852 36.4165H35.0391H34.8891V36.5665V38.8126C34.8891 39.474 34.3528 40.0103 33.6914 40.0103C33.03 40.0103 32.4938 39.474 32.4938 38.8126V36.5665V36.4165H32.3438H30.0977C29.4362 36.4165 28.9 35.8803 28.9 35.2188C28.9 34.5574 29.4362 34.0212 30.0977 34.0212H32.3438H32.4938V33.8712V31.6251C32.4938 30.9637 33.03 30.4274 33.6914 30.4274C34.3528 30.4274 34.8891 30.9637 34.8891 31.6251V33.8712Z" fill="white" stroke="#F89F46" stroke-width="0.3"/>
</svg>
