<svg width="24" height="26" viewBox="0 0 24 26" fill="none" xmlns="http://www.w3.org/2000/svg">
    <path d="M21.8121 15.1902C22.5208 14.9644 23.0356 14.3001 23.0356 13.5176V11.7268C23.0356 10.759 22.2483 9.97167 21.2805 9.97167H19.6763L15.2493 1.07163C15.0715 0.714193 14.6376 0.568461 14.2802 0.746337C13.9227 0.924116 13.7771 1.35803 13.9549 1.71547L18.0616 9.97167H4.97406L9.08076 1.71547C9.25854 1.35803 9.11291 0.924116 8.75547 0.746337C8.39803 0.56851 7.96411 0.714193 7.78633 1.07163L3.35935 9.97167H1.75514C0.787308 9.97167 0 10.759 0 11.7268V13.5176C0 14.4854 0.787356 15.2727 1.75514 15.2727H2.81218L4.03018 22.371C4.34848 24.2609 5.40065 25.3448 6.91691 25.3448H18.0959C21.2714 25.3448 23.8548 22.7614 23.8548 19.5859C23.8549 17.8256 23.0607 16.2474 21.8121 15.1902ZM1.44575 13.5176V11.7268C1.44575 11.5562 1.58454 11.4174 1.75514 11.4174H21.2804C21.451 11.4174 21.5898 11.5562 21.5898 11.7268V13.5176C21.5898 13.6882 21.451 13.827 21.2804 13.827H1.75514C1.58454 13.827 1.44575 13.6882 1.44575 13.5176ZM14.2845 15.2728C13.7624 15.7346 13.3246 16.2895 12.9972 16.9113H8.04801C7.64879 16.9113 7.32514 17.2349 7.32514 17.6342C7.32514 18.0334 7.64879 18.357 8.04801 18.357H12.4695C12.3526 18.8926 12.3126 19.4399 12.3518 19.9955H5.08948L4.27909 15.2728H14.2845ZM6.91695 23.8991C5.74278 23.8991 5.52663 22.5868 5.37063 21.6397C5.3594 21.5714 5.34847 21.5051 5.33752 21.4413H12.6438C12.9704 22.3984 13.5425 23.2426 14.2845 23.8991H6.91695ZM18.096 23.8991C15.0777 23.8991 12.9937 20.8638 14.0638 18.0549C14.1251 17.9696 14.1682 17.8706 14.1875 17.7631C14.8757 16.2934 16.3688 15.2728 18.096 15.2728C20.4743 15.2728 22.4091 17.2077 22.4091 19.586C22.4091 21.9643 20.4743 23.8991 18.096 23.8991Z" fill="white"/>
    <path d="M21.8121 15.1902C22.5208 14.9644 23.0356 14.3001 23.0356 13.5176V11.7268C23.0356 10.759 22.2483 9.97167 21.2805 9.97167H19.6763L15.2493 1.07163C15.0715 0.714193 14.6376 0.568461 14.2802 0.746337C13.9227 0.924116 13.7771 1.35803 13.9549 1.71547L18.0616 9.97167H4.97406L9.08076 1.71547C9.25854 1.35803 9.11291 0.924116 8.75547 0.746337C8.39803 0.56851 7.96411 0.714193 7.78633 1.07163L3.35935 9.97167H1.75514C0.787308 9.97167 0 10.759 0 11.7268V13.5176C0 14.4854 0.787356 15.2727 1.75514 15.2727H2.81218L4.03018 22.371C4.34848 24.2609 5.40065 25.3448 6.91691 25.3448H18.0959C21.2714 25.3448 23.8548 22.7614 23.8548 19.5859C23.8549 17.8256 23.0607 16.2474 21.8121 15.1902ZM1.44575 13.5176V11.7268C1.44575 11.5562 1.58454 11.4174 1.75514 11.4174H21.2804C21.451 11.4174 21.5898 11.5562 21.5898 11.7268V13.5176C21.5898 13.6882 21.451 13.827 21.2804 13.827H1.75514C1.58454 13.827 1.44575 13.6882 1.44575 13.5176ZM14.2845 15.2728C13.7624 15.7346 13.3246 16.2895 12.9972 16.9113H8.04801C7.64879 16.9113 7.32514 17.2349 7.32514 17.6342C7.32514 18.0334 7.64879 18.357 8.04801 18.357H12.4695C12.3526 18.8926 12.3126 19.4399 12.3518 19.9955H5.08948L4.27909 15.2728H14.2845ZM6.91695 23.8991C5.74278 23.8991 5.52663 22.5868 5.37063 21.6397C5.3594 21.5714 5.34847 21.5051 5.33752 21.4413H12.6438C12.9704 22.3984 13.5425 23.2426 14.2845 23.8991H6.91695ZM18.096 23.8991C15.0777 23.8991 12.9937 20.8638 14.0638 18.0549C14.1251 17.9696 14.1682 17.8706 14.1875 17.7631C14.8757 16.2934 16.3688 15.2728 18.096 15.2728C20.4743 15.2728 22.4091 17.2077 22.4091 19.586C22.4091 21.9643 20.4743 23.8991 18.096 23.8991Z" stroke="white"/>
    <path d="M19.9991 18.839H18.7943V17.6342C18.7943 17.2349 18.4707 16.9113 18.0715 16.9113C17.6722 16.9113 17.3486 17.2349 17.3486 17.6342V18.839H16.1438C15.7446 18.839 15.4209 19.1626 15.4209 19.5619C15.4209 19.9611 15.7446 20.2847 16.1438 20.2847H17.3486V21.4895C17.3486 21.8888 17.6722 22.2124 18.0715 22.2124C18.4707 22.2124 18.7943 21.8888 18.7943 21.4895V20.2847H19.9991C20.3984 20.2847 20.722 19.9611 20.722 19.5619C20.722 19.1626 20.3984 18.839 19.9991 18.839Z" fill="white"/>
    <path d="M19.9991 18.839H18.7943V17.6342C18.7943 17.2349 18.4707 16.9113 18.0715 16.9113C17.6722 16.9113 17.3486 17.2349 17.3486 17.6342V18.839H16.1438C15.7446 18.839 15.4209 19.1626 15.4209 19.5619C15.4209 19.9611 15.7446 20.2847 16.1438 20.2847H17.3486V21.4895C17.3486 21.8888 17.6722 22.2124 18.0715 22.2124C18.4707 22.2124 18.7943 21.8888 18.7943 21.4895V20.2847H19.9991C20.3984 20.2847 20.722 19.9611 20.722 19.5619C20.722 19.1626 20.3984 18.839 19.9991 18.839Z" stroke="white"/>
</svg>
