<svg width="22" height="20" viewBox="0 0 22 20" fill="none" xmlns="http://www.w3.org/2000/svg">
<path d="M19.4713 2.75721C18.4308 1.63882 16.9728 1.00248 15.4452 1.00012C13.9164 1.00189 12.4569 1.6379 11.4148 2.7565L11.0596 3.13179L10.7045 2.7565C8.63668 0.530965 5.15618 0.403157 2.9307 2.47097C2.83208 2.56264 2.73683 2.65784 2.64517 2.7565C0.451611 5.12252 0.451611 8.77909 2.64517 11.1451L10.5377 19.4683C10.8108 19.7566 11.2658 19.7689 11.5541 19.4959C11.5635 19.4869 11.5727 19.4777 11.5816 19.4683L19.4713 11.1451C21.6647 8.77935 21.6647 5.12298 19.4713 2.75721ZM18.431 10.1551H18.4303L11.0596 17.929L3.68836 10.1551C2.01261 8.34726 2.01261 5.55363 3.68836 3.74577C5.21015 2.09639 7.78094 1.99297 9.43032 3.51476C9.5104 3.58864 9.58745 3.66569 9.66134 3.74577L10.5377 4.67034C10.8265 4.9573 11.2928 4.9573 11.5816 4.67034L12.458 3.74649C13.9798 2.09711 16.5506 1.99369 18.2 3.51547C18.28 3.58936 18.3571 3.66641 18.431 3.74649C20.1213 5.55721 20.1337 8.35594 18.431 10.1551Z" fill="white" stroke="white" stroke-width="0.5"/>
</svg>
