<svg width="38" height="35" viewBox="0 0 38 35" fill="none" xmlns="http://www.w3.org/2000/svg">
    <path d="M34.9338 3.27595C32.994 1.19095 30.2758 0.00461622 27.428 0.00021832C24.578 0.00351675 21.857 1.18922 19.9142 3.27461L19.2521 3.97427L18.59 3.27461C14.735 -0.874415 8.24636 -1.11269 4.09741 2.74231C3.91357 2.9132 3.736 3.09069 3.56511 3.27461C-0.524308 7.68555 -0.524308 14.5025 3.56511 18.9134L18.2791 34.4302C18.7881 34.9676 19.6365 34.9906 20.1739 34.4816C20.1915 34.4649 20.2086 34.4478 20.2252 34.4302L34.9338 18.9134C39.0229 14.5029 39.0229 7.68641 34.9338 3.27595ZM32.9944 17.0678H32.993L19.2521 31.5606L5.50993 17.0678C2.38585 13.6974 2.38585 8.48927 5.50993 5.1189C8.34696 2.04399 13.1397 1.85118 16.2146 4.68822C16.3639 4.82597 16.5075 4.96961 16.6453 5.1189L18.2791 6.84257C18.8175 7.37754 19.6868 7.37754 20.2252 6.84257L21.859 5.12024C24.6961 2.04532 29.4888 1.85252 32.5637 4.68956C32.713 4.82731 32.8566 4.97095 32.9944 5.12024C36.1456 8.49594 36.1687 13.7136 32.9944 17.0678Z" fill="white"/>
</svg>
