<svg width="23" height="28" viewBox="0 0 23 28" fill="none" xmlns="http://www.w3.org/2000/svg">
    <path d="M19.6299 3.37012C15.1366 -1.12313 7.86385 -1.12361 3.37012 3.37012C-1.12302 7.8632 -1.12372 15.1361 3.37012 19.6299L10.8924 27.1521C11.228 27.4878 11.7721 27.4877 12.1077 27.1521L19.6299 19.6299C24.123 15.1368 24.1237 7.8639 19.6299 3.37012ZM18.4146 18.4146L11.5 25.3292L4.58541 18.4146C0.772715 14.6019 0.772715 8.39815 4.58541 4.58546C8.39815 0.772822 14.6017 0.772715 18.4146 4.58546C22.2273 8.3981 22.2273 14.6019 18.4146 18.4146Z" fill="white"/>
    <path d="M11.5001 6.36029C8.6595 6.36029 6.36035 8.65896 6.36035 11.5C6.36035 14.3405 8.65913 16.6397 11.5001 16.6397C14.3408 16.6397 16.6399 14.3409 16.6399 11.5C16.6399 8.65944 14.3411 6.36029 11.5001 6.36029ZM13.9191 13.919C13.8862 13.919 13.0762 14.921 11.5001 14.921C9.60936 14.921 8.07906 13.3909 8.07906 11.5C8.07906 9.6093 9.60915 8.079 11.5001 8.079C14.5715 8.079 16.0478 11.7905 13.9191 13.919Z" fill="white"/>
</svg>
