<svg width="45" height="45" viewBox="0 0 45 45" fill="none" xmlns="http://www.w3.org/2000/svg">
    <path d="M7.47763 7.47764L7.47766 7.47762C15.7816 -0.826525 29.2197 -0.825226 37.5224 7.47763L38.4063 6.59375L37.5224 7.47764C45.8265 15.7816 45.8252 29.2198 37.5224 37.5224L37.5224 37.5224C29.2185 45.8265 15.7804 45.8252 7.47765 37.5224L7.47763 37.5224C-0.826527 29.2185 -0.825228 15.7803 7.47763 7.47764Z" stroke="white" stroke-width="2.5"/>
    <path d="M10.25 33.3612C10.25 26.6964 15.7343 21.25 22.5 21.25C29.2657 21.25 34.75 26.6965 34.75 33.3612C34.75 34.1161 34.1282 34.75 33.3338 34.75H11.6662C10.8718 34.75 10.25 34.1161 10.25 33.3612Z" stroke="white" stroke-width="2.5"/>
    <path d="M16.25 16.9999C16.25 13.2792 19.2792 10.25 23.0001 10.25C26.7208 10.25 29.75 13.2792 29.75 16.9999C29.75 20.7208 26.7208 23.75 23.0001 23.75C19.2792 23.75 16.25 20.7208 16.25 16.9999Z" fill="#F89F46" stroke="white" stroke-width="2.5"/>
</svg>
