<svg width="25" height="25" viewBox="0 0 25 25" fill="none" xmlns="http://www.w3.org/2000/svg">
<path d="M19.894 4.45089L19.894 4.4509C24.2196 8.77645 24.2189 15.776 19.894 20.1008L19.894 20.1009C15.5685 24.4265 8.56889 24.4258 4.244 20.1009L4.24398 20.1008C-0.0816614 15.7753 -0.0809929 8.77579 4.24398 4.4509L4.244 4.45088C8.56951 0.125249 15.5691 0.125918 19.894 4.45089Z" stroke="white" stroke-width="2"/>
<path d="M5.82715 18.1018C5.82715 14.712 8.61815 11.9349 12.0685 11.9349C15.5189 11.9349 18.3099 14.712 18.3099 18.1018C18.3099 18.3215 18.1271 18.5173 17.8798 18.5173H6.25727C6.00995 18.5173 5.82715 18.3215 5.82715 18.1018Z" stroke="white" stroke-width="2"/>
<path d="M9.0459 9.32564C9.0459 7.51182 10.5232 6.03448 12.3371 6.03448C14.1509 6.03448 15.6283 7.51181 15.6283 9.32564C15.6283 11.1395 14.1509 12.6169 12.3371 12.6169C10.5232 12.6169 9.0459 11.1395 9.0459 9.32564Z" fill="#F89F46" stroke="white" stroke-width="2"/>
</svg>
