<svg width="26" height="26" viewBox="0 0 26 26" fill="none" xmlns="http://www.w3.org/2000/svg">
<path d="M9.59019 11.5531L9.57999 11.5103L9.56607 11.4685C9.44929 11.1182 9.68619 10.5653 10.2069 10.3869C12.3485 9.71686 12.9173 6.98194 11.3534 5.41803L8.36342 2.42804L8.33988 2.4045L8.31482 2.38257C7.11087 1.32912 5.22797 1.26608 4.06601 2.42804L2.03709 4.45696L2.02802 4.46602L2.01919 4.47532C1.2829 5.25036 0.996075 6.28445 1.00004 7.36517C1.00399 8.44167 1.29321 9.63603 1.79051 10.8651C2.78642 13.3264 4.6891 16.1049 7.26956 18.6854C9.84675 21.2626 12.6237 23.1924 15.0853 24.2026C16.3143 24.707 17.5127 25.002 18.5953 25C19.6863 24.998 20.7255 24.6904 21.498 23.9179L23.5269 21.889L23.5505 21.8654L23.5724 21.8404C24.6259 20.6364 24.6889 18.7535 23.5269 17.5915C23.5269 17.5915 23.5269 17.5915 23.5269 17.5915L20.5369 14.6016C18.9731 13.0377 16.2385 13.6065 15.5682 15.7476C15.4223 16.1702 14.9008 16.4692 14.3988 16.3639C13.5748 16.1532 12.4793 15.4614 11.4957 14.4903C10.5059 13.513 9.79588 12.417 9.59019 11.5531Z" stroke="white" stroke-width="2"/>
</svg>
