<svg width="53" height="53" viewBox="0 0 53 53" fill="none" xmlns="http://www.w3.org/2000/svg">
<circle cx="26.5" cy="26.6666" r="25.875" fill="#43A948"/>
<g clip-path="url(#clip0)">
<path d="M31.5319 13.25H21.4694C16.839 13.25 13.084 17.005 13.084 21.6354V31.6979C13.084 36.3283 16.839 40.0833 21.4694 40.0833H31.5319C36.1623 40.0833 39.9173 36.3283 39.9173 31.6979V21.6354C39.9173 17.005 36.1623 13.25 31.5319 13.25ZM37.4017 31.6979C37.4017 34.9347 34.7687 37.5677 31.5319 37.5677H21.4694C18.2326 37.5677 15.5996 34.9347 15.5996 31.6979V21.6354C15.5996 18.3986 18.2326 15.7656 21.4694 15.7656H31.5319C34.7687 15.7656 37.4017 18.3986 37.4017 21.6354V31.6979Z" fill="white"/>
<path d="M26.5013 19.9583C22.7966 19.9583 19.793 22.9619 19.793 26.6666C19.793 30.3713 22.7966 33.3749 26.5013 33.3749C30.206 33.3749 33.2096 30.3713 33.2096 26.6666C33.2096 22.9619 30.206 19.9583 26.5013 19.9583ZM26.5013 30.8593C24.1903 30.8593 22.3086 28.9776 22.3086 26.6666C22.3086 24.3539 24.1903 22.4739 26.5013 22.4739C28.8123 22.4739 30.694 24.3539 30.694 26.6666C30.694 28.9776 28.8123 30.8593 26.5013 30.8593Z" fill="white"/>
<path d="M33.7132 20.3492C34.2069 20.3492 34.6071 19.949 34.6071 19.4553C34.6071 18.9616 34.2069 18.5614 33.7132 18.5614C33.2195 18.5614 32.8193 18.9616 32.8193 19.4553C32.8193 19.949 33.2195 20.3492 33.7132 20.3492Z" fill="white"/>
</g>
<defs>
<clipPath id="clip0">
<rect width="26.8333" height="26.8333" fill="white" transform="translate(13.084 13.25)"/>
</clipPath>
</defs>
</svg>
