<svg width="143" height="534" viewBox="0 0 143 534" fill="none" xmlns="http://www.w3.org/2000/svg">
<g filter="url(#filter0_d)">
<path fill-rule="evenodd" clip-rule="evenodd" d="M42 9C39.2386 9 37 11.2386 37 14V453.458C37 456.22 39.2386 458.458 42 458.458H82.4412L87.5892 467.375C88.7439 469.375 91.6307 469.375 92.7854 467.375L97.9334 458.458H101C103.761 458.458 106 456.22 106 453.458V14C106 11.2386 103.761 9 101 9H42Z" fill="white"/>
</g>
<circle cx="71.5" cy="47.3333" r="25.875" fill="#43A948"/>
<circle cx="71.5" cy="108.667" r="25.875" fill="#43A948"/>
<circle cx="71.5" cy="170" r="25.875" fill="#43A948"/>
<circle cx="71.5" cy="231.333" r="25.875" fill="#43A948"/>
<circle cx="71.5" cy="292.667" r="25.875" fill="#43A948"/>
<circle cx="71.5" cy="354" r="25.875" fill="#43A948"/>
<circle cx="71.5" cy="415.333" r="25.875" fill="#43A948"/>
<path fill-rule="evenodd" clip-rule="evenodd" d="M82.1817 35.3246C79.4246 32.5642 75.7578 31.0433 71.8514 31.0417C63.8019 31.0417 57.2507 37.5926 57.2475 45.6443C57.2464 48.2182 57.9188 50.7307 59.1968 52.9454L57.125 60.5128L64.8667 58.482C66.9999 59.6456 69.4015 60.2588 71.8454 60.2595H71.8516C79.9002 60.2595 86.452 53.708 86.4551 45.656C86.4567 41.7537 84.9391 38.0848 82.1817 35.3246ZM71.8514 57.7932H71.8463C69.6684 57.7923 67.5323 57.207 65.6685 56.1013L65.2254 55.8381L60.6314 57.0433L61.8576 52.5642L61.5689 52.105C60.3538 50.1724 59.7122 47.9387 59.7133 45.6452C59.7158 38.9529 65.161 33.5082 71.8562 33.5082C75.0984 33.5092 78.146 34.7734 80.4377 37.0678C82.7293 39.3621 83.9906 42.4117 83.9895 45.6551C83.9866 52.348 78.5417 57.7932 71.8514 57.7932ZM78.5094 48.7024C78.1446 48.5197 76.3505 47.6372 76.0159 47.5152C75.6817 47.3934 75.4381 47.3328 75.1951 47.698C74.9518 48.0631 74.2526 48.8852 74.0396 49.1285C73.8266 49.3721 73.614 49.4027 73.249 49.2199C72.8841 49.0373 71.7084 48.6519 70.3145 47.4087C69.2299 46.4412 68.4976 45.2462 68.2846 44.8811C68.072 44.5156 68.2828 44.3371 68.4447 44.1364C68.8397 43.6459 69.2352 43.1316 69.3568 42.8882C69.4786 42.6447 69.4176 42.4315 69.3263 42.2489C69.2352 42.0664 68.5055 40.2703 68.2015 39.5395C67.9051 38.8282 67.6045 38.9243 67.3804 38.9131C67.1677 38.9025 66.9244 38.9004 66.681 38.9004C66.4378 38.9004 66.0424 38.9915 65.7079 39.3571C65.3735 39.7224 64.4309 40.6051 64.4309 42.4011C64.4309 44.1972 65.7384 45.9323 65.9208 46.1759C66.1032 46.4194 68.494 50.1051 72.1543 51.6855C73.0249 52.0618 73.7045 52.2861 74.2346 52.4543C75.1088 52.732 75.904 52.6928 76.5329 52.5989C77.234 52.494 78.6916 51.7161 78.9959 50.8638C79.2999 50.0114 79.2999 49.2809 79.2086 49.1285C79.1175 48.9764 78.8742 48.8852 78.5094 48.7024Z" fill="white"/>
<path d="M81.4521 109.793C80.9408 109.256 81.087 109.017 81.4521 108.537C81.4586 108.532 85.6794 103.684 86.1143 102.04L86.1169 102.039C86.333 101.44 86.1169 101 85.0719 101H81.6141C80.7339 101 80.328 101.378 80.1106 101.801C80.1106 101.801 78.3501 105.303 75.8595 107.574C75.0557 108.23 74.6841 108.44 74.2453 108.44C74.0291 108.44 73.6931 108.23 73.6931 107.631V102.039C73.6931 101.321 73.4467 101 72.718 101H67.2809C66.7288 101 66.4007 101.335 66.4007 101.647C66.4007 102.329 67.6459 102.485 67.7751 104.402V108.56C67.7751 109.472 67.5761 109.639 67.1347 109.639C65.9592 109.639 63.1063 106.122 61.4156 102.097C61.0743 101.317 60.7409 101.001 59.8541 101.001H56.395C55.408 101.001 55.209 101.379 55.209 101.802C55.209 102.549 56.3844 106.263 60.675 111.169C63.5346 114.519 67.5616 116.333 71.225 116.333C73.4269 116.333 73.6958 115.93 73.6958 115.237C73.6958 112.037 73.4968 111.734 74.5997 111.734C75.111 111.734 75.9913 111.945 78.047 113.56C80.3965 115.476 80.7826 116.333 82.0978 116.333H85.5555C86.5412 116.333 87.0406 115.93 86.7534 115.135C86.0958 113.463 81.6524 110.023 81.4521 109.793Z" fill="white"/>
<path d="M76.0693 170.387L85.7037 176.477V164.039L76.0693 170.387Z" fill="white"/>
<path d="M57.125 164.039V176.477L66.7594 170.387L57.125 164.039Z" fill="white"/>
<path d="M83.9161 160.417H58.9103C58.019 160.417 57.3117 161.081 57.1777 161.937L71.4132 171.316L85.6486 161.937C85.5146 161.081 84.8073 160.417 83.9161 160.417Z" fill="white"/>
<path d="M74.4321 171.466L71.9047 173.13C71.7547 173.229 71.585 173.277 71.4135 173.277C71.242 173.277 71.0724 173.229 70.9223 173.13L68.3949 171.464L57.1816 178.557C57.3192 179.405 58.0229 180.064 58.9106 180.064H83.9164C84.8041 180.064 85.5078 179.405 85.6454 178.557L74.4321 171.466Z" fill="white"/>
<path d="M81.8195 236.312L78.6859 233.179C77.5668 232.06 75.6643 232.508 75.2166 233.962C74.8809 234.97 73.7618 235.529 72.7546 235.305C70.5163 234.746 67.4947 231.836 66.9351 229.486C66.5994 228.479 67.2708 227.359 68.2781 227.024C69.7329 226.576 70.1806 224.674 69.0614 223.554L65.9279 220.421C65.0326 219.638 63.6896 219.638 62.9063 220.421L60.7799 222.547C58.6536 224.786 61.0038 230.717 66.2636 235.977C71.5235 241.237 77.4549 243.699 79.6931 241.46L81.8195 239.334C82.6029 238.439 82.6029 237.096 81.8195 236.312Z" fill="white"/>
<g clip-path="url(#clip0)">
<path d="M76.5319 279.25H66.4694C61.839 279.25 58.084 283.005 58.084 287.635V297.698C58.084 302.328 61.839 306.083 66.4694 306.083H76.5319C81.1623 306.083 84.9173 302.328 84.9173 297.698V287.635C84.9173 283.005 81.1623 279.25 76.5319 279.25ZM82.4017 297.698C82.4017 300.935 79.7687 303.568 76.5319 303.568H66.4694C63.2326 303.568 60.5996 300.935 60.5996 297.698V287.635C60.5996 284.399 63.2326 281.766 66.4694 281.766H76.5319C79.7687 281.766 82.4017 284.399 82.4017 287.635V297.698Z" fill="white"/>
<path d="M71.5013 285.958C67.7966 285.958 64.793 288.962 64.793 292.667C64.793 296.371 67.7966 299.375 71.5013 299.375C75.206 299.375 78.2096 296.371 78.2096 292.667C78.2096 288.962 75.206 285.958 71.5013 285.958ZM71.5013 296.859C69.1903 296.859 67.3086 294.978 67.3086 292.667C67.3086 290.354 69.1903 288.474 71.5013 288.474C73.8123 288.474 75.694 290.354 75.694 292.667C75.694 294.978 73.8123 296.859 71.5013 296.859Z" fill="white"/>
<path d="M78.7132 286.349C79.2069 286.349 79.6071 285.949 79.6071 285.455C79.6071 284.962 79.2069 284.561 78.7132 284.561C78.2195 284.561 77.8193 284.962 77.8193 285.455C77.8193 285.949 78.2195 286.349 78.7132 286.349Z" fill="white"/>
</g>
<path d="M68.406 357.332L67.9304 364.021C68.6108 364.021 68.9055 363.729 69.2589 363.378L72.449 360.329L79.0591 365.17C80.2714 365.845 81.1255 365.49 81.4525 364.055L85.7914 343.724L85.7926 343.722C86.1771 341.93 85.1445 341.229 83.9633 341.669L58.4597 351.433C56.7191 352.109 56.7455 353.079 58.1638 353.519L64.6841 355.547L79.8293 346.07C80.5421 345.598 81.1902 345.859 80.6571 346.331L68.406 357.332Z" fill="white"/>
<path d="M75.6295 413.753L69.7014 410.51C69.3605 410.323 68.9577 410.33 68.6236 410.528C68.2892 410.726 68.0898 411.076 68.0898 411.465V417.896C68.0898 418.283 68.288 418.632 68.6201 418.831C68.7935 418.934 68.9857 418.986 69.1783 418.986C69.3548 418.986 69.5317 418.943 69.6944 418.855L75.6228 415.667C75.9747 415.478 76.1943 415.112 76.196 414.712C76.1974 414.313 75.9804 413.945 75.6295 413.753ZM69.6623 417.087V412.28L74.0929 414.705L69.6623 417.087Z" fill="white" stroke="white" stroke-width="0.5"/>
<path d="M84.7199 409.588L84.7186 409.576C84.6959 409.36 84.4697 407.439 83.5358 406.462C82.4563 405.313 81.2324 405.173 80.6439 405.106C80.5951 405.101 80.5505 405.095 80.5106 405.09L80.4637 405.085C76.9163 404.827 71.5589 404.792 71.5053 404.792L71.5006 404.792L71.4959 404.792C71.4423 404.792 66.0849 404.827 62.5056 405.085L62.4583 405.09C62.4202 405.095 62.3782 405.1 62.3326 405.105C61.7507 405.172 60.54 405.312 59.4575 406.503C58.5679 407.47 58.3108 409.35 58.2844 409.561L58.2813 409.588C58.2734 409.678 58.084 411.818 58.084 413.966V415.974C58.084 418.122 58.2734 420.261 58.2813 420.351L58.2828 420.365C58.3055 420.577 58.5315 422.463 59.4611 423.441C60.4762 424.552 61.7596 424.699 62.4499 424.778C62.559 424.79 62.653 424.801 62.717 424.812L62.7791 424.821C64.8273 425.016 71.2492 425.112 71.5215 425.115L71.5297 425.116L71.5379 425.115C71.5915 425.115 76.9486 425.08 80.4961 424.822L80.5429 424.817C80.5878 424.811 80.6381 424.806 80.6934 424.8C81.2719 424.739 82.4761 424.611 83.5437 423.436C84.4333 422.47 84.6906 420.59 84.7168 420.379L84.7199 420.351C84.7278 420.261 84.9174 418.122 84.9174 415.974V413.966C84.9172 411.818 84.7278 409.679 84.7199 409.588ZM83.3447 415.974C83.3447 417.962 83.1711 420.009 83.1548 420.197C83.088 420.715 82.8168 421.904 82.3834 422.375C81.7152 423.111 81.0287 423.183 80.5276 423.236C80.467 423.243 80.4109 423.249 80.3601 423.255C76.929 423.503 71.7739 423.542 71.5364 423.543C71.2701 423.539 64.9421 423.442 62.9564 423.258C62.8546 423.241 62.7447 423.228 62.6288 423.215C62.041 423.148 61.2365 423.056 60.6178 422.375L60.6033 422.36C60.1775 421.916 59.914 420.804 59.847 420.203C59.8346 420.061 59.6564 417.99 59.6564 415.974V413.966C59.6564 411.98 59.8296 409.935 59.8464 409.743C59.9261 409.133 60.2024 408.016 60.6178 407.564C61.3065 406.807 62.0326 406.723 62.5129 406.667C62.5588 406.662 62.6016 406.657 62.6411 406.652C66.1222 406.403 71.3143 406.366 71.5006 406.364C71.6869 406.365 76.8772 406.403 80.3274 406.652C80.3697 406.657 80.416 406.663 80.4658 406.668C80.9597 406.725 81.7064 406.81 82.3916 407.541L82.3979 407.547C82.8237 407.991 83.0872 409.123 83.1542 409.735C83.166 409.87 83.3447 411.946 83.3447 413.966V415.974Z" fill="white" stroke="white" stroke-width="0.5"/>
<defs>
<filter id="filter0_d" x="0" y="0" width="143" height="533.875" filterUnits="userSpaceOnUse" color-interpolation-filters="sRGB">
<feFlood flood-opacity="0" result="BackgroundImageFix"/>
<feColorMatrix in="SourceAlpha" type="matrix" values="0 0 0 0 0 0 0 0 0 0 0 0 0 0 0 0 0 0 127 0"/>
<feOffset dy="28"/>
<feGaussianBlur stdDeviation="18.5"/>
<feColorMatrix type="matrix" values="0 0 0 0 0 0 0 0 0 0 0 0 0 0 0 0 0 0 0.16 0"/>
<feBlend mode="normal" in2="BackgroundImageFix" result="effect1_dropShadow"/>
<feBlend mode="normal" in="SourceGraphic" in2="effect1_dropShadow" result="shape"/>
</filter>
<clipPath id="clip0">
<rect width="26.8333" height="26.8333" fill="white" transform="translate(58.084 279.25)"/>
</clipPath>
</defs>
</svg>
