<svg width="85" height="85" viewBox="0 0 85 85" fill="none" xmlns="http://www.w3.org/2000/svg">
<g filter="url(#filter0_d)">
<circle cx="43.5" cy="38.5" r="35.5" fill="#43A948"/>
</g>
<path d="M59.1545 46.1456L54.4661 41.4572C52.7917 39.7828 49.9451 40.4526 49.2754 42.6293C48.773 44.1364 47.0986 44.9736 45.5916 44.6386C42.2428 43.8014 37.7218 39.4479 36.8846 35.9316C36.3823 34.4245 37.3869 32.7501 38.8939 32.2478C41.0707 31.5781 41.7404 28.7315 40.066 27.0571L35.3776 22.3687C34.0381 21.1966 32.0287 21.1966 30.8566 22.3687L27.6752 25.5501C24.4938 28.899 28.0101 37.7735 35.8799 45.6433C43.7498 53.5131 52.6242 57.1969 55.9731 53.848L59.1545 50.6666C60.3267 49.327 60.3267 47.3177 59.1545 46.1456Z" fill="white"/>
<defs>
<filter id="filter0_d" x="0" y="0" width="85" height="85" filterUnits="userSpaceOnUse" color-interpolation-filters="sRGB">
<feFlood flood-opacity="0" result="BackgroundImageFix"/>
<feColorMatrix in="SourceAlpha" type="matrix" values="0 0 0 0 0 0 0 0 0 0 0 0 0 0 0 0 0 0 127 0"/>
<feOffset dx="-1" dy="4"/>
<feGaussianBlur stdDeviation="3.5"/>
<feColorMatrix type="matrix" values="0 0 0 0 0 0 0 0 0 0 0 0 0 0 0 0 0 0 0.25 0"/>
<feBlend mode="normal" in2="BackgroundImageFix" result="effect1_dropShadow"/>
<feBlend mode="normal" in="SourceGraphic" in2="effect1_dropShadow" result="shape"/>
</filter>
</defs>
</svg>
