<svg width="53" height="53" viewBox="0 0 53 53" fill="none" xmlns="http://www.w3.org/2000/svg">
<circle cx="26.5" cy="26.3334" r="25.875" fill="#43A948"/>
<path d="M36.8195 31.3125L33.6859 28.1789C32.5668 27.0598 30.6643 27.5075 30.2166 28.9623C29.8809 29.9696 28.7618 30.5291 27.7546 30.3053C25.5163 29.7457 22.4947 26.836 21.9351 24.4858C21.5994 23.4786 22.2708 22.3594 23.2781 22.0237C24.7329 21.5761 25.1806 19.6736 24.0614 18.5545L20.9279 15.4209C20.0326 14.6375 18.6896 14.6375 17.9063 15.4209L15.7799 17.5473C13.6536 19.7855 16.0038 25.7169 21.2636 30.9767C26.5235 36.2366 32.4549 38.6987 34.6931 36.4605L36.8195 34.3341C37.6029 33.4388 37.6029 32.0959 36.8195 31.3125Z" fill="white"/>
</svg>
