<svg width="53" height="52" viewBox="0 0 53 52" fill="none" xmlns="http://www.w3.org/2000/svg">
<circle cx="26.5" cy="26" r="25.875" fill="#43A948"/>
<path d="M31.0693 26.3867L40.7037 32.4774V20.0388L31.0693 26.3867Z" fill="white"/>
<path d="M12.125 20.0388V32.4774L21.7594 26.3867L12.125 20.0388Z" fill="white"/>
<path d="M38.9161 16.4166H13.9103C13.019 16.4166 12.3117 17.0811 12.1777 17.9366L26.4132 27.3156L40.6486 17.9366C40.5146 17.0811 39.8073 16.4166 38.9161 16.4166Z" fill="white"/>
<path d="M29.4321 27.4657L26.9047 29.1303C26.7547 29.2286 26.585 29.2768 26.4135 29.2768C26.242 29.2768 26.0724 29.2286 25.9223 29.1303L23.3949 27.4639L12.1816 34.5566C12.3192 35.405 13.0229 36.0641 13.9106 36.0641H38.9164C39.8041 36.0641 40.5078 35.405 40.6454 34.5566L29.4321 27.4657Z" fill="white"/>
</svg>

