<svg width="53" height="53" viewBox="0 0 53 53" fill="none" xmlns="http://www.w3.org/2000/svg">
<circle cx="26.5" cy="26.3333" r="25.875" fill="#43A948"/>
<path fill-rule="evenodd" clip-rule="evenodd" d="M37.1817 14.3246C34.4246 11.5642 30.7578 10.0433 26.8514 10.0417C18.8019 10.0417 12.2507 16.5926 12.2475 24.6443C12.2464 27.2182 12.9188 29.7307 14.1968 31.9454L12.125 39.5128L19.8667 37.482C21.9999 38.6456 24.4015 39.2588 26.8454 39.2595H26.8516C34.9002 39.2595 41.452 32.708 41.4551 24.656C41.4567 20.7537 39.9391 17.0848 37.1817 14.3246ZM26.8514 36.7932H26.8463C24.6684 36.7923 22.5323 36.207 20.6685 35.1013L20.2254 34.8381L15.6314 36.0433L16.8576 31.5642L16.5689 31.105C15.3538 29.1724 14.7122 26.9387 14.7133 24.6452C14.7158 17.9529 20.161 12.5082 26.8562 12.5082C30.0984 12.5092 33.146 13.7734 35.4377 16.0678C37.7293 18.3621 38.9906 21.4117 38.9895 24.6551C38.9866 31.348 33.5417 36.7932 26.8514 36.7932ZM33.5094 27.7024C33.1446 27.5197 31.3505 26.6372 31.0159 26.5152C30.6817 26.3934 30.4381 26.3328 30.1951 26.698C29.9518 27.0631 29.2526 27.8852 29.0396 28.1285C28.8266 28.3721 28.614 28.4027 28.249 28.2199C27.8841 28.0373 26.7084 27.6519 25.3145 26.4087C24.2299 25.4412 23.4976 24.2462 23.2846 23.8811C23.072 23.5156 23.2828 23.3371 23.4447 23.1364C23.8397 22.6459 24.2352 22.1316 24.3568 21.8882C24.4786 21.6447 24.4176 21.4315 24.3263 21.2489C24.2352 21.0664 23.5055 19.2703 23.2015 18.5395C22.9051 17.8282 22.6045 17.9243 22.3804 17.9131C22.1677 17.9025 21.9244 17.9004 21.681 17.9004C21.4378 17.9004 21.0424 17.9915 20.7079 18.3571C20.3735 18.7224 19.4309 19.6051 19.4309 21.4011C19.4309 23.1972 20.7384 24.9323 20.9208 25.1759C21.1032 25.4194 23.494 29.1051 27.1543 30.6855C28.0249 31.0618 28.7045 31.2861 29.2346 31.4543C30.1088 31.732 30.904 31.6928 31.5329 31.5989C32.234 31.494 33.6916 30.7161 33.9959 29.8638C34.2999 29.0114 34.2999 28.2809 34.2086 28.1285C34.1175 27.9764 33.8742 27.8852 33.5094 27.7024Z" fill="white"/>
</svg>
