<svg width="53" height="53" viewBox="0 0 53 53" fill="none" xmlns="http://www.w3.org/2000/svg">
<circle cx="26.5" cy="26.6666" r="25.875" fill="#43A948"/>
<path d="M36.4521 27.7926C35.9408 27.2559 36.087 27.0171 36.4521 26.5374C36.4586 26.532 40.6794 21.6844 41.1143 20.0405L41.1169 20.0394C41.333 19.4403 41.1169 19 40.0719 19H36.6141C35.7339 19 35.328 19.3779 35.1106 19.8006C35.1106 19.8006 33.3501 23.3032 30.8595 25.5736C30.0557 26.2297 29.6841 26.44 29.2453 26.44C29.0291 26.44 28.6931 26.2297 28.6931 25.6306V20.0394C28.6931 19.3209 28.4467 19 27.718 19H22.2809C21.7288 19 21.4007 19.3351 21.4007 19.6473C21.4007 20.3285 22.6459 20.4851 22.7751 22.4018V26.5604C22.7751 27.4717 22.5761 27.6392 22.1347 27.6392C20.9592 27.6392 18.1063 24.1224 16.4156 20.0974C16.0743 19.3165 15.7409 19.0011 14.8541 19.0011H11.395C10.408 19.0011 10.209 19.379 10.209 19.8017C10.209 20.5487 11.3844 24.2626 15.675 29.1693C18.5346 32.5185 22.5616 34.3333 26.225 34.3333C28.4269 34.3333 28.6958 33.9303 28.6958 33.237C28.6958 30.0367 28.4968 29.7344 29.5997 29.7344C30.111 29.7344 30.9913 29.9447 33.047 31.5602C35.3965 33.4758 35.7826 34.3333 37.0978 34.3333H40.5555C41.5412 34.3333 42.0406 33.9303 41.7534 33.1351C41.0958 31.4627 36.6524 28.0226 36.4521 27.7926Z" fill="white"/>
</svg>
