<svg width="53" height="53" viewBox="0 0 53 53" fill="none" xmlns="http://www.w3.org/2000/svg">
<circle cx="26.5" cy="26.3334" r="25.875" fill="#43A948"/>
<path d="M30.6295 24.7531L24.7014 21.5095C24.3605 21.323 23.9577 21.33 23.6236 21.5279C23.2892 21.7261 23.0898 22.0762 23.0898 22.4647V28.8963C23.0898 29.283 23.288 29.6325 23.6201 29.8308C23.7935 29.9344 23.9857 29.9864 24.1783 29.9864C24.3548 29.9864 24.5317 29.9428 24.6944 29.8552L30.6228 26.6675C30.9747 26.4781 31.1943 26.1123 31.196 25.7125C31.1974 25.3126 30.9804 24.9452 30.6295 24.7531ZM24.6623 28.0872V23.2804L29.0929 25.7047L24.6623 28.0872Z" fill="white" stroke="white" stroke-width="0.5"/>
<path d="M39.7199 20.5885L39.7186 20.5762C39.6959 20.3602 39.4697 18.4391 38.5358 17.462C37.4563 16.3126 36.2324 16.173 35.6439 16.1061C35.5951 16.1006 35.5505 16.0954 35.5106 16.0901L35.4637 16.0852C31.9163 15.8272 26.5589 15.792 26.5053 15.7918L26.5006 15.7916L26.4959 15.7918C26.4423 15.792 21.0849 15.8272 17.5056 16.0852L17.4583 16.0901C17.4202 16.0952 17.3782 16.0999 17.3326 16.1053C16.7507 16.1724 15.54 16.3122 14.4575 17.5031C13.5679 18.4698 13.3108 20.3498 13.2844 20.561L13.2813 20.5885C13.2734 20.6783 13.084 22.8179 13.084 24.9658V26.9738C13.084 29.1217 13.2734 31.2612 13.2813 31.3513L13.2828 31.3648C13.3055 31.5773 13.5315 33.4632 14.4611 34.4408C15.4762 35.5516 16.7596 35.6986 17.4499 35.7776C17.559 35.7901 17.653 35.8008 17.717 35.812L17.7791 35.8206C19.8273 36.0155 26.2492 36.1115 26.5215 36.1154L26.5297 36.1156L26.5379 36.1154C26.5915 36.1152 31.9486 36.08 35.4961 35.822L35.5429 35.8171C35.5878 35.8112 35.6381 35.8059 35.6934 35.8001C36.2719 35.7387 37.4761 35.6112 38.5437 34.4365C39.4333 33.4696 39.6906 31.5896 39.7168 31.3786L39.7199 31.3511C39.7278 31.261 39.9174 29.1217 39.9174 26.9738V24.9658C39.9172 22.8179 39.7278 20.6785 39.7199 20.5885ZM38.3447 26.9738C38.3447 28.9618 38.1711 31.0092 38.1548 31.1972C38.088 31.7149 37.8168 32.9043 37.3834 33.3754C36.7152 34.1106 36.0287 34.1834 35.5276 34.2365C35.467 34.2428 35.4109 34.249 35.3601 34.2553C31.929 34.5034 26.7739 34.5415 26.5364 34.5429C26.2701 34.5391 19.9421 34.4422 17.9564 34.2578C17.8546 34.2412 17.7447 34.2285 17.6288 34.2154C17.041 34.148 16.2365 34.0559 15.6178 33.3754L15.6033 33.3599C15.1775 32.9162 14.914 31.804 14.847 31.2033C14.8346 31.0612 14.6564 28.9896 14.6564 26.9738V24.9658C14.6564 22.98 14.8296 20.9349 14.8464 20.743C14.9261 20.1332 15.2024 19.0158 15.6178 18.5642C16.3065 17.8067 17.0326 17.7228 17.5129 17.6673C17.5588 17.662 17.6016 17.6571 17.6411 17.6519C21.1222 17.4026 26.3143 17.3655 26.5006 17.3641C26.6869 17.3653 31.8772 17.4026 35.3274 17.6519C35.3697 17.6573 35.416 17.6626 35.4658 17.6683C35.9597 17.7246 36.7064 17.8098 37.3916 18.5406L37.3979 18.5474C37.8237 18.991 38.0872 20.1227 38.1542 20.7355C38.166 20.8696 38.3447 22.9456 38.3447 24.9658V26.9738Z" fill="white" stroke="white" stroke-width="0.5"/>
</svg>

