<svg width="328" height="52" viewBox="0 0 328 52" fill="none" xmlns="http://www.w3.org/2000/svg">
    <path d="M11.31 23.5953H12.9259L16.7306 29.4319V23.5953H18.4189V32.4647H16.7969L12.9983 26.6462V32.4647H11.31V23.5953ZM20.4508 23.5953H25.2925V25.2473H22.127V26.8512H25.2925V28.4732H22.127V30.8066H25.2925V32.4647H20.4508V23.5953ZM26.197 23.5953H27.8611L29.1394 29.257L30.7252 23.5953H32.1301L33.7339 29.257L35.0001 23.5953H36.6643L34.6685 32.4647H33.0465L31.4125 26.7306L29.8087 32.4647H28.2048L26.197 23.5953Z" fill="#F89F46"/>
    <path d="M44.6481 24.1671C43.9175 23.63 43.0099 22.959 42.8904 22.5145C42.7608 22.0287 43.2238 20.9586 43.5984 20.1003C44.2385 18.6267 44.9012 17.1017 44.1665 15.8298C43.4235 14.5414 41.7544 14.3541 40.1429 14.1731C39.2229 14.0701 38.0787 13.9426 37.737 13.5988C37.3932 13.2572 37.2657 12.1129 37.1628 11.1929C36.9817 9.58143 36.7943 7.91438 35.506 7.16932C34.3865 6.519 32.7276 7.08703 31.2355 7.73735C30.4101 8.09546 29.5499 8.43707 28.8193 8.44537C28.3748 8.32806 27.7059 7.41842 27.1666 6.68773C26.2386 5.42828 25.1868 4 23.6679 4C22.1511 4 21.0974 5.42828 20.1692 6.6858C19.63 7.41639 18.961 8.32613 18.3313 8.46601C17.7776 8.46601 16.9256 8.09556 16.1003 7.73745C14.6041 7.08713 12.9433 6.52527 11.8319 7.16942C10.5415 7.91448 10.3542 9.58153 10.1731 11.193C10.0722 12.113 9.94258 13.2552 9.60087 13.5989C9.25714 13.9427 8.11288 14.0702 7.19494 14.1731C5.58143 14.3542 3.91226 14.5436 3.16932 15.8299C2.43459 17.0997 3.09726 18.6248 3.73735 20.1004C4.11196 20.9587 4.57705 22.0288 4.44739 22.5146C4.32806 22.9591 3.41832 23.6301 2.68976 24.1672C1.42828 25.0954 0 26.1491 0 27.668C0 29.1868 1.42828 30.2406 2.68783 31.1688C3.41842 31.7059 4.32603 32.3769 4.44546 32.8214C4.57512 33.3072 4.11205 34.3773 3.73745 35.2356C3.09735 36.7092 2.43468 38.2342 3.16942 39.5061C3.91236 40.7945 5.58153 40.9818 7.19301 41.1629C8.11297 41.2658 9.25724 41.3933 9.59894 41.7371C9.94267 42.0787 10.0702 43.223 10.1731 44.143C10.3542 45.7545 10.5416 47.4215 11.8299 48.1666C12.9454 48.8149 14.6041 48.2489 16.1004 47.5985C16.9258 47.2404 17.7695 46.8782 18.5166 46.8905C18.9611 47.0078 19.63 47.9175 20.1693 48.6482C21.0974 49.9077 22.1492 51.336 23.668 51.336C25.1849 51.336 26.2386 49.9077 27.1647 48.6502C27.7039 47.9196 28.3728 47.0099 29.0026 46.87C29.5583 46.87 30.4103 47.2404 31.2335 47.5985C32.7319 48.251 34.3906 48.8129 35.502 48.1686C36.7924 47.4235 36.9796 45.7565 37.1608 44.143C37.2616 43.223 37.3913 42.0808 37.733 41.7371C38.0767 41.3933 39.221 41.2658 40.1389 41.1629C41.7524 40.9818 43.4216 40.7924 44.1645 39.5061C44.9013 38.2363 44.2386 36.7112 43.5965 35.2356C43.2219 34.3773 42.7588 33.3092 42.8885 32.8214C43.0078 32.3769 43.9176 31.7059 44.6461 31.1688C45.9077 30.2406 47.3361 29.1868 47.3361 27.668C47.3361 26.1491 45.9076 25.0954 44.6481 24.1671ZM43.4297 29.5079C42.3369 30.3126 41.207 31.1441 40.9024 32.2843C40.5875 33.4656 41.1597 34.7807 41.7133 36.0526C42.0672 36.8676 42.6024 38.0983 42.3883 38.4709C42.164 38.8599 40.8118 39.0122 39.9144 39.113C38.5479 39.2674 37.134 39.4259 36.282 40.2779C35.4299 41.13 35.2714 42.5439 35.1192 43.9104C35.0184 44.8057 34.866 46.1599 34.475 46.3842C34.4153 46.4193 34.3165 46.4275 34.2445 46.4275C33.7094 46.4275 32.8697 46.0612 32.0568 45.7092C30.7808 45.1556 29.3854 44.604 28.2905 44.9004C27.1483 45.205 26.3168 46.3349 25.5101 47.4277C24.9668 48.1645 24.1456 49.278 23.6681 49.278C23.1907 49.278 22.3674 48.1646 21.8262 47.4277C21.0215 46.3369 20.19 45.207 19.0478 44.9024C18.8235 44.8427 18.5827 44.8118 18.3295 44.8118C17.3478 44.8118 16.2962 45.2687 15.2794 45.7133C14.4686 46.0652 13.6289 46.4315 13.0917 46.4315C13.0197 46.4315 12.9209 46.4233 12.8613 46.3883C12.4703 46.1619 12.32 44.8097 12.2191 43.9144C12.0648 42.5479 11.9063 41.134 11.0542 40.282C10.2042 39.4299 8.78828 39.2714 7.42174 39.1171C6.5285 39.0162 5.17432 38.8639 4.95002 38.4749C4.73392 38.1045 5.27108 36.8716 5.62504 36.0566C6.17869 34.7847 6.75078 33.4696 6.43589 32.2883C6.1292 31.1481 4.99931 30.3167 3.90859 29.5119C3.17183 28.9666 2.05834 28.1454 2.05834 27.6679C2.05834 27.1903 3.17173 26.3692 3.90859 25.8238C5.00144 25.0191 6.13133 24.1876 6.43589 23.0474C6.75078 21.8661 6.1786 20.551 5.62504 19.2791C5.2731 18.4641 4.73594 17.2334 4.95002 16.8608C5.17644 16.4718 6.5286 16.3195 7.42387 16.2207C8.7904 16.0663 10.2043 15.9078 11.0564 15.0558C11.9084 14.2037 12.0669 12.7898 12.2213 11.4233C12.3201 10.528 12.4724 9.17586 12.8634 8.94944C12.9231 8.91442 13.0219 8.90622 13.0939 8.90622C13.629 8.90622 14.4687 9.27253 15.2795 9.62658C16.5556 10.1802 17.9489 10.7338 19.0458 10.4354C20.1881 10.1308 21.0196 9.00096 21.8263 7.90811C22.3696 7.17135 23.1908 6.05786 23.6682 6.05786C24.1457 6.05786 24.969 7.17125 25.5123 7.90599C26.317 8.99681 27.1485 10.1267 28.2907 10.4313C29.3774 10.7215 30.781 10.1781 32.057 9.62243C32.8679 9.2705 33.7076 8.90419 34.2447 8.90419C34.3168 8.90419 34.4156 8.91239 34.4752 8.94741C34.8662 9.17383 35.0165 10.526 35.1173 11.4213C35.2717 12.7878 35.4302 14.2017 36.2822 15.0538C37.1323 15.9058 38.5482 16.0643 39.9147 16.2187C40.808 16.3195 42.1622 16.4718 42.3865 16.8608C42.6026 17.2312 42.0654 18.4641 41.7114 19.2791C41.1578 20.551 40.5857 21.8661 40.9006 23.0474C41.2073 24.1876 42.3372 25.019 43.4279 25.8238C44.1646 26.3691 45.2781 27.1903 45.2781 27.6679C45.2781 28.1454 44.1645 28.9667 43.4297 29.5079Z" fill="#F89F46"/>
    <path d="M92.3981 22.314L92.3126 22.545H92.5589H98.7379C100.937 22.545 102.727 24.3346 102.727 26.5339C102.727 27.5545 102.342 28.4866 101.709 29.1931L101.606 29.3075L101.709 29.422C102.342 30.1284 102.727 31.0605 102.727 32.0811C102.727 33.9171 101.479 35.4682 99.787 35.9301L99.6019 35.9806L99.6728 36.1589C99.8536 36.6137 99.9531 37.1094 99.9531 37.6283C99.9531 39.4643 98.7056 41.0154 97.0134 41.4772L96.8283 41.5278L96.8992 41.7061C97.08 42.1608 97.1795 42.6566 97.1795 43.1755C97.1795 45.3748 95.39 47.1644 93.1907 47.1644H84.8699C84.7706 47.1644 84.6716 47.1521 84.5751 47.128L74.8454 44.6956L74.7057 44.6607L74.6471 44.7922C74.0251 46.1887 72.6253 47.1644 71.0019 47.1644H65.2698C64.5987 47.1644 64.0545 46.6202 64.0545 45.9491V44.5623V44.3908H63.883H59.7226C59.0515 44.3908 58.5074 43.8466 58.5074 43.1755V23.7603C58.5074 23.0892 59.0516 22.545 59.7227 22.545H59.7264H59.7303H59.7345H59.7389H59.7437H59.7487H59.754H59.7595H59.7653H59.7714H59.7777H59.7843H59.7912H59.7983H59.8057H59.8134H59.8213H59.8294H59.8379H59.8465H59.8555H59.8647H59.8741H59.8838H59.8937H59.9039H59.9143H59.925H59.936H59.9471H59.9585H59.9702H59.9821H59.9942H60.0066H60.0192H60.0321H60.0452H60.0585H60.0721H60.0859H60.0999H60.1141H60.1286H60.1433H60.1583H60.1734H60.1888H60.2045H60.2203H60.2364H60.2526H60.2691H60.2859H60.3028H60.3199H60.3373H60.3549H60.3727H60.3907H60.4089H60.4274H60.446H60.4649H60.4839H60.5032H60.5226H60.5423H60.5622H60.5823H60.6025H60.623H60.6437H60.6645H60.6856H60.7069H60.7283H60.75H60.7718H60.7938H60.8161H60.8385H60.8611H60.8839H60.9068H60.93H60.9533H60.9768H61.0005H61.0244H61.0485H61.0727H61.0971H61.1217H61.1465H61.1714H61.1965H61.2218H61.2472H61.2729H61.2987H61.3246H61.3507H61.377H61.4035H61.4301H61.4569H61.4838H61.5109H61.5381H61.5656H61.5931H61.6208H61.6487H61.6768H61.7049H61.7333H61.7618H61.7904H61.8192H61.8481H61.8772H61.9064H61.9357H61.9652H61.9949H62.0247H62.0546H62.0846H62.1148H62.1452H62.1756H62.2062H62.237H62.2678H62.2988H62.33H62.3612H62.3926H62.4241H62.4557H62.4875H62.5194H62.5514H62.5835H62.6158H62.6481H62.6806H62.7132H62.7459H62.7787H62.8117H62.8447H62.8779H62.9111H62.9445H62.978H63.0116H63.0453H63.0791H63.113H63.147H63.1811H63.2154H63.2497H63.2841H63.3186H63.3532H63.3879H63.4227H63.4576H63.4926H63.5276H63.5628H63.598H63.6334H63.6688H63.7043H63.7399H63.7755H63.8113H63.8471H63.8831H63.919H63.9551H63.9913H64.0275H64.0638H64.1002H64.1366H64.1731H64.2097H64.2464H64.2831H64.3199H64.3567H64.3937H64.4306H64.4677H64.5048H64.542H64.5792H64.6165H64.6538H64.6912H64.7287H64.7662H64.8038H64.8414H64.879H64.9168H64.9545H64.9923H65.0302H65.0681H65.1061H65.144H65.1821H65.2202H65.2583H65.2964H65.3346H65.3728H65.4111H65.4494H65.4877H65.5261H65.5645H65.6029H65.6414H65.6799H65.7184H65.7569H65.7955H65.8341H65.8727H65.9113H65.95H65.9886H66.0273H66.066H66.1048H66.1435H66.1823H66.221H66.2598H66.2986H66.3374H66.3762H66.415H66.4538H66.4927H66.5315H66.5703H66.6092H66.648H66.6869H66.7257H66.7645H66.8034H66.8422H66.881H66.9199H66.9587H66.9975H67.0363H67.0751H67.1138H67.1526H67.1913H67.2301H67.2688H67.3075H67.3462H67.3848H67.4235H67.4621H67.5007H67.5393H67.5778H67.6163H67.6548H67.6933H67.7317H67.7701H67.8085H67.8469H67.8852H67.9235H67.9617H67.9999H68.0381H68.0762H68.1143H68.1524H68.1904H68.2283H68.2663H68.3041H68.342H68.3798H68.4175H68.4552H68.4928H68.5304H68.568H68.6054H68.6429H68.6802H68.7175H68.7548H68.792H68.8291H68.8662H68.9032H68.9402H68.9771H69.0139H69.0506H69.0873H69.1239H69.1605H69.1969H69.2334H69.2697H69.3059H69.3421H69.3782H69.4143H69.4502H69.4861H69.5219H69.5576H69.5932H69.6288H69.6642H69.6996H69.7349H69.7701H69.8052H69.8402H69.8751H69.91H69.9447H69.9793H70.0139H70.0483H70.0827H70.117H70.1511H70.1852H70.2191H70.253H70.2867H70.3204H70.3539H70.3873H70.4206H70.4539H70.487H70.5199H70.5528H70.5856H70.6182H70.6508H70.6832H70.7155H70.7476H70.7797H70.8116H70.8434H70.8751H70.9067H70.9381H70.9694H71.0006H71.0317H71.0626H71.0934H71.1241H71.1546H71.185H71.2152H71.2453H71.2753H71.3052H71.3349H71.3644H71.3939H71.4231H71.4523H71.4813H71.5101H71.5388H71.5674H71.5958H71.624H71.6521H71.6801H71.7078H71.7355H71.763H71.7903H71.8174H71.8445H71.8713H71.898H71.9245H71.9509H71.9771H72.0031H72.029H72.0546H72.0802H72.1055H72.1307H72.1557H72.1806H72.2052H72.2297H72.254H72.2782H72.3021H72.3259H72.3495H72.3729H72.3962H72.4192H72.4421H72.4648H72.4872H72.5095H72.5317H72.5536H72.5753H72.5969H72.6182H72.6394H72.6603H72.6811H72.7016H72.722H72.7422H72.7621H72.7819H72.8014H72.8208H72.8399H72.8589H72.8776H72.8961H72.9144H72.9325H72.9504H72.9681H72.9856H73.0028H73.0199H73.0367H73.0533H73.0697H73.0858H73.1018H73.1175H73.133H73.1482H73.1633H73.1781H73.1927H73.207H73.2211H73.235H73.2487H73.2621H73.2753H73.2883H73.301H73.3135H73.3257H73.3377H73.3495H73.361H73.3723H73.3833H73.3941H73.4047H73.415H73.425H73.4348H73.4444H73.4537H73.4627H73.4715H73.48H73.4883H73.4963H73.5041H73.5116H73.5189H73.5258H73.5326H73.539H73.5452H73.5511H73.5568H73.5622H73.5673H73.5722H73.5767H73.5811H73.5851H73.5889H73.6121L73.6346 22.5388C74.6208 22.2661 79.6141 20.8569 82.1613 19.58L82.1613 19.58C82.7575 19.2811 83.3185 18.7296 83.8231 18.0335C84.3292 17.3353 84.7866 16.4805 85.1714 15.5595C85.9402 13.7197 86.4282 11.5951 86.4282 9.89235C86.4282 9.22119 86.9723 8.67706 87.6435 8.67706C89.4867 8.67706 91.234 9.47779 92.4373 10.8739L92.5673 10.762L92.4373 10.8739C93.6443 12.2743 94.1801 14.1271 93.9071 15.9578C93.6302 17.8161 93.1575 20.2608 92.3981 22.314ZM63.8829 41.9602H64.0544V41.7887V25.1471V24.9756H63.8829H61.1093H60.9378V25.1471V41.7887V41.9602H61.1093H63.8829ZM66.485 44.5623V44.7338H66.6565H71.0018C71.8612 44.7338 72.5601 44.0349 72.5601 43.1755V25.1471V24.9756H72.3886H66.6565H66.485V25.1471V44.5623ZM84.9991 44.7287L85.0195 44.7338H85.0406H93.1907C94.0501 44.7338 94.749 44.0349 94.749 43.1755C94.749 42.3161 94.0501 41.6172 93.1907 41.6172H90.4171C89.7459 41.6172 89.2018 41.073 89.2018 40.4019C89.2018 39.7307 89.7459 39.1866 90.4171 39.1866H90.4206H90.4241H90.4278H90.4315H90.4354H90.4393H90.4433H90.4474H90.4515H90.4558H90.4601H90.4645H90.469H90.4736H90.4783H90.483H90.4879H90.4928H90.4978H90.5028H90.508H90.5132H90.5185H90.5239H90.5294H90.5349H90.5405H90.5462H90.552H90.5579H90.5638H90.5698H90.5759H90.582H90.5883H90.5946H90.6009H90.6074H90.6139H90.6205H90.6272H90.634H90.6408H90.6477H90.6546H90.6617H90.6688H90.6759H90.6832H90.6905H90.6979H90.7054H90.7129H90.7205H90.7281H90.7359H90.7437H90.7515H90.7595H90.7675H90.7755H90.7836H90.7918H90.8001H90.8084H90.8168H90.8253H90.8338H90.8424H90.851H90.8597H90.8685H90.8773H90.8862H90.8952H90.9042H90.9133H90.9224H90.9316H90.9409H90.9502H90.9596H90.969H90.9785H90.9881H90.9977H91.0074H91.0171H91.0269H91.0367H91.0466H91.0566H91.0666H91.0766H91.0868H91.0969H91.1072H91.1174H91.1278H91.1382H91.1486H91.1591H91.1696H91.1802H91.1909H91.2016H91.2123H91.2231H91.234H91.2449H91.2558H91.2668H91.2779H91.289H91.3001H91.3113H91.3225H91.3338H91.3451H91.3565H91.3679H91.3794H91.3909H91.4025H91.4141H91.4257H91.4374H91.4492H91.4609H91.4728H91.4846H91.4965H91.5085H91.5205H91.5325H91.5446H91.5567H91.5689H91.5811H91.5933H91.6056H91.6179H91.6302H91.6426H91.655H91.6675H91.68H91.6925H91.7051H91.7177H91.7304H91.7431H91.7558H91.7685H91.7813H91.7941H91.807H91.8199H91.8328H91.8457H91.8587H91.8718H91.8848H91.8979H91.911H91.9241H91.9373H91.9505H91.9638H91.977H91.9903H92.0036H92.017H92.0304H92.0438H92.0572H92.0707H92.0841H92.0977H92.1112H92.1248H92.1384H92.152H92.1656H92.1793H92.193H92.2067H92.2204H92.2342H92.248H92.2618H92.2756H92.2894H92.3033H92.3172H92.3311H92.345H92.359H92.3729H92.3869H92.4009H92.415H92.429H92.4431H92.4572H92.4713H92.4854H92.4995H92.5136H92.5278H92.542H92.5562H92.5704H92.5846H92.5989H92.6131H92.6274H92.6417H92.6559H92.6702H92.6846H92.6989H92.7132H92.7276H92.7419H92.7563H92.7707H92.7851H92.7995H92.8139H92.8283H92.8427H92.8572H92.8716H92.8861H92.9005H92.915H92.9295H92.9439H92.9584H92.9729H92.9874H93.0019H93.0164H93.0309H93.0454H93.0599H93.0745H93.089H93.1035H93.118H93.1326H93.1471H93.1616H93.1761H93.1907H93.2052H93.2197H93.2343H93.2488H93.2633H93.2778H93.2924H93.3069H93.3214H93.3359H93.3504H93.3649H93.3794H93.3939H93.4084H93.4229H93.4374H93.4519H93.4663H93.4808H93.4953H93.5097H93.5242H93.5386H93.553H93.5674H93.5818H93.5962H93.6106H93.625H93.6394H93.6538H93.6681H93.6824H93.6968H93.7111H93.7254H93.7397H93.754H93.7682H93.7825H93.7967H93.8109H93.8251H93.8393H93.8535H93.8677H93.8818H93.896H93.9101H93.9242H93.9383H93.9523H93.9664H93.9804H93.9944H94.0084H94.0224H94.0363H94.0502H94.0641H94.078H94.0919H94.1058H94.1196H94.1334H94.1472H94.1609H94.1747H94.1884H94.2021H94.2157H94.2294H94.243H94.2566H94.2701H94.2837H94.2972H94.3107H94.3241H94.3376H94.351H94.3643H94.3777H94.391H94.4043H94.4176H94.4308H94.444H94.4572H94.4703H94.4834H94.4965H94.5096H94.5226H94.5356H94.5485H94.5615H94.5743H94.5872H94.6H94.6128H94.6256H94.6383H94.651H94.6636H94.6762H94.6888H94.7013H94.7138H94.7263H94.7387H94.7511H94.7635H94.7758H94.788H94.8003H94.8125H94.8246H94.8367H94.8488H94.8608H94.8728H94.8848H94.8967H94.9086H94.9204H94.9322H94.9439H94.9556H94.9672H94.9788H94.9904H95.0019H95.0134H95.0248H95.0362H95.0475H95.0588H95.07H95.0812H95.0924H95.1035H95.1145H95.1255H95.1365H95.1474H95.1582H95.169H95.1798H95.1905H95.2011H95.2117H95.2222H95.2327H95.2432H95.2536H95.2639H95.2742H95.2844H95.2946H95.3047H95.3148H95.3248H95.3347H95.3446H95.3545H95.3642H95.374H95.3836H95.3932H95.4028H95.4123H95.4217H95.4311H95.4404H95.4497H95.4589H95.468H95.4771H95.4861H95.4951H95.504H95.5128H95.5216H95.5303H95.5389H95.5475H95.556H95.5645H95.5729H95.5812H95.5895H95.5977H95.6058H95.6139H95.6219H95.6298H95.6377H95.6455H95.6532H95.6609H95.6685H95.676H95.6834H95.6908H95.6981H95.7054H95.7126H95.7197H95.7267H95.7337H95.7406H95.7474H95.7541H95.7608H95.7674H95.7739H95.7804H95.7868H95.7931H95.7993H95.8055H95.8115H95.8175H95.8235H95.8293H95.8351H95.8408H95.8464H95.852H95.8574H95.8628H95.8681H95.8733H95.8785H95.8836H95.8886H95.8935H95.8983H95.903H95.9077H95.9123H95.9168H95.9212H95.9255H95.9298H95.934H95.938H95.942H95.946H95.9498H95.9535H95.9572H95.9608H95.9643C96.8237 39.1866 97.5226 38.4877 97.5226 37.6283C97.5226 36.7689 96.8237 36.07 95.9643 36.07H90.4171C89.7459 36.07 89.2018 35.5259 89.2018 34.8547C89.2018 34.1835 89.7459 33.6394 90.4171 33.6394H90.4221H90.4273H90.4327H90.4381H90.4437H90.4494H90.4552H90.4612H90.4672H90.4734H90.4798H90.4862H90.4928H90.4994H90.5062H90.5132H90.5202H90.5274H90.5347H90.5421H90.5496H90.5572H90.565H90.5728H90.5808H90.5889H90.5971H90.6054H90.6139H90.6224H90.6311H90.6399H90.6488H90.6578H90.6669H90.6761H90.6854H90.6949H90.7044H90.7141H90.7238H90.7337H90.7437H90.7538H90.764H90.7743H90.7847H90.7952H90.8058H90.8165H90.8273H90.8382H90.8493H90.8604H90.8716H90.8829H90.8944H90.9059H90.9175H90.9292H90.9411H90.953H90.965H90.9771H90.9893H91.0016H91.014H91.0265H91.0391H91.0518H91.0645H91.0774H91.0904H91.1034H91.1165H91.1298H91.1431H91.1565H91.17H91.1836H91.1973H91.211H91.2249H91.2388H91.2529H91.267H91.2812H91.2955H91.3098H91.3243H91.3388H91.3534H91.3681H91.3829H91.3978H91.4127H91.4277H91.4428H91.458H91.4733H91.4886H91.504H91.5195H91.5351H91.5508H91.5665H91.5823H91.5982H91.6141H91.6301H91.6462H91.6624H91.6787H91.695H91.7114H91.7278H91.7444H91.7609H91.7776H91.7944H91.8112H91.828H91.845H91.862H91.8791H91.8962H91.9134H91.9307H91.948H91.9654H91.9829H92.0004H92.018H92.0357H92.0534H92.0712H92.089H92.1069H92.1249H92.1429H92.161H92.1791H92.1973H92.2156H92.2339H92.2523H92.2707H92.2892H92.3077H92.3263H92.3449H92.3636H92.3824H92.4012H92.42H92.4389H92.4579H92.4769H92.4959H92.515H92.5342H92.5534H92.5726H92.5919H92.6113H92.6307H92.6501H92.6696H92.6891H92.7087H92.7283H92.748H92.7677H92.7874H92.8072H92.8271H92.8469H92.8669H92.8868H92.9068H92.9268H92.9469H92.967H92.9872H93.0074H93.0276H93.0479H93.0681H93.0885H93.1088H93.1292H93.1497H93.1702H93.1907H93.2112H93.2318H93.2524H93.273H93.2936H93.3143H93.3351H93.3558H93.3766H93.3974H93.4182H93.4391H93.46H93.4809H93.5018H93.5228H93.5438H93.5648H93.5858H93.6069H93.6279H93.6491H93.6702H93.6913H93.7125H93.7337H93.7549H93.7761H93.7974H93.8186H93.8399H93.8612H93.8825H93.9039H93.9252H93.9466H93.9679H93.9893H94.0107H94.0322H94.0536H94.0751H94.0965H94.118H94.1395H94.1609H94.1824H94.204H94.2255H94.247H94.2685H94.2901H94.3116H94.3332H94.3548H94.3763H94.3979H94.4195H94.4411H94.4627H94.4842H94.5058H94.5274H94.549H94.5706H94.5922H94.6138H94.6354H94.657H94.6786H94.7002H94.7218H94.7434H94.765H94.7866H94.8081H94.8297H94.8513H94.8728H94.8944H94.916H94.9375H94.959H94.9806H95.0021H95.0236H95.0451H95.0666H95.0881H95.1095H95.131H95.1524H95.1739H95.1953H95.2167H95.2381H95.2595H95.2808H95.3022H95.3235H95.3448H95.3661H95.3874H95.4087H95.4299H95.4511H95.4723H95.4935H95.5147H95.5358H95.557H95.5781H95.5991H95.6202H95.6412H95.6622H95.6832H95.7042H95.7251H95.746H95.7669H95.7878H95.8086H95.8294H95.8502H95.8709H95.8917H95.9123H95.933H95.9536H95.9742H95.9948H96.0153H96.0358H96.0563H96.0767H96.0971H96.1175H96.1378H96.1581H96.1784H96.1986H96.2188H96.2389H96.259H96.2791H96.2991H96.3191H96.3391H96.359H96.3789H96.3987H96.4185H96.4382H96.4579H96.4776H96.4972H96.5168H96.5363H96.5558H96.5752H96.5946H96.614H96.6333H96.6525H96.6717H96.6909H96.71H96.729H96.748H96.767H96.7859H96.8047H96.8235H96.8423H96.861H96.8796H96.8982H96.9167H96.9352H96.9536H96.972H96.9903H97.0085H97.0267H97.0448H97.0629H97.0809H97.0989H97.1168H97.1346H97.1524H97.1701H97.1878H97.2054H97.2229H97.2403H97.2577H97.2751H97.2924H97.3096H97.3267H97.3438H97.3608H97.3777H97.3946H97.4114H97.4281H97.4448H97.4614H97.4779H97.4944H97.5107H97.5271H97.5433H97.5595H97.5756H97.5916H97.6075H97.6234H97.6392H97.6549H97.6706H97.6861H97.7016H97.717H97.7324H97.7476H97.7628H97.7779H97.7929H97.8079H97.8227H97.8375H97.8522H97.8668H97.8813H97.8958H97.9101H97.9244H97.9386H97.9527H97.9667H97.9807H97.9945H98.0083H98.0219H98.0355H98.049H98.0624H98.0758H98.089H98.1021H98.1152H98.1281H98.141H98.1537H98.1664H98.179H98.1915H98.2039H98.2162H98.2284H98.2405H98.2525H98.2644H98.2762H98.2879H98.2995H98.3111H98.3225H98.3338H98.345H98.3561H98.3671H98.3781H98.3889H98.3996H98.4102H98.4207H98.4311H98.4414H98.4516H98.4616H98.4716H98.4815H98.4912H98.5009H98.5104H98.5199H98.5292H98.5384H98.5475H98.5565H98.5654H98.5742H98.5828H98.5914H98.5998H98.6081H98.6163H98.6244H98.6324H98.6402H98.648H98.6556H98.6631H98.6705H98.6778H98.6849H98.692H98.6989H98.7057H98.7124H98.7189H98.7254H98.7317H98.7379C99.5973 33.6394 100.296 32.9405 100.296 32.0811C100.296 31.2217 99.5973 30.5228 98.7379 30.5228H90.4171C89.7459 30.5228 89.2018 29.9787 89.2018 29.3075C89.2018 28.6363 89.7459 28.0922 90.4171 28.0922H98.7379C99.5973 28.0922 100.296 27.3933 100.296 26.5339C100.296 25.6745 99.5973 24.9756 98.7379 24.9756H90.4171C89.9959 24.9756 89.6047 24.7574 89.3833 24.3991C89.1618 24.0409 89.1417 23.5935 89.3301 23.2168C90.0139 21.8492 90.8436 20.0235 91.5032 15.5994C91.6718 14.4691 91.3414 13.325 90.5964 12.4609C90.1571 11.9513 89.6001 11.5704 88.983 11.3447L88.7802 11.2705L88.7538 11.4848C88.5253 13.344 87.9274 15.5263 86.993 17.4393C86.0567 19.3562 84.7943 20.9789 83.2505 21.7529C80.9418 22.9103 76.9884 24.1093 75.115 24.6472L74.9908 24.6829V24.8121V42.0928V42.2267L75.1207 42.2591L84.9991 44.7287Z" fill="#F89F46" stroke="white" stroke-width="0.343015"/>
    <path d="M87.816 1.3868C87.816 0.715636 88.3602 0.171507 89.0313 0.171507C89.7025 0.171507 90.2466 0.715636 90.2466 1.3868V4.3453C90.2466 5.01646 89.7025 5.56059 89.0313 5.56059C88.3602 5.56059 87.816 5.01646 87.816 4.3453V1.3868Z" fill="#F89F46" stroke="white" stroke-width="0.343015"/>
    <path d="M79.1016 5.18035L79.1016 5.18036L81.0628 7.14157C81.5374 7.61618 81.5374 8.38562 81.0628 8.86023L81.0628 8.86024C80.5883 9.33484 79.8187 9.33484 79.3442 8.86024L79.3441 8.86023L77.3829 6.89902C76.9083 6.42441 76.9083 5.65497 77.3829 5.18036C77.8576 4.70574 78.6271 4.70576 79.1016 5.18035Z" fill="#F89F46" stroke="white" stroke-width="0.343015"/>
    <path d="M73.7755 15.6112H76.5491C77.2202 15.6112 77.7644 16.1553 77.7644 16.8265C77.7644 17.4977 77.2202 18.0418 76.5491 18.0418H73.7755C73.1043 18.0418 72.5602 17.4977 72.5602 16.8265C72.5602 16.1553 73.1043 15.6112 73.7755 15.6112Z" fill="#F89F46" stroke="white" stroke-width="0.343015"/>
    <path d="M101.512 15.6112H104.285C104.957 15.6112 105.501 16.1553 105.501 16.8265C105.501 17.4977 104.957 18.0418 104.285 18.0418H101.512C100.841 18.0418 100.297 17.4977 100.297 16.8265C100.297 16.1553 100.841 15.6112 101.512 15.6112Z" fill="#F89F46" stroke="white" stroke-width="0.343015"/>
    <path d="M100.676 5.18035L100.676 5.18036C101.151 5.65497 101.151 6.42441 100.676 6.89902L98.7149 8.86023L98.7149 8.86024C98.2404 9.33484 97.4707 9.33484 96.9962 8.86024L96.9962 8.86023C96.5216 8.38562 96.5216 7.61618 96.9962 7.14157L98.9574 5.18036C99.432 4.70574 100.202 4.70576 100.676 5.18035Z" fill="#F89F46" stroke="white" stroke-width="0.343015"/>
    <path d="M171.414 48.4316L171.423 49.3765V48.4316H171.414Z" fill="#F89F46"/>
    <path d="M210.69 4.83349C211.177 4.63719 211.413 4.08312 211.217 3.59594C211.02 3.10876 210.466 2.87286 209.979 3.06915C204.126 5.377 202.721 10.8958 202.395 13.1033C200.249 13.1714 198.213 14.071 196.717 15.6118C195.171 17.1628 194.323 19.2759 194.367 21.4651C194.418 24.8098 193.682 29.459 187.469 36.2153C183.464 40.5133 177.368 44.1841 173.739 46.3665C170.57 48.273 170.001 48.6158 170.26 49.5524C170.414 50.0586 170.905 50.3848 171.431 50.33C176.256 50.33 188.422 49.6025 197.102 42.8462C205.923 35.9812 210.982 28.1545 210.982 21.3648C210.981 20.9842 210.953 20.6042 210.899 20.2275C210.406 16.7458 207.773 13.9521 204.326 13.2538C204.627 11.3389 205.873 6.73151 210.69 4.83349ZM195.931 41.3493C189.016 46.726 179.659 48.0388 174.107 48.3565L174.717 47.9886C178.438 45.7476 184.676 41.9932 188.932 37.4026C195.622 30.1613 196.391 25.0188 196.333 21.3396C196.333 21.2309 196.333 21.1222 196.333 21.0135C197.712 21.2894 199.268 21.8496 199.594 22.435C199.833 22.8988 200.403 23.081 200.866 22.8419C200.932 22.8082 200.993 22.767 201.049 22.7193C201.923 21.9912 202.905 21.4018 203.958 20.9716C204.677 21.5203 205.232 22.2547 205.564 23.0955C205.657 23.4202 205.914 23.6715 206.241 23.7561C206.319 23.7663 206.398 23.7663 206.475 23.7561C206.734 23.7557 206.982 23.65 207.161 23.4635C207.746 22.8648 208.391 22.3269 209.084 21.858C208.775 27.9204 203.925 35.1365 195.931 41.3493ZM207.158 16.7871C208.008 17.6221 208.608 18.6774 208.892 19.8345C208.117 20.227 207.395 20.7159 206.743 21.2895C206.176 20.4544 205.465 19.7268 204.644 19.1405C204.415 18.9822 204.127 18.9331 203.858 19.0067C202.657 19.3726 201.527 19.9379 200.513 20.6791C199.367 19.8703 198.047 19.3432 196.659 19.1405C196.965 18.2876 197.452 17.5115 198.088 16.8661C200.571 14.3397 204.632 14.3044 207.158 16.7871Z" fill="#F89F46"/>
    <path d="M250.607 32.177L250.723 32.65L250.929 32.209C251.569 30.8414 252.422 29.5276 253.558 28.3922C256.177 25.7728 259.744 24.6547 262.721 24.199C265.694 23.7437 268.056 23.9531 268.241 23.9708C268.848 24.0288 269.328 24.509 269.386 25.1157C269.404 25.3011 269.613 27.6628 269.158 30.6365C268.702 33.6128 267.584 37.1799 264.965 39.7991C261.006 43.7584 254.885 44.2839 251.937 44.2839C251.554 44.2839 250.971 44.2889 250.33 44.2944L250.121 44.2962C249.399 44.3023 248.626 44.3085 247.997 44.3086C246.614 44.3086 244.726 44.2302 242.606 43.9261C236.847 43.1005 232.133 40.9791 228.96 37.8056L228.838 37.9269L228.96 37.8056C225.786 34.6323 223.665 29.9178 222.839 24.1597C222.225 19.8742 222.532 16.5378 222.545 16.4047L222.545 16.4046C222.603 15.7979 223.083 15.3177 223.69 15.2597L223.69 15.2596C223.823 15.2468 227.159 14.9394 231.445 15.554L231.469 15.3843L231.445 15.554C237.203 16.3797 241.917 18.5011 245.091 21.6745C247.665 24.2492 249.548 27.8381 250.607 32.177ZM246.809 41.7418L247.243 41.7564L246.936 41.4491L236.126 30.6394C235.629 30.1427 235.629 29.3375 236.126 28.841C236.623 28.3444 237.428 28.3444 237.924 28.8409L248.73 39.6463L249.037 39.9541L249.022 39.5191C248.877 35.3432 247.913 28.0941 243.292 23.4731C240.522 20.7024 236.819 19.2468 233.406 18.4934C229.991 17.7396 226.849 17.6853 225.183 17.7288L225.02 17.733L225.016 17.896C224.975 19.5624 225.032 22.7079 225.786 26.1251C226.54 29.5406 227.994 33.2433 230.758 36.0073C235.392 40.6415 242.637 41.6013 246.809 41.7418ZM253.802 41.3533L253.47 41.6858L253.938 41.6455C256.699 41.4077 260.578 40.5891 263.167 38.0008C264.852 36.3151 265.786 34.0829 266.298 31.974C266.811 29.8639 266.905 27.8637 266.9 26.6276L266.9 26.4573L266.729 26.4567C265.493 26.452 263.493 26.5456 261.383 27.0582C259.274 27.5705 257.042 28.5046 255.356 30.1905C252.756 32.7902 251.94 36.667 251.706 39.4246L251.666 39.8923L251.998 39.5604L258.362 33.1964C258.859 32.6999 259.664 32.6999 260.161 33.1964C260.657 33.6931 260.657 34.4983 260.161 34.9948L260.282 35.1161L260.161 34.9949L253.802 41.3533Z" fill="#F89F46" stroke="white" stroke-width="0.343015"/>
    <path d="M325.269 24.1671C324.539 23.63 323.631 22.959 323.512 22.5145C323.382 22.0287 323.845 20.9586 324.22 20.1003C324.86 18.6267 325.522 17.1017 324.788 15.8298C324.045 14.5414 322.375 14.3541 320.764 14.1731C319.844 14.0701 318.7 13.9426 318.358 13.5988C318.014 13.2572 317.887 12.1129 317.784 11.1929C317.603 9.58143 317.415 7.91438 316.127 7.16932C315.008 6.519 313.349 7.08703 311.857 7.73735C311.031 8.09546 310.171 8.43707 309.44 8.44537C308.996 8.32806 308.327 7.41842 307.788 6.68773C306.86 5.42828 305.808 4 304.289 4C302.772 4 301.719 5.42828 300.79 6.6858C300.251 7.41639 299.582 8.32613 298.952 8.46601C298.399 8.46601 297.547 8.09556 296.721 7.73745C295.225 7.08713 293.564 6.52527 292.453 7.16942C291.163 7.91448 290.975 9.58153 290.794 11.193C290.693 12.113 290.564 13.2552 290.222 13.5989C289.878 13.9427 288.734 14.0702 287.816 14.1731C286.203 14.3542 284.533 14.5436 283.79 15.8299C283.056 17.0997 283.718 18.6248 284.358 20.1004C284.733 20.9587 285.198 22.0288 285.068 22.5146C284.949 22.9591 284.039 23.6301 283.311 24.1672C282.049 25.0954 280.621 26.1491 280.621 27.668C280.621 29.1868 282.049 30.2406 283.309 31.1688C284.04 31.7059 284.947 32.3769 285.067 32.8214C285.196 33.3072 284.733 34.3773 284.359 35.2356C283.718 36.7092 283.056 38.2342 283.791 39.5061C284.533 40.7945 286.203 40.9818 287.814 41.1629C288.734 41.2658 289.878 41.3933 290.22 41.7371C290.564 42.0787 290.691 43.223 290.794 44.143C290.975 45.7545 291.163 47.4215 292.451 48.1666C293.566 48.8149 295.225 48.2489 296.722 47.5985C297.547 47.2404 298.391 46.8782 299.138 46.8905C299.582 47.0078 300.251 47.9175 300.79 48.6482C301.719 49.9077 302.77 51.336 304.289 51.336C305.806 51.336 306.86 49.9077 307.786 48.6502C308.325 47.9196 308.994 47.0099 309.624 46.87C310.179 46.87 311.031 47.2404 311.855 47.5985C313.353 48.251 315.012 48.8129 316.123 48.1686C317.413 47.4235 317.601 45.7565 317.782 44.143C317.883 43.223 318.012 42.0808 318.354 41.7371C318.698 41.3933 319.842 41.2658 320.76 41.1629C322.374 40.9818 324.043 40.7924 324.786 39.5061C325.522 38.2363 324.86 36.7112 324.218 35.2356C323.843 34.3773 323.38 33.3092 323.51 32.8214C323.629 32.3769 324.539 31.7059 325.267 31.1688C326.529 30.2406 327.957 29.1868 327.957 27.668C327.957 26.1491 326.529 25.0954 325.269 24.1671ZM324.051 29.5079C322.958 30.3126 321.828 31.1441 321.524 32.2843C321.209 33.4656 321.781 34.7807 322.334 36.0526C322.688 36.8676 323.223 38.0983 323.009 38.4709C322.785 38.8599 321.433 39.0122 320.536 39.113C319.169 39.2674 317.755 39.4259 316.903 40.2779C316.051 41.13 315.892 42.5439 315.74 43.9104C315.639 44.8057 315.487 46.1599 315.096 46.3842C315.036 46.4193 314.938 46.4275 314.866 46.4275C314.331 46.4275 313.491 46.0612 312.678 45.7092C311.402 45.1556 310.006 44.604 308.912 44.9004C307.769 45.205 306.938 46.3349 306.131 47.4277C305.588 48.1645 304.767 49.278 304.289 49.278C303.812 49.278 302.988 48.1646 302.447 47.4277C301.643 46.3369 300.811 45.207 299.669 44.9024C299.445 44.8427 299.204 44.8118 298.951 44.8118C297.969 44.8118 296.917 45.2687 295.901 45.7133C295.09 46.0652 294.25 46.4315 293.713 46.4315C293.641 46.4315 293.542 46.4233 293.482 46.3883C293.091 46.1619 292.941 44.8097 292.84 43.9144C292.686 42.5479 292.527 41.134 291.675 40.282C290.825 39.4299 289.409 39.2714 288.043 39.1171C287.15 39.0162 285.795 38.8639 285.571 38.4749C285.355 38.1045 285.892 36.8716 286.246 36.0566C286.8 34.7847 287.372 33.4696 287.057 32.2883C286.75 31.1481 285.62 30.3167 284.53 29.5119C283.793 28.9666 282.679 28.1454 282.679 27.6679C282.679 27.1903 283.793 26.3692 284.53 25.8238C285.623 25.0191 286.752 24.1876 287.057 23.0474C287.372 21.8661 286.8 20.551 286.246 19.2791C285.894 18.4641 285.357 17.2334 285.571 16.8608C285.798 16.4718 287.15 16.3195 288.045 16.2207C289.411 16.0663 290.825 15.9078 291.677 15.0558C292.529 14.2037 292.688 12.7898 292.842 11.4233C292.941 10.528 293.093 9.17586 293.484 8.94944C293.544 8.91442 293.643 8.90622 293.715 8.90622C294.25 8.90622 295.09 9.27253 295.901 9.62658C297.177 10.1802 298.57 10.7338 299.667 10.4354C300.809 10.1308 301.641 9.00096 302.447 7.90811C302.991 7.17135 303.812 6.05786 304.289 6.05786C304.767 6.05786 305.59 7.17125 306.133 7.90599C306.938 8.99681 307.77 10.1267 308.912 10.4313C309.998 10.7215 311.402 10.1781 312.678 9.62243C313.489 9.2705 314.329 8.90419 314.866 8.90419C314.938 8.90419 315.037 8.91239 315.096 8.94741C315.487 9.17383 315.638 10.526 315.738 11.4213C315.893 12.7878 316.051 14.2017 316.903 15.0538C317.753 15.9058 319.169 16.0643 320.536 16.2187C321.429 16.3195 322.783 16.4718 323.008 16.8608C323.224 17.2312 322.686 18.4641 322.333 19.2791C321.779 20.551 321.207 21.8661 321.522 23.0474C321.828 24.1876 322.958 25.019 324.049 25.8238C324.786 26.3691 325.899 27.1903 325.899 27.6679C325.899 28.1454 324.786 28.9667 324.051 29.5079Z" fill="#F89F46"/>
    <path d="M314.871 18.2899C314.343 17.7618 313.486 17.7618 312.958 18.2899L295.107 36.1411C294.579 36.6693 294.579 37.5256 295.107 38.0537C295.371 38.3178 295.717 38.4499 296.063 38.4499C296.409 38.4499 296.756 38.3179 297.02 38.0537L314.871 20.2026C315.399 19.6744 315.399 18.8181 314.871 18.2899Z" fill="#F89F46"/>
    <path d="M299.58 16C296.846 16 294.621 18.2246 294.621 20.9589C294.621 23.6933 296.846 25.9179 299.58 25.9179C302.314 25.9179 304.539 23.6933 304.539 20.9589C304.539 18.2246 302.314 16 299.58 16ZM299.58 23.2129C298.337 23.2129 297.326 22.2018 297.326 20.9588C297.326 19.716 298.337 18.7048 299.58 18.7048C300.823 18.7048 301.834 19.716 301.834 20.9588C301.834 22.2018 300.823 23.2129 299.58 23.2129Z" fill="#F89F46"/>
    <path d="M310.4 30.4258C307.666 30.4258 305.441 32.6504 305.441 35.3848C305.441 38.1191 307.666 40.3437 310.4 40.3437C313.135 40.3437 315.359 38.1191 315.359 35.3848C315.359 32.6504 313.135 30.4258 310.4 30.4258ZM310.4 37.6388C309.157 37.6388 308.146 36.6276 308.146 35.3848C308.146 34.1419 309.157 33.1308 310.4 33.1308C311.643 33.1308 312.654 34.1419 312.654 35.3848C312.654 36.6276 311.643 37.6388 310.4 37.6388Z" fill="#F89F46"/>
    <path d="M132.31 39.9979C128.995 38.8625 126.109 36.7362 124.042 33.9067C123.889 33.6923 123.634 33.576 123.372 33.602C123.11 33.628 122.882 33.7923 122.775 34.0326C122.667 34.2729 122.697 34.5523 122.852 34.7646C125.097 37.8397 128.233 40.1508 131.834 41.385C132.217 41.5154 132.633 41.3113 132.764 40.9287C132.895 40.5462 132.692 40.1297 132.31 39.9979Z" fill="#F89F46" stroke="#F89F46" stroke-width="0.5"/>
    <path d="M141.223 14.1664C141.223 15.3258 141.688 16.4368 142.512 17.2516C142.799 17.5348 143.261 17.5335 143.546 17.2483C143.831 16.9632 143.833 16.5015 143.549 16.2146C142.999 15.6751 142.689 14.9369 142.689 14.1664C142.689 13.3959 142.999 12.6578 143.549 12.1183C145.315 10.3526 144.489 7.62126 142.816 5.94797C142.529 5.66472 142.068 5.66609 141.782 5.95123C141.497 6.23629 141.496 6.69803 141.779 6.98498C142.95 8.15553 143.605 9.98918 142.512 11.0814C141.688 11.896 141.223 13.007 141.223 14.1664Z" fill="#F89F46" stroke="#F89F46" stroke-width="0.5"/>
    <path d="M133.154 17.8331C133.155 18.9925 133.619 20.1035 134.444 20.9183C134.731 21.2015 135.193 21.2001 135.478 20.915C135.763 20.63 135.764 20.1682 135.481 19.8813C134.931 19.3418 134.621 18.6036 134.621 17.8331C134.621 17.0626 134.931 16.3245 135.481 15.785C137.247 14.0193 136.421 11.2879 134.748 9.61465C134.461 9.3314 133.999 9.33278 133.714 9.61792C133.429 9.90306 133.427 10.3647 133.711 10.6517C134.881 11.8222 135.536 13.6559 134.444 14.748C133.619 15.5627 133.155 16.6737 133.154 17.8331Z" fill="#F89F46" stroke="#F89F46" stroke-width="0.5"/>
    <path d="M125.473 13.4331C125.473 14.5925 125.938 15.7035 126.762 16.5183C126.947 16.7055 127.218 16.7793 127.472 16.7117C127.727 16.6442 127.925 16.4456 127.993 16.1914C128.06 15.9372 127.986 15.6662 127.799 15.4814C127.249 14.9418 126.939 14.2037 126.939 13.4332C126.939 12.6627 127.249 11.9246 127.799 11.3851C129.565 9.61939 128.739 6.88804 127.066 5.21475C126.779 4.9315 126.317 4.93288 126.032 5.21802C125.747 5.50307 125.746 5.96481 126.029 6.25176C127.2 7.42231 127.855 9.25596 126.762 10.3481C125.938 11.1627 125.473 12.2737 125.473 13.4331Z" fill="#F89F46" stroke="#F89F46" stroke-width="0.5"/>
    <path d="M151.241 23.1243C151.385 19.9915 151.728 15.7759 152.553 13.7149C153.565 11.1834 156.632 9.34397 157.903 8.67073C158.822 8.17797 159.19 7.05047 158.741 6.11023C158.292 5.1699 157.183 4.74872 156.222 5.15383C153.344 6.32816 150.86 8.29923 149.062 10.8357C147.187 13.6478 146.462 19.0095 146.182 22.7884C143.555 22.6653 140.79 22.5998 137.939 22.5998C133.065 22.5697 128.194 22.786 123.342 23.2476C117.187 23.9065 116.672 24.738 116.672 25.5332C116.672 25.5502 116.674 25.5673 116.674 25.5844L116.674 25.5844L116.676 25.6163C116.677 25.6432 116.678 25.67 116.682 25.6971C116.694 25.8698 116.719 26.2068 116.74 26.4439C117.216 31.8365 119.833 36.8135 124.005 40.2626V44.6C124.005 47.4886 131.015 49 137.938 49C144.862 49 151.872 47.4886 151.872 44.6V40.6515C156.312 37.1693 158.99 31.9058 159.19 26.2667C159.19 26.2059 159.198 25.8759 159.202 25.6859C159.205 25.6335 159.205 25.5825 159.205 25.5334C159.205 24.892 159.203 23.8313 151.241 23.1243ZM157.193 25.532C155.213 26.0475 153.186 26.3651 151.143 26.4802C151.148 26.0567 151.159 25.4001 151.185 24.5915C153.214 24.7036 155.227 25.0187 157.193 25.532ZM147.603 23.592L147.603 23.5909L147.603 23.59C147.835 19.9516 148.482 14.3491 150.282 11.6492C151.92 9.35136 154.178 7.56721 156.792 6.50519C157.029 6.40576 157.303 6.50855 157.415 6.73946C157.528 6.97037 157.441 7.24898 157.217 7.37462C155.46 8.3049 152.341 10.295 151.191 13.1701C149.842 16.5429 149.691 24.6807 149.674 26.5993C148.971 26.6532 148.237 26.7015 147.474 26.7445C147.481 26.2556 147.507 25.093 147.603 23.592ZM137.939 24.0664C140.759 24.0664 143.492 24.1311 146.09 24.2521C146.025 25.4968 146.009 26.4272 146.006 26.814C143.379 26.9326 140.675 26.9997 137.938 26.9997C127.631 26.9997 120.709 26.2195 118.628 25.533C120.709 24.8468 127.631 24.0664 137.939 24.0664ZM150.405 44.5998C150.405 45.5952 146.005 47.5331 137.938 47.5331C129.872 47.5331 125.472 45.5952 125.472 44.5998V41.3904C129.122 43.9579 133.476 45.3349 137.938 45.3332C142.359 45.3757 146.694 44.1178 150.405 41.716V44.5998ZM150.747 39.6613C150.695 39.6922 150.646 39.7296 150.603 39.7726C146.941 42.4824 142.494 43.9201 137.939 43.8664C127.894 43.8664 119.378 36.4791 118.268 26.9338C119.928 27.3881 121.627 27.6843 123.343 27.8186C128.194 28.2802 133.065 28.4964 137.939 28.4664C140.945 28.4664 143.926 28.3944 146.797 28.2526C148.104 28.1867 149.346 28.1047 150.487 28.0092C152.916 27.8958 155.327 27.531 157.681 26.9205C157.299 31.964 154.775 36.6024 150.747 39.6613Z" fill="#F89F46" stroke="#F89F46" stroke-width="0.5"/>
</svg>
