<svg width="156" height="22" viewBox="0 0 156 22" fill="none" xmlns="http://www.w3.org/2000/svg">
    <path d="M124.719 5.19617H127.084C126.273 6.11218 125.667 7.10567 125.266 8.17664C124.869 9.2476 124.671 10.4712 124.671 11.8475C124.671 13.3378 124.892 14.648 125.334 15.7782C125.68 16.6486 126.264 17.592 127.084 18.6083H124.719C123.99 17.4507 123.479 16.3684 123.188 15.3612C122.9 14.3495 122.757 13.16 122.757 11.7928C122.757 10.453 122.91 9.2795 123.215 8.27234C123.52 7.26518 124.021 6.23979 124.719 5.19617ZM129.777 5.6405H134.487V7.40417H131.206L130.796 9.23621C130.91 9.20431 131.021 9.18152 131.131 9.16785C131.24 9.14962 131.345 9.1405 131.445 9.1405C132.357 9.1405 133.113 9.45268 133.715 10.077C134.321 10.6968 134.624 11.4921 134.624 12.4628C134.624 13.4426 134.289 14.2697 133.619 14.9442C132.954 15.6141 132.143 15.9491 131.186 15.9491C130.329 15.9491 129.593 15.7053 128.978 15.2177C128.362 14.73 127.959 14.0624 127.768 13.2147H129.777C129.932 13.5292 130.135 13.7684 130.386 13.9325C130.641 14.092 130.921 14.1718 131.227 14.1718C131.65 14.1718 132.01 14.0191 132.307 13.7137C132.603 13.4084 132.751 13.0165 132.751 12.538C132.751 12.0731 132.612 11.6926 132.334 11.3964C132.061 11.0956 131.728 10.9452 131.336 10.9452C131.126 10.9452 130.919 10.9976 130.714 11.1024C130.513 11.2072 130.315 11.3645 130.119 11.5741L128.561 11.2255L129.777 5.6405ZM137.249 13.7479C137.545 13.7479 137.798 13.8527 138.008 14.0624C138.217 14.2675 138.322 14.5181 138.322 14.8143C138.322 15.1106 138.217 15.3635 138.008 15.5731C137.798 15.7828 137.545 15.8876 137.249 15.8876C136.953 15.8876 136.7 15.7828 136.49 15.5731C136.281 15.3635 136.176 15.1106 136.176 14.8143C136.176 14.5181 136.281 14.2675 136.49 14.0624C136.7 13.8527 136.953 13.7479 137.249 13.7479ZM143.101 5.38757C143.834 5.38757 144.465 5.56759 144.994 5.92761C145.527 6.28764 145.938 6.83907 146.225 7.58191C146.516 8.32019 146.662 9.35014 146.662 10.6718C146.662 12.007 146.514 13.0461 146.218 13.7889C145.926 14.5318 145.532 15.0787 145.035 15.4296C144.538 15.7759 143.912 15.9491 143.155 15.9491C142.399 15.9491 141.763 15.7736 141.248 15.4227C140.733 15.0718 140.33 14.5386 140.038 13.8231C139.746 13.1076 139.601 12.0891 139.601 10.7675C139.601 8.92175 139.885 7.58419 140.455 6.75476C141.089 5.8433 141.97 5.38757 143.101 5.38757ZM143.148 7.20593C142.825 7.20593 142.538 7.31075 142.287 7.52039C142.036 7.72546 141.845 8.08093 141.713 8.58679C141.581 9.09265 141.515 9.83321 141.515 10.8085C141.515 12.08 141.665 12.9595 141.966 13.4471C142.271 13.9302 142.665 14.1718 143.148 14.1718C143.613 14.1718 143.982 13.9416 144.256 13.4813C144.589 12.9253 144.755 11.9956 144.755 10.6923C144.755 9.37065 144.604 8.45919 144.304 7.95789C144.007 7.45658 143.622 7.20593 143.148 7.20593ZM149.786 18.6083H147.421C148.232 17.6923 148.836 16.701 149.232 15.6346C149.633 14.5637 149.834 13.3378 149.834 11.9569C149.834 10.4667 149.613 9.15873 149.171 8.03308C148.825 7.16264 148.241 6.217 147.421 5.19617H149.786C150.515 6.35372 151.023 7.43835 151.311 8.45007C151.602 9.45723 151.748 10.6444 151.748 12.0116C151.748 13.3514 151.595 14.5249 151.29 15.5321C150.985 16.5393 150.483 17.5647 149.786 18.6083Z" fill="#3F3737"/>
    <path d="M66.7284 8.20797C66.5896 7.77866 66.2089 7.47374 65.7583 7.43314L59.639 6.87749L57.2192 1.21379C57.0408 0.798713 56.6344 0.530029 56.183 0.530029C55.7315 0.530029 55.3252 0.798713 55.1467 1.21476L52.727 6.87749L46.6066 7.43314C46.1569 7.47471 45.7771 7.77866 45.6375 8.20797C45.4979 8.63728 45.6268 9.10816 45.967 9.40499L50.5925 13.4616L49.2286 19.4699C49.1288 19.9116 49.3002 20.3683 49.6668 20.6332C49.8638 20.7756 50.0943 20.8481 50.3268 20.8481C50.5272 20.8481 50.726 20.794 50.9044 20.6873L56.183 17.5325L61.4596 20.6873C61.8457 20.9195 62.3324 20.8984 62.6982 20.6332C63.0649 20.3675 63.2362 19.9107 63.1364 19.4699L61.7724 13.4616L66.3979 9.4058C66.7381 9.10816 66.868 8.63809 66.7284 8.20797Z" fill="#FFC107"/>
    <path d="M89.5214 8.20797C89.3826 7.77866 89.0018 7.47374 88.5513 7.43314L82.4319 6.87749L80.0122 1.21379C79.8337 0.798713 79.4274 0.530029 78.9759 0.530029C78.5245 0.530029 78.1181 0.798713 77.9397 1.21476L75.5199 6.87749L69.3996 7.43314C68.9499 7.47471 68.5701 7.77866 68.4305 8.20797C68.2909 8.63728 68.4198 9.10816 68.76 9.40499L73.3855 13.4616L72.0216 19.4699C71.9217 19.9116 72.0932 20.3683 72.4598 20.6332C72.6568 20.7756 72.8873 20.8481 73.1197 20.8481C73.3202 20.8481 73.519 20.794 73.6974 20.6873L78.9759 17.5325L84.2525 20.6873C84.6387 20.9195 85.1254 20.8984 85.4911 20.6332C85.8579 20.3675 86.0292 19.9107 85.9293 19.4699L84.5654 13.4616L89.1909 9.4058C89.5311 9.10816 89.661 8.63809 89.5214 8.20797Z" fill="#FFC107"/>
    <path d="M112.314 8.20797C112.176 7.77866 111.795 7.47374 111.344 7.43314L105.225 6.87749L102.805 1.21379C102.627 0.798713 102.22 0.530029 101.769 0.530029C101.317 0.530029 100.911 0.798713 100.733 1.21476L98.3129 6.87749L92.1926 7.43314C91.7429 7.47471 91.363 7.77866 91.2234 8.20797C91.0839 8.63728 91.2128 9.10816 91.553 9.40499L96.1785 13.4616L94.8145 19.4699C94.7147 19.9116 94.8862 20.3683 95.2527 20.6332C95.4498 20.7756 95.6803 20.8481 95.9127 20.8481C96.1131 20.8481 96.3119 20.794 96.4904 20.6873L101.769 17.5325L107.046 20.6873C107.432 20.9195 107.918 20.8984 108.284 20.6332C108.651 20.3675 108.822 19.9107 108.722 19.4699L107.358 13.4616L111.984 9.4058C112.324 9.10816 112.454 8.63809 112.314 8.20797Z" fill="#FFC107"/>
    <g clip-path="url(#clip0)">
        <path d="M43.9394 8.13289C43.8006 7.70358 43.4198 7.39866 42.9693 7.35806L36.8499 6.80242L34.4301 1.13872C34.2517 0.723639 33.8454 0.454956 33.3939 0.454956C32.9424 0.454956 32.5361 0.723639 32.3577 1.13969L29.9379 6.80242L23.8176 7.35806C23.3679 7.39963 22.988 7.70358 22.8484 8.13289C22.7089 8.5622 22.8378 9.03309 23.178 9.32992L27.8035 13.3865L26.4395 19.3948C26.3397 19.8365 26.5112 20.2932 26.8777 20.5582C27.0748 20.7005 27.3053 20.773 27.5377 20.773C27.7381 20.773 27.9369 20.719 28.1154 20.6122L33.3939 17.4574L38.6705 20.6122C39.0566 20.8445 39.5434 20.8233 39.9091 20.5582C40.2758 20.2924 40.4471 19.8356 40.3473 19.3948L38.9834 13.3865L43.6089 9.33073C43.9491 9.03309 44.079 8.56301 43.9394 8.13289Z" fill="#FFC107"/>
    </g>
    <g clip-path="url(#clip1)">
        <path d="M21.1464 8.13289C21.0076 7.70358 20.6268 7.39866 20.1763 7.35806L14.0569 6.80242L11.6372 1.13872C11.4587 0.723639 11.0524 0.454956 10.6009 0.454956C10.1495 0.454956 9.74312 0.723639 9.5647 1.13969L7.14494 6.80242L1.02458 7.35806C0.574892 7.39963 0.19508 7.70358 0.055481 8.13289C-0.0841179 8.5622 0.0448048 9.03309 0.384986 9.32992L5.01051 13.3865L3.64655 19.3948C3.54675 19.8365 3.71821 20.2932 4.08476 20.5582C4.28178 20.7005 4.51229 20.773 4.74474 20.773C4.94516 20.773 5.14396 20.719 5.32239 20.6122L10.6009 17.4574L15.8775 20.6122C16.2637 20.8445 16.7504 20.8233 17.1161 20.5582C17.4829 20.2924 17.6542 19.8356 17.5543 19.3948L16.1904 13.3865L20.8159 9.33073C21.1561 9.03309 21.286 8.56301 21.1464 8.13289Z" fill="#FFC107"/>
    </g>
    <defs>
        <clipPath id="clip0">
            <rect width="21.2017" height="21.2017" fill="white" transform="translate(22.793)"/>
        </clipPath>
        <clipPath id="clip1">
            <rect width="21.2017" height="21.2017" fill="white" transform="translate(0 0.000488281)"/>
        </clipPath>
    </defs>
</svg>
