<svg width="264" height="202" viewBox="0 0 264 202" fill="none" xmlns="http://www.w3.org/2000/svg">
    <path d="M198.197 161.165L197.597 160.357H196.591H22.9957C17.3979 160.357 12.0471 158.234 8.11603 154.483C4.18817 150.735 2 145.672 2 140.413V21.944C2 16.6856 4.18817 11.6224 8.11603 7.87418C12.0471 4.12291 17.3979 2 22.9957 2H241.004C246.602 2 251.953 4.12291 255.884 7.87418C259.812 11.6224 262 16.6856 262 21.944V140.413C262 145.672 259.812 150.735 255.884 154.483C251.953 158.234 246.602 160.357 241.004 160.357H232.167H230.4L230.182 162.11C228.596 174.857 223.849 187.048 216.349 197.679C216.33 197.621 216.31 197.562 216.29 197.503C215.459 195.054 214.222 191.619 212.595 187.658C209.35 179.757 204.515 169.674 198.197 161.165Z" fill="white" stroke="#F89F46" stroke-width="4"/>
</svg>
